<?xml version="1.0" encoding="UTF-8"?>
<svg width="290px" height="185px" viewBox="0 0 290 185" version="1.1" xmlns="http://www.w3.org/2000/svg" xmlns:xlink="http://www.w3.org/1999/xlink">
    <title>Group 295</title>
    <g id="Design" stroke="none" stroke-width="1" fill="none" fill-rule="evenodd" opacity="0.67">
        <g id="Blog-landing-page" transform="translate(-176.000000, -56.000000)">
            <g id="Group-295" transform="translate(176.000000, 56.000000)">
                <path d="M282.407545,38.647336 C257.097196,-7.09508261 206.147323,-12.9645031 153.700741,24.955448 C65.8062964,88.79182 22.8800261,-25.4126085 1.83092935,52.8069274 C-17.1582619,123.610024 115.7095,203.530767 208.155796,161.21389 C259.57114,137.738778 306.748376,82.6551405 282.407545,38.647336 Z" id="Stroke-237" stroke="#FFFFFF" stroke-width="0.009"></path>
                <path d="M280.52634,40.6223384 C255.720197,-4.6045501 205.258474,-10.973376 153.60239,26.0855832 C67.5209289,87.8385213 25.6230778,-20.9095669 5.68446776,55.6371411 C-12.2669738,125.036269 117.179548,202.706131 207.52364,161.522085 C258.263361,138.506412 304.392954,84.1760609 280.52634,40.6223384 Z" id="Stroke-239" stroke="#FFF700" stroke-width="0.017"></path>
                <path d="M277.666191,42.5853898 C253.454727,-2.13250611 203.699413,-8.94237713 152.978823,27.1969837 C69.0871673,86.9716613 28.2940219,-16.4283509 9.53533634,58.4570938 C-7.31847106,126.452975 118.254588,201.885985 206.169079,161.828828 C256.055322,139.268077 300.979127,85.6888656 277.666191,42.5853898 Z" id="Stroke-241" stroke="#FFF700" stroke-width="0.026"></path>
                <path d="M275.784411,44.5525214 C252.077945,0.349292074 202.853494,-6.90691833 152.881311,28.3147578 C70.8825291,86.1124536 31.0445649,-11.9363824 13.3944761,61.2814033 C-2.42096953,127.872947 119.729259,201.06502 205.538651,162.135528 C254.745115,140.035199 298.624947,87.2052563 275.784411,44.5525214 Z" id="Stroke-243" stroke="#FFF700" stroke-width="0.034"></path>
                <path d="M273.907116,46.5423491 C250.709599,2.83307542 202.023103,-4.86776377 152.799104,29.4476696 C72.6982322,85.2935482 33.6636522,-7.48188091 17.2787985,64.1361808 C2.36500684,129.321868 121.132693,200.134596 204.918935,162.515495 C253.391973,140.750911 296.273946,88.7644577 273.907116,46.5423491 Z" id="Stroke-245" stroke="#FFF700" stroke-width="0.043"></path>
                <path d="M272.026126,48.5240666 C249.33693,5.32476512 201.180953,-2.81531534 152.705772,30.5788308 C74.506045,84.4505678 36.3946831,-2.97744783 21.1475641,66.9762882 C7.24933759,130.756122 122.600241,199.291842 204.288039,162.835193 C252.075903,141.508337 293.919887,90.2950581 272.026126,48.5240666 Z" id="Stroke-247" stroke="#FFF700" stroke-width="0.052"></path>
                <path d="M269.168042,49.5092115 C247.075042,6.82510719 199.642336,-1.75392674 152.101834,30.7141003 C76.1109489,82.6155825 39.0651356,0.534330437 25.0157534,68.8191163 C12.1854901,131.186351 123.671983,197.447998 202.945507,162.156328 C249.862333,141.266008 290.503905,90.826539 269.168042,49.5092115 Z" id="Stroke-249" stroke="#FFF700" stroke-width="0.06"></path>
                <path d="M267.28826,51.5014333 C245.701368,9.33360377 198.810313,0.315660737 152.01174,31.8565794 C77.9309109,81.7886442 41.8037585,5.05503645 28.8922128,71.66888 C17.0776089,132.624305 125.143085,196.607165 202.319499,162.473877 C248.545197,142.030975 288.148139,92.3640682 267.28826,51.5014333 Z" id="Stroke-251" stroke="#FFF700" stroke-width="0.069"></path>
                <path d="M265.405931,53.4983486 C244.325471,11.8496812 197.975717,2.39589457 151.921675,33.0048459 C79.7574862,80.966336 44.54453,9.58406786 32.7725924,74.5222107 C21.9777925,134.0615 126.621524,195.76342 201.691411,162.793597 C247.233741,142.79441 285.79468,93.9035032 265.405931,53.4983486 Z" id="Stroke-253" stroke="#FFF700" stroke-width="0.078"></path>
                <path d="M263.526085,55.5005663 C242.95268,14.3736709 197.149635,4.48715042 151.833063,34.159585 C81.5905743,80.1550768 47.2904128,14.1265079 36.6575172,77.3796422 C26.8868874,135.501569 128.101449,194.921102 201.06458,163.111737 C245.920419,143.557539 283.43799,95.4482882 263.526085,55.5005663 Z" id="Stroke-255" stroke="#FFF700" stroke-width="0.086"></path>
                <path d="M261.643832,56.5097385 C241.580281,15.9070741 196.320703,5.5884209 151.743909,34.3225746 C83.4319878,78.3519175 50.0425494,17.6757654 40.5479835,79.2426994 C31.8031919,135.943802 129.588204,193.077422 200.440597,162.430404 C244.610297,143.322359 281.083859,95.9950637 261.643832,56.5097385 Z" id="Stroke-257" stroke="#FFF700" stroke-width="0.095"></path>
                <path d="M258.786593,59.5245155 C239.319437,19.4480429 194.813544,8.70297631 151.165213,36.4923855 C85.0944763,78.5639292 52.7587653,23.2348165 44.4424744,83.1101169 C36.7629356,138.390318 130.681307,193.235465 199.109053,163.747028 C242.397928,145.093757 277.66578,98.5455312 258.786593,59.5245155 Z" id="Stroke-259" stroke="#FFF700" stroke-width="0.103"></path>
                <path d="M256.905593,60.5460632 C237.949632,20.9993386 193.995754,9.82896538 151.085277,36.6713208 C86.957281,76.7842855 55.5319161,26.8032998 48.3463321,84.9818981 C41.697868,138.833907 132.180715,191.393859 198.490599,163.063837 C241.090113,144.864364 275.309015,99.0992938 256.905593,60.5460632 Z" id="Stroke-261" stroke="#FFF700" stroke-width="0.112"></path>
                <path d="M255.024744,62.5739572 C236.578126,23.5571979 193.184455,11.970278 151.004953,37.8587971 C88.8302526,76.0186955 58.3062561,31.3821643 52.2585639,87.8577847 C46.6430335,140.280685 133.682469,190.552427 197.86878,163.379903 C239.783325,145.632849 272.95174,100.656661 255.024744,62.5739572 Z" id="Stroke-263" stroke="#FFF700" stroke-width="0.121"></path>
                <path d="M253.14467,64.6068366 C235.210473,26.1278854 192.379543,14.1255599 150.928761,39.0536645 C90.7146634,75.2664245 61.0955587,35.9669113 56.1800696,90.7362027 C51.6044677,141.729366 135.190956,189.712945 197.251259,163.694187 C238.480599,146.405797 270.59221,102.218925 253.14467,64.6068366 Z" id="Stroke-265" stroke="#FFF700" stroke-width="0.129"></path>
                <path d="M251.264178,66.6479979 C233.841337,28.7072962 191.57806,16.2960894 150.856034,40.2597205 C92.6158055,74.5313125 63.896468,40.5605515 60.1129279,93.6199388 C56.5793901,143.179916 136.708996,188.875372 196.637385,164.006677 C237.176419,147.185854 268.233407,103.783912 251.264178,66.6479979 Z" id="Stroke-267" stroke="#FFF700" stroke-width="0.138"></path>
                <path d="M248.406686,68.696572 C231.587576,31.2947893 190.117203,18.4840234 150.330281,41.4765856 C94.3683745,73.8131687 66.6940863,45.1643386 64.058562,96.5050569 C61.5872768,144.630877 137.845544,188.038429 195.329228,164.318596 C234.972441,147.963989 264.812632,105.353094 248.406686,68.696572 Z" id="Stroke-269" stroke="#FFF700" stroke-width="0.147"></path>
                <path d="M246.527725,70.7501639 C230.222293,33.8937383 189.334156,20.690555 150.27457,42.7027091 C96.3040781,73.1154881 69.533276,49.7755679 68.0206127,99.393444 C66.5952678,146.080989 139.385448,187.200648 194.722217,164.631192 C233.671371,148.741658 262.450497,106.923445 246.527725,70.7501639 Z" id="Stroke-271" stroke="#FFF700" stroke-width="0.155"></path>
                <path d="M244.64652,72.8124544 C228.859229,36.5040289 188.562188,22.9153158 150.2286,43.9412509 C98.2664911,72.4377703 72.39466,54.3913434 72,102.286745 C71.6339506,147.531129 140.938179,186.369955 194.123591,164.93854 C232.37751,149.527733 260.089436,108.502395 244.64652,72.8124544 Z" id="Stroke-273" stroke="#FFF700" stroke-width="0.164"></path>
                <path d="M242.768152,73.167788 C227.501753,37.1471051 187.804485,23.0823781 150.197765,43.25861 C100.258613,70.0500422 75.2877508,57.1838521 76.0154569,103.691733 C76.704592,147.818038 142.514423,184.644633 193.533563,164.20493 C231.086284,149.158643 257.723413,108.627948 242.768152,73.167788 Z" id="Stroke-275" stroke="#FFF700" stroke-width="0.172"></path>
                <path d="M239.88927,75.9559295 C225.147499,40.7555921 186.076148,26.4316009 149.20629,45.4534104 C101.321252,70.1566598 77.2591434,62.6386137 79.098007,107.075774 C80.8545719,149.427861 143.13161,183.708614 191.960512,164.553606 C228.80208,150.104101 254.355855,110.661895 239.88927,75.9559295 Z" id="Stroke-277" stroke="#FFF700" stroke-width="0.181"></path>
                <path d="M238.013633,77.3372997 C223.802419,42.4299506 185.375317,27.6471781 149.252041,45.7892029 C103.445495,68.7909288 80.29924,66.4861156 83.2510174,109.514451 C86.0742331,150.72781 144.796091,182.979725 191.412576,164.819654 C227.528138,150.748434 251.98058,111.806373 238.013633,77.3372997 Z" id="Stroke-279" stroke="#FFF700" stroke-width="0.19"></path>
                <path d="M236.138446,79.4315132 C222.46667,45.0906336 184.709342,29.9699343 149.338985,47.0734228 C105.638635,68.2068661 83.4210358,71.1398491 87.4704097,112.425641 C91.3681891,152.179278 146.502368,182.155446 190.888748,165.121484 C226.261674,151.550966 249.602101,113.399011 236.138446,79.4315132 Z" id="Stroke-281" stroke="#FFF700" stroke-width="0.198"></path>
                <path d="M234.264901,81.5348671 C221.135888,47.7626622 184.071316,32.3230583 149.467794,48.3721203 C107.899427,67.6561958 86.6173876,75.7951609 91.755051,115.340502 C96.7284733,153.623211 148.248818,181.331694 190.379197,165.424067 C225.000683,152.352864 247.219409,114.998486 234.264901,81.5348671 Z" id="Stroke-283" stroke="#FFF700" stroke-width="0.207"></path>
                <path d="M232.366784,97.6441362 C219.699573,64.4421161 183.096237,48.7102488 149.028922,63.687233 C109.33747,81.1394123 88.8558029,94.4474372 95.1094319,132.248082 C101.203108,169.062757 149.431384,194.513103 189.571735,179.723556 C223.662269,167.162711 244.894681,130.597096 232.366784,97.6441362 Z" id="Stroke-285" stroke="#FFF700" stroke-width="0.216"></path>
                <path d="M229.495919,99.0796723 C217.382992,66.1913295 181.520489,50.0623984 148.235041,64.059582 C110.722296,79.8319299 91.1974421,98.4130167 98.5218369,134.76125 C105.702061,170.385982 150.261156,193.778358 188.108583,179.987889 C221.414627,167.85114 241.503292,131.779388 229.495919,99.0796723 Z" id="Stroke-287" stroke="#FFF700" stroke-width="0.224"></path>
                <path d="M227.624622,91.8824188 C216.074014,59.8386355 180.9806,43.6031186 148.487935,56.3643475 C113.176295,70.2359157 94.6167602,93.7398069 102.994096,128.060554 C111.255901,161.918232 152.131037,182.894438 187.666038,170.312297 C220.179242,158.802118 239.108479,123.800841 227.624622,91.8824188 Z" id="Stroke-289" stroke="#FFF700" stroke-width="0.233"></path>
                <path d="M225.730981,103.345096 C214.656996,71.6243593 180.086252,55.0560536 148.143453,66.7588997 C114.782234,78.9843323 97.0597313,107.74203 106.545087,140.60319 C115.960811,173.237809 153.435446,192.161615 186.910138,180.574613 C218.865832,169.515346 236.768861,135.001475 225.730981,103.345096 Z" id="Stroke-291" stroke="#FFF700" stroke-width="0.241"></path>
                <path d="M222.862374,104.486156 C212.36192,73.3576489 178.61303,56.6362543 147.486685,67.1365709 C116.357771,77.6394561 99.6361581,111.385337 110.136612,142.513844 C120.637066,173.642351 154.385956,190.363746 185.51487,179.863429 C216.641215,169.360544 233.365397,135.614663 222.862374,104.486156 Z" id="Stroke-293" stroke="#FFF700" stroke-width="0.25"></path>
            </g>
        </g>
    </g>
</svg>