<svg xmlns="http://www.w3.org/2000/svg" viewBox="0 0 66 65"><defs><style>.cls-1{fill:#b18f4a;}.cls-2{fill:#edc951;}</style></defs><g id="Layer_2" data-name="Layer 2"><g id="Capa_1" data-name="Capa 1"><g id="group-39svg"><path id="path-1" class="cls-1" d="M66,57a8,8,0,0,1-8,8H14a8,8,0,0,1-8-8V13a8,8,0,0,1,8-8H58a8,8,0,0,1,8,8Z"/><path id="path-2" d="M53.5,63H9.5A9.51,9.51,0,0,1,0,53.5V9.5A9.51,9.51,0,0,1,9.5,0h44A9.51,9.51,0,0,1,63,9.5v44A9.51,9.51,0,0,1,53.5,63ZM9.5,3A6.51,6.51,0,0,0,3,9.5v44A6.51,6.51,0,0,0,9.5,60h44A6.51,6.51,0,0,0,60,53.5V9.5A6.51,6.51,0,0,0,53.5,3Z"/><path id="path-3" class="cls-2" d="M51.54,34.66,39.18,47A2.47,2.47,0,0,1,35.69,47L23,34.22a2.37,2.37,0,0,1,.5-3.79h0a2.41,2.41,0,0,1,2.83.46l9.78,9.78a1.82,1.82,0,0,0,2.56,0l9.48-9.49a2.37,2.37,0,0,1,2.82-.37h0A2.42,2.42,0,0,1,51.54,34.66Z"/><path id="path-4" d="M32.48,46.22A4,4,0,0,1,29.63,45L16.89,32.28a4,4,0,0,1-1.13-3.38,3.76,3.76,0,0,1,2-2.79,4,4,0,0,1,4.59.72l9.78,9.78c.23.22.36.12.44,0L42,27.16a3.95,3.95,0,0,1,6.64,2.3,3.82,3.82,0,0,1-1.08,3.26L35.24,45.08A3.88,3.88,0,0,1,32.48,46.22ZM19.54,28.66a.76.76,0,0,0-.39.1.78.78,0,0,0-.42.59.92.92,0,0,0,.28.81L31.75,42.91a1,1,0,0,0,1.37.05L45.48,30.6a.85.85,0,0,0,.23-.72,1,1,0,0,0-.5-.71.86.86,0,0,0-1,.11l-9.49,9.49a3.39,3.39,0,0,1-4.68,0L20.22,29A1,1,0,0,0,19.54,28.66Z"/></g></g></g></svg>