<?xml version="1.0" encoding="UTF-8"?>
<svg width="32px" height="32px" viewBox="0 0 32 32" version="1.1" xmlns="http://www.w3.org/2000/svg" xmlns:xlink="http://www.w3.org/1999/xlink">
    <title>Group 2</title>
    <g id="Design" stroke="none" stroke-width="1" fill="none" fill-rule="evenodd">
        <g id="Blog-landing-page" transform="translate(-678.000000, -1247.000000)">
            <g id="Group-19" transform="translate(177.000000, 125.000000)">
                <g id="Group-2" transform="translate(501.000000, 1122.000000)">
                    <circle id="Oval" fill="#1A1E40" cx="16" cy="16" r="16"></circle>
                    <g id="new-email-filled-back-envelope" transform="translate(6.000000, 10.000000)" fill="#EBEBF2" fill-rule="nonzero">
                        <path d="M0.814792089,9.47210897 L5.63963936,5.08093299 C5.86330778,4.8773618 5.81537883,4.55746422 5.55975778,4.39751542 L0.734910511,1.66384516 C0.415384202,1.48935556 0,1.69292675 0,2.02736514 L0,9.16689759 C0,9.54481296 0.511242095,9.74852956 0.814792089,9.47210897 Z" id="Path"></path>
                        <path d="M13.3591628,5.07604391 L18.1850348,9.46903645 C18.4886493,9.74541678 19,9.55631445 19,9.16356346 L19,2.03586033 C19,1.68674834 18.5845276,1.48309968 18.2649334,1.67220201 L13.455041,4.39236626 C13.1832262,4.55237592 13.1354468,4.87239525 13.3591628,5.07604391 Z" id="Path"></path>
                        <path d="M2.69921362,0.761904762 L9.67347659,4.73766234 C9.82476212,4.82077922 10.0063048,4.82077922 10.1575903,4.73766234 L17.1318533,0.761904762 C17.5251956,0.54025974 17.343653,0 16.8897964,0 L2.92614192,0 C2.47228532,0 2.30587124,0.54025974 2.69921362,0.761904762 Z" id="Path"></path>
                        <path d="M11.4085115,6.46505389 L9.74550807,7.40195883 C9.58712679,7.48844236 9.39691087,7.48844236 9.23852959,7.40195883 L7.59136427,6.46505389 C7.40146511,6.36415644 7.16389319,6.37857036 7.00551191,6.52270958 L1.79476775,11.2647458 C1.49384332,11.5386104 1.69973899,12 2.12736845,12 L16.8726657,12 C17.3001368,12 17.5061909,11.5387545 17.2052664,11.2647458 L11.9945223,6.52270958 C11.836141,6.39298428 11.5985691,6.36415644 11.4085115,6.46505389 Z" id="Path"></path>
                    </g>
                </g>
            </g>
        </g>
    </g>
</svg>