<?xml version="1.0" encoding="UTF-8"?>
<svg width="30px" height="30px" viewBox="0 0 30 30" version="1.1" xmlns="http://www.w3.org/2000/svg" xmlns:xlink="http://www.w3.org/1999/xlink">
    <title>facebook</title>
    <g id="Design" stroke="none" stroke-width="1" fill="none" fill-rule="evenodd">
        <g id="Blog-landing-page" transform="translate(-618.000000, -1247.000000)" fill="#1A1E40" fill-rule="nonzero">
            <g id="Group-19" transform="translate(177.000000, 125.000000)">
                <g id="facebook" transform="translate(441.000000, 1122.000000)">
                    <path d="M30,15 C30,6.71484375 23.2851562,0 15,0 C6.71484375,0 0,6.71484375 0,15 C0,23.2851562 6.71484375,30 15,30 C15.0878906,30 15.1757812,30 15.2636719,29.9941406 L15.2636719,18.3222656 L12.0410156,18.3222656 L12.0410156,14.5664062 L15.2636719,14.5664062 L15.2636719,11.8007812 C15.2636719,8.59570312 17.2207031,6.84960937 20.0800781,6.84960937 C21.4511719,6.84960937 22.6289062,6.94921875 22.96875,6.99609375 L22.96875,10.3476562 L21,10.3476562 C19.4472656,10.3476562 19.1425781,11.0859375 19.1425781,12.1699219 L19.1425781,14.5605469 L22.8632812,14.5605469 L22.3769531,18.3164062 L19.1425781,18.3164062 L19.1425781,29.4199219 C25.4121094,27.6210937 30,21.8496094 30,15 Z" id="Path"></path>
                </g>
            </g>
        </g>
    </g>
</svg>