<svg xmlns="http://www.w3.org/2000/svg" viewBox="0 0 36.24 11.89"><g id="Layer_2" data-name="Layer 2"><g id="Layer_1-2" data-name="Layer 1"><path d="M10.22,2.6h0a3.28,3.28,0,0,0-.43,0l-.4,0h0l-.56,0-.17,0h-.7l-.56,0H6.76c-.35,0-.69,0-1,0-.72,0-1.45,0-2.17,0H5.94l.94,0h.6l.94,0H8.5l.37,0H9a4.56,4.56,0,0,1-.52,0,.33.33,0,0,0-.1,0,3.17,3.17,0,0,1-.44,0H4.6a.27.27,0,0,1-.09,0H4.23a.21.21,0,0,0-.11,0h0a.13.13,0,0,0-.12,0,3.23,3.23,0,0,1-.44,0H3.46a.08.08,0,0,0-.09.06l0,0c0,.16-.11.31-.14.47a.74.74,0,0,1,0,.14c-.11.31-.22.62-.32.93l-.18.49-.08.14,0-.11a.25.25,0,0,0-.06.14l0,0s0,.11,0,.17-.11.28-.17.43l-.13.37-.07.18c0,.07,0,.1.06.1h.23L3.3,6l.8,0h.3c.18,0,.37,0,.56,0l.73,0L6,6a.2.2,0,0,1,.09.05H6L5.83,6H5.62a1.3,1.3,0,0,0-.34,0H3.76L3.69,6l.46,0H5.56a.78.78,0,0,1,.22,0H6l.09.06s0,0,0,0h0l-.32,0-.34,0H3.87l-.67,0-.7,0H2.2s-.05,0-.05,0h.39l.57,0c.24,0,.49,0,.73,0H5.27c.17,0,.34,0,.5,0a1.66,1.66,0,0,1,.22,0H6s0,0-.07,0H5.88l-.38,0h-1a.14.14,0,0,0-.09,0h-2l-.29,0a.12.12,0,0,0-.13.1c-.08.22-.17.45-.26.68s-.1.27-.14.41l-.18.44c-.06.19-.14.39-.21.58s-.1.25-.14.38a.43.43,0,0,0,0,.07l0-.09c.07-.17.13-.34.2-.52s.22-.61.34-.91l.22-.61c0-.15.11-.29.16-.43s0,0,0,0l0,0C1.39,7.87.82,9.43.25,11v0l0-.05a.24.24,0,0,1,0,.08c0,.06,0,.12-.05.18a.1.1,0,0,1-.11.08h0L0,11.22s0-.07,0-.1,0-.1,0-.15a2.18,2.18,0,0,1,.09-.23,1.24,1.24,0,0,0,.1-.2L.45,10,.69,9.3,1,8.37c.05-.16.12-.31.17-.48s.12-.32.17-.47l.11-.27L1.53,7c.08-.21.15-.41.24-.62,0,0,0,0,0-.06s0-.06-.05-.06h0a.55.55,0,0,1-.18,0,1.23,1.23,0,0,0-.27,0H1c-.2,0-.39,0-.6,0,0,0,.09,0,.13,0H.9l.12,0H1.4l.13,0h.24s0,0,0,0a5.25,5.25,0,0,0-.56,0l-.56,0-.26,0a.33.33,0,0,0-.15,0s0,0,0-.07,0,0,.06-.06a2.47,2.47,0,0,1,.29-.06l.64-.07.59,0h.09A.1.1,0,0,0,1.92,6a0,0,0,0,1,0,0l.15-.4.08-.2c.08-.19.14-.36.21-.54l.11-.29A4.78,4.78,0,0,0,2.67,4c.1-.25.19-.51.3-.76s.15-.42.23-.63l0-.08s0-.06-.06-.06h-.7A2.06,2.06,0,0,1,2,2.5a2.75,2.75,0,0,0-.41,0H1.39l-.3,0H1s0,0,0,0l.47,0,.51,0c.32,0,.65,0,1,0h.2s0,0,0,0h-1l-.53,0L1,2.5l-.48,0-.05,0a.16.16,0,0,0-.1,0,.46.46,0,0,0-.25.08l0,0a.06.06,0,0,1,0-.08s0,0,.07-.06l.27-.09a7.5,7.5,0,0,1,.81-.11l.21,0,.36,0c.23,0,.47,0,.7,0h.71c.05,0,.08,0,.09-.06a.94.94,0,0,1,.06-.15.11.11,0,0,1,0,0s0,0,0,0,0,0,0,.06a1.09,1.09,0,0,0,0,.18s0,0,0,0h1.6l.92,0H7.65l.59,0c.19,0,.39,0,.57,0h.4l.15,0a1.67,1.67,0,0,1,.32,0l.4,0h.05s.07,0,.08.08S10.23,2.58,10.22,2.6ZM.27,6.31h0Zm0,4.31h0Zm0,.28s0,0,0,0A.11.11,0,0,1,.31,10.9Zm0-.09a.14.14,0,0,1,0,.09A.12.12,0,0,1,.34,10.81ZM1.83,6.07H1.74l-.38,0H1.3L1,6.13l-.3,0H.56l-.07,0H.38a.08.08,0,0,0-.07,0H.5l0,0H.84a.11.11,0,0,0,.08,0h.22v0a1.38,1.38,0,0,0,.29,0l0,0a2.08,2.08,0,0,0,.35,0v0S1.8,6.1,1.83,6.07ZM.34,10.44l0,0S.34,10.45.34,10.44Zm.08.18a.52.52,0,0,1-.08.19A.36.36,0,0,1,.42,10.62Zm0-8h0Zm0,7.64a.07.07,0,0,0,0,0S.41,10.26.41,10.24Zm0,.36a.24.24,0,0,1,0-.13A.35.35,0,0,1,.42,10.6Zm0-.43h0S.46,10.17.45,10.17Zm0-.13,0,.06h0Zm0,.43a1.58,1.58,0,0,1,.13-.34A1.09,1.09,0,0,1,.47,10.47Zm.49-8a.15.15,0,0,0-.09,0l-.35.06a0,0,0,0,0,0,0ZM.5,2.57H.59A.09.09,0,0,1,.5,2.57ZM.57,9.84h0Zm0-.14a.11.11,0,0,1,0,.07h0Zm0,.43,0-.05s0,0,0,.05Zm0-.06s0,0,0,0a.08.08,0,0,1,0,0Zm0-.08a.14.14,0,0,1,0-.06Zm0-.06a.82.82,0,0,1,.11-.28A1.17,1.17,0,0,1,.67,9.93Zm0-7.38h0Zm0,6.76a.32.32,0,0,1,0,.09A.11.11,0,0,0,.75,9.31Zm.06-.14a.15.15,0,0,0,0,.08A.09.09,0,0,0,.81,9.17Zm0,.47a.08.08,0,0,1,0-.08A.1.1,0,0,1,.78,9.64Zm0-.08a.08.08,0,0,1,0-.05Zm0-.05s0-.11.05-.14A.27.27,0,0,1,.83,9.51Zm.1-7h0ZM.87,9a.33.33,0,0,0,0,.06S.87,9,.87,9Zm0,.38a.25.25,0,0,1,.05-.15A.23.23,0,0,1,.88,9.37Zm0-3.22h0Zm0,0h0ZM1,8.77H1l0,0S1,8.79,1,8.77ZM1,9a.84.84,0,0,1,.06-.14.06.06,0,0,1,0,0L1,9.17s0,0,0,.05Zm0-.36s0,0,0,.06S1,8.7,1,8.66ZM2.21,2.38l-.2,0a3.75,3.75,0,0,0-.58,0H1.28L1,2.41v0a.26.26,0,0,0,.15,0h.14s0,0,.07,0a.71.71,0,0,1,.2,0h.61Zm-1,5.8a.07.07,0,0,1,0,.05S1.16,8.2,1.16,8.18Zm.06-.1v0a.05.05,0,0,0,0,0Zm0-.09,0,0S1.25,8,1.24,8Zm.05-.14a.2.2,0,0,0,0,.08.07.07,0,0,1,0,.05s0,0,0,0l0,0h0A.08.08,0,0,0,1.29,7.85Zm.11-.31v0h0Zm.07-.15h0a.05.05,0,0,1,0,0h0s0,0,0,0a0,0,0,0,1,0,0,0,0,0,0,1,0,0Zm0-.13,0,0S1.51,7.27,1.51,7.26Zm.16-.43s.05-.06,0-.08a.1.1,0,0,0,0,.08.09.09,0,0,0,0,.08h0A.08.08,0,0,0,1.67,6.83Zm.18-.49h0s0,0,0,0l0,0Zm.5-1a.21.21,0,0,0,0,.06c-.07.17-.13.34-.19.51,0,0,0,0,0,0s0,0,0,0a3.4,3.4,0,0,0,.12-.34A1.8,1.8,0,0,0,2.35,5.36Zm.58-3-.34,0H2.17A3.84,3.84,0,0,0,2.93,2.36ZM2.19,6.07a1.31,1.31,0,0,0,.45,0l-.17,0h.2a5.71,5.71,0,0,0,.59,0l.34,0H3.29L2.56,6H2.2A0,0,0,0,0,2.19,6.07Zm.21-.85a.12.12,0,0,0,0,.08S2.39,5.25,2.4,5.22Zm.05-.15s0,.06,0,.09A.12.12,0,0,0,2.45,5.07ZM2.5,5h0Zm.76-2.64H2.85s-.06,0-.09,0h.5ZM3.09,6h.1A.12.12,0,0,1,3.09,6Zm2.4-3.72h-2s0,0,0,0h2Zm-.06,0a0,0,0,0,0,0,0h0ZM5.5,6h0Zm.1-3.66h0Zm.46,0a1.74,1.74,0,0,0-.32,0A.69.69,0,0,0,6.06,2.34Zm.16,0h0Zm.24,0H6.35v0S6.42,2.37,6.46,2.34Zm.6,0c-.22,0-.43,0-.64,0A2.25,2.25,0,0,0,7.06,2.36Zm1.3,0H8a1.88,1.88,0,0,0-.34,0,2.08,2.08,0,0,0-.43,0h.69l.09,0h.38Zm.41,0H8.55v0h.1A.25.25,0,0,0,8.77,2.41ZM10,2.49H9.8a.18.18,0,0,0-.1,0H8.91a.06.06,0,0,0,.05,0l.29,0v0a0,0,0,0,0,.05,0h.25s0,0,.06,0h.15A.33.33,0,0,0,10,2.49Zm.16,0a.22.22,0,0,0-.14,0s0,0,0,0h.1A0,0,0,0,0,10.14,2.52Z"/><path d="M6.2,7.24l-.14.13a.1.1,0,0,1,0,0v0a0,0,0,0,1,0,0l0,0H6l0,0,0,0-.33.33s0,0,0,0,0,0,0,0l0,0s0,0,0,0a0,0,0,0,1,0,0s0,0,.07-.06a.29.29,0,0,1,.08-.07.1.1,0,0,1,0,.06l-.38.4A1.79,1.79,0,0,1,5,8.43a2.53,2.53,0,0,1-.36.37l-.1.07a.18.18,0,0,1-.2,0l0,0a.19.19,0,0,1-.06-.15.5.5,0,0,1,0-.17,6,6,0,0,1,.22-.68,1.69,1.69,0,0,0,.08-.24.08.08,0,0,0,0,0s0,0,0,0,0,0,0-.06V7.36s0,0,0,0h0l0,0h0v0h0v0A2,2,0,0,1,3.84,8l-.17.07a.19.19,0,0,1-.13,0,.32.32,0,0,1-.18-.18.19.19,0,0,1,0-.08.69.69,0,0,1,0-.17l.09-.16a1.3,1.3,0,0,1,.31-.31A.66.66,0,0,1,4.23,7a.35.35,0,0,1,.14,0s0,0,.09,0,.11-.16.16-.24h0c.12-.12.22-.27.35-.39a.3.3,0,0,1,.08-.08.08.08,0,0,1,.1,0s0,0,.05,0,.08.09.06.17a2.68,2.68,0,0,1-.12.3l0,.06,0,0a.06.06,0,0,1,0,.06v0A.45.45,0,0,1,5.1,7V7l0,0s0,0,0,0a.11.11,0,0,0,0,0A.25.25,0,0,0,5,7.24.23.23,0,0,0,5,7.36v0H5a.37.37,0,0,0,0,.11.16.16,0,0,0,0,.09s0,0,0,0h0a.11.11,0,0,0,0,.08l0,0a.21.21,0,0,0,0,.06l-.11.3a.35.35,0,0,0,0,.11.8.8,0,0,0-.09.3.17.17,0,0,0,0,.12h0s0,0,0,0l.07-.05L5,8.22l.33-.33.38-.36.35-.34,0,0s.06,0,.1,0S6.23,7.21,6.2,7.24Zm-2.06.18.14-.18a.47.47,0,0,1,.06-.09,0,0,0,0,0,0,0h0a.41.41,0,0,0-.18,0,.82.82,0,0,0-.2.12s0,0-.07,0,0,0,.07-.08,0,0,0,0l0,0a.63.63,0,0,0-.21.22.08.08,0,0,0,0,.06.09.09,0,0,0,0-.06l.06,0,.08-.07s0,0,0,.08a.6.6,0,0,0-.16.19.63.63,0,0,0-.07.22s0,0,0,0l.14-.08A2.92,2.92,0,0,0,4.14,7.42Zm-.54.14s0,0,0,0S3.61,7.55,3.6,7.56Zm0-.18h0v0h0v0l0,0a0,0,0,0,1,0,0h0a0,0,0,0,0,0,0Zm0,0h0Zm0,0h0v0A0,0,0,0,1,3.67,7.33Zm0,0h0Zm0,0,0,0a.27.27,0,0,0,.1-.11v0h0l0,0c-.05,0-.08,0-.11.1h0Zm.39.28h0a0,0,0,0,1,0,0h0l0,0h0a0,0,0,0,1,0,0h0l0,0v0a.12.12,0,0,0,.06-.08h0l0,0v0l0,0h0v0h0a.05.05,0,0,0,0,0h0s0,0,0,0h0v0h0v0s0,0,0,0h0l0,0h0v0a.12.12,0,0,0-.05.07l0,0a.1.1,0,0,0,0,.06h0l-.09.11A1.25,1.25,0,0,0,4,7.65l.07,0Zm0,.15s0,0,0,0Zm.45-.48s0,0,0,0h0l0,0c-.09.12-.2.23-.3.34l0,0s0,0,0,0,0,0,0,0l0,0,0,0s0,0,.06-.05a3.17,3.17,0,0,0,.3-.34Zm-.41.29v0h0Zm.14-.14h0Zm0,0v0h0s0,0,0,0Zm0,0h0l0,0Zm.13-.16h0l0,0S4.42,7.17,4.42,7.2Zm0,.23h0Zm.22-.36a.71.71,0,0,0,.1-.14h0l0,0h0l0,0V7h0l0,0s0,0,0,0l0,0h0l0,.05v0h0A.36.36,0,0,0,4.68,7.07ZM4.61,8.15a.09.09,0,0,0,0-.07S4.62,8.12,4.61,8.15Zm.21-1.21-.17.24a.16.16,0,0,0,0,.12s0,.06,0,.09,0,0,0,0,0,0,0,0S4.87,7,4.82,6.94Zm-.1.91h0S4.73,7.85,4.72,7.85Zm.06-.92s0,0,0,0Zm0-.22s0,0,0,0l0,0s0,0,0,0l0,0h0s0,0,0,0a.08.08,0,0,0,.05,0v0a0,0,0,0,0,0,0v0H5v0a.13.13,0,0,0-.07.06.18.18,0,0,0-.05.07v0Zm.09.75a.16.16,0,0,0,0,.07A.16.16,0,0,0,4.89,7.46Zm0-.88h0Zm0,.93h0Zm0-.24a0,0,0,0,0,0,0S5,7.28,5,7.27Zm0-.79s0,0,0,0a0,0,0,0,0,0,0H5s0,0,0,0Zm0,.64,0,0s0,0,0,0H5Zm.19.94A1.66,1.66,0,0,0,5,8.25l0,0a1.8,1.8,0,0,0,.19-.2S5.22,8.08,5.22,8.06Zm0,.17h0A.52.52,0,0,0,5,8.4a.7.7,0,0,0,.14-.16ZM5.08,7a.09.09,0,0,0,0,.07A.09.09,0,0,0,5.08,7Zm0,0V7h0ZM5.21,8.2l0,0A0,0,0,0,0,5.21,8.2Zm0,0h0Zm.29-.29h0v0h0V8h0a1.12,1.12,0,0,0-.18.2s0,0,0,0A1,1,0,0,0,5.42,8h0V8l0,0v0ZM5.31,8h0Zm0,0a.2.2,0,0,0,.11-.11Zm.29-.29-.14.14A.24.24,0,0,0,5.63,7.65Zm.07.07v0h0Zm0,0a1,1,0,0,1,.15-.14A.29.29,0,0,1,5.71,7.7Zm.18-.28a.37.37,0,0,0-.15.13.12.12,0,0,0,.07,0Zm0,.12,0,0Zm.06-.08H6a.11.11,0,0,1-.08.07Zm0,0v0H6Zm0,0H6Zm0,0H6Zm.12-.21A.29.29,0,0,0,6,7.27S6.08,7.25,6.11,7.2Z"/><path d="M9.49.8c0,.11-.05.24-.09.37l0,.13c0,.07,0,.14,0,.2l-.07.2c0,.09-.05.17-.08.25a1.43,1.43,0,0,0-.08.22L9,2.33l-.09.22a2.44,2.44,0,0,0-.1.24L8.76,3c-.09.18-.17.36-.25.54s-.07.13-.11.21l-.09.19-.21.42c-.09.15-.17.3-.25.45l-.18.35a1.43,1.43,0,0,0-.12.21l-.11.17-.11.2-.06.09a.47.47,0,0,1-.07.12l-.12.2-.14.24-.14.23-.07.12-.07.11a.75.75,0,0,0-.07.12A.47.47,0,0,1,6.53,7l-.06.1,0,.07-.06.11-.1.14a.08.08,0,0,1,0,0,0,0,0,0,0,0,0h0l0,0,0,0,0,0a2.27,2.27,0,0,1,.28-.26L6.92,7a.8.8,0,0,1,.2-.07l.15,0A.31.31,0,0,1,7.45,7a.55.55,0,0,1,.12.21.36.36,0,0,1,0,.18,1.3,1.3,0,0,1,0,.21l-.09.19a.82.82,0,0,1-.11.17L7.3,8A.74.74,0,0,1,7,8.2a.25.25,0,0,1-.14,0l0,0a.41.41,0,0,1-.22,0,.45.45,0,0,1-.21-.12L6.26,8v0s0,0,0,0l0,0-.13.15-.18.2-.14.18-.17.19-.06.08s-.08,0-.12,0a.15.15,0,0,1,0-.06s0,0,0,0a.16.16,0,0,1,0-.09.09.09,0,0,1,0-.1l.06-.1,0-.07s0,0,0,0,0,0,0-.05a.59.59,0,0,0,0-.08l0,0L5.59,8l.09-.13h0a.28.28,0,0,0,.08-.11h0l0,0s0,0,0,0h0a.7.7,0,0,1,.06-.09.41.41,0,0,0,0-.09,1,1,0,0,1,.09-.13.05.05,0,0,0,0,0c0-.06.07-.11.1-.16h0l.09-.11v0h0v0h0s0,0,0,0l0-.06A.47.47,0,0,1,6.21,7a.24.24,0,0,1,.06-.09.36.36,0,0,0,.08-.12h0l0,0v0a.27.27,0,0,1,.07-.08.17.17,0,0,0,.06-.1l0,.05h0s0,0,0-.05l0-.08,0,0,0-.07s0,0,0-.06l0-.06,0-.07,0,0a.5.5,0,0,0,.08-.12L6.82,6h0a.56.56,0,0,0,.05-.08s0,0,0,0,0-.05,0-.06,0,0,0,0L7,5.7a.3.3,0,0,0,0-.08l0,0H7v0L7,5.6a.22.22,0,0,0,0-.08l0,0s0,0,0-.08l0,0,0,0s0,0,0,0a.13.13,0,0,1,0,0l0,0,0-.08a.09.09,0,0,0,0,0A.2.2,0,0,1,7.4,5l0,0h0s0,0,0,0a.07.07,0,0,0,0-.06l0,0s0-.08.07-.13a.54.54,0,0,0,.06-.11v0l.07-.12v0l0,0,0,0a.05.05,0,0,1,0,0s0,0,0,0a.05.05,0,0,1,0,0h0s0,0,0,0,0,0,0,0l.06-.1h0L8,4S8,4,8,4v0a.43.43,0,0,0,0-.07H8a.07.07,0,0,0,0-.06l0,0H8l0,0s0,0,0,0,0,0,0,0a.06.06,0,0,0,0,0l.06-.12,0,0v0a.05.05,0,0,0,0-.05.61.61,0,0,1,0-.12l0,0s0,0,0,0a.77.77,0,0,0,.07-.16l0,0a.05.05,0,0,0,0,0V3a1.33,1.33,0,0,1,.06-.12.08.08,0,0,1,0,0l0,0s0,0,0,0a.08.08,0,0,1,0,0,.32.32,0,0,0,0-.09l0-.08a.84.84,0,0,0,.06-.14s0,0,0-.06a0,0,0,0,0,0,0,.32.32,0,0,0,0-.09,0,0,0,0,0,0,0,.1.1,0,0,0,0,0,.15.15,0,0,1,0-.06s0,0,0-.07L8.89,2v0a.11.11,0,0,1,0-.08,0,0,0,0,0,0-.05A1.66,1.66,0,0,1,9,1.63a.07.07,0,0,1,0,0l0-.13a.42.42,0,0,0,0-.1s0,0,0,0a.09.09,0,0,0,0-.05.23.23,0,0,0,0-.11,0,0,0,0,1,0,0,.25.25,0,0,0,0-.12h0a.17.17,0,0,0,0-.07.68.68,0,0,1,0-.15.2.2,0,0,1,0-.08s0,0,0,0,0,0,0,0,0,0,.05,0l.06,0S9.5.75,9.49.8ZM5.92,7.47l-.06.07h0A.28.28,0,0,0,5.92,7.47ZM6,7.27a.86.86,0,0,0-.07.1H6A.18.18,0,0,0,6,7.27Zm.19.33,0,0,0,0,0,0s0,0,0,0l0,0a.27.27,0,0,0,.08-.07l0,0Zm0,.22h0Zm.06-.89,0,.05s0,0,0,0S6.24,7,6.25,6.93Zm.09.89a.21.21,0,0,0,0,.14.27.27,0,0,0,.12.09.41.41,0,0,0,.19,0A.23.23,0,0,0,6.8,8,.94.94,0,0,0,7,7.91l.09-.08.06-.07v0l0,0,0,0a.09.09,0,0,0,0-.05.19.19,0,0,0,0-.1s0,0,0,0h0l0-.1a.78.78,0,0,0,0-.21.11.11,0,0,1,0-.06s0,0,0,0-.06,0-.09,0h0l-.16.06a2.73,2.73,0,0,0-.3.21l-.17.16-.2.19,0,0A.08.08,0,0,0,6.34,7.82Zm0-.19h0Zm0-.17,0,0,.15-.15.05,0,0,0-.12.11-.07.07S6.37,7.45,6.37,7.46Zm.22,0h0s0,0,0,0a.1.1,0,0,1,0,0,.1.1,0,0,0,0,0s0,0,0,0h0a.07.07,0,0,0,0,0s0,0,.06-.07l0,0,0,0s0,0,0,0,0,0,0-.06S6.61,7.38,6.59,7.42ZM6.5,6.63a.13.13,0,0,0,0,.07A.12.12,0,0,0,6.5,6.63Zm0,.87h0Zm.06-1s0,0,0,0Zm.14-.14v0l-.09.14a0,0,0,0,0,0,0A.93.93,0,0,0,6.67,6.34Zm-.07,0s0,0,0-.06Zm.11-.19,0,.06v0A.3.3,0,0,0,6.71,6.17ZM9.18,1.24s0,0,0,0-.07.21-.11.31a2.7,2.7,0,0,1-.14.4l-.11.27a3.49,3.49,0,0,1-.15.34,5.27,5.27,0,0,1-.22.49l-.15.33c-.06.12-.13.24-.19.37A1.83,1.83,0,0,1,8,4.06c-.1.21-.21.4-.31.58L7.46,5a3.79,3.79,0,0,1-.2.34l-.14.25,0,.06a.9.9,0,0,1,0,.09,1.4,1.4,0,0,1-.1.16L6.85,6a2.53,2.53,0,0,1-.12.23v0a.05.05,0,0,1,0,0l.06-.1c0-.06.07-.11.1-.16l0-.09a.41.41,0,0,0,0-.09l.09-.14c0-.05.05-.1.08-.14l.11-.18a1.4,1.4,0,0,1,.09-.17L7.48,5l.1-.17.2-.39c.14-.25.27-.51.4-.76a3.39,3.39,0,0,0,.18-.39c.1-.2.2-.4.29-.6l.11-.27a3.65,3.65,0,0,0,.14-.35C9,2,9,1.84,9,1.73s0-.09.05-.13l.09-.3ZM6.76,6.08s0,0,0,0ZM7.05,6A.09.09,0,0,0,7,6S7.05,6,7.05,6Zm.2,1.77s0,0,0,0l0,0,0,0s0,0,0,0l0,0A.08.08,0,0,0,7,8,.74.74,0,0,0,7.25,7.74ZM7.11,5.83h0Zm0,0s0,0,0,.05S7.14,5.84,7.14,5.81Zm0-.39s0,0,0,0S7.16,5.4,7.16,5.42Zm.08,2.51h0l0,0V8h0l0,0Zm0-2.24s0,0,0,.06S7.21,5.71,7.22,5.69Zm0,0h0v0Zm0-.42a0,0,0,0,0,0,0h0Zm0,.29,0,0s0,0,0,0A.16.16,0,0,0,7.29,5.57Zm0,2.29s0,0,0,0Zm0-2.4h0Zm0,0s0,0,0,0,0,0,0,0Zm.07-.12,0,0,0,0s0,0,0,0A.09.09,0,0,0,7.42,5.34Zm0,0Zm.15-.21,0,0a.3.3,0,0,1,0,.08v0a0,0,0,0,1,0,0l0,0a.56.56,0,0,1,0-.08S7.55,5.14,7.54,5.14Zm0-.29ZM7.61,5a.05.05,0,0,0,0,.05S7.6,5.05,7.61,5Zm0-.08s0,0,0,0Zm.12-.19h0s0,0,0,0a.16.16,0,0,1,0,.07,0,0,0,0,0,0,0,.1.1,0,0,1,0,.05V5h0a1.05,1.05,0,0,0,.12-.21Zm-.07.08a.06.06,0,0,0,0,0S7.68,4.85,7.68,4.83Zm.05-.09s0,0,0,0S7.73,4.76,7.73,4.74Zm0-.08,0,0S7.78,4.67,7.77,4.66Zm0,0s0,0,0,.06h0A.08.08,0,0,0,7.81,4.64Zm.05-.08s0,0,0,.05A.09.09,0,0,0,7.86,4.56Zm0-.08s0,0,0,0S7.87,4.5,7.87,4.48Zm.18-.29s0,0,0,0l0,0L8,4.37l0,0a.09.09,0,0,0,0,.06,0,0,0,0,1,0,0v0s0,0,0-.06l0,0A1,1,0,0,0,8,4.28l0-.08Zm-.14.22v0Zm0-.07v0l0,0Zm0-.08s0,0,0,0Zm0-.07H8Zm0-.07h0a0,0,0,0,1,0,0h0ZM8.16,4l0,0s0,0,0,.06a.59.59,0,0,1,0,.08h0A.51.51,0,0,0,8.16,4Zm-.06.09h0Zm0-.08h0Zm0-.1a.05.05,0,0,0,0,0S8.18,3.91,8.18,3.88Zm1-2.23,0,0a0,0,0,0,1,0,0,1.67,1.67,0,0,1-.08.2v0A.77.77,0,0,0,9,2.08a.36.36,0,0,0,0,.07.05.05,0,0,0,0,0l0,.07,0,.06v.06s0,.05,0,.08l0,0s0,0,0,0l0,.05s0,0,0,0v0l0,0h0a.79.79,0,0,1,0,.09h0a.3.3,0,0,0,0,.1h0v0h0a0,0,0,0,1,0,0,.36.36,0,0,1,0,.09,0,0,0,0,1,0,0,.08.08,0,0,0,0,0l-.07.14s0,0,0,0,0,.07,0,.1l0,.09,0,.1,0,.05a.53.53,0,0,0-.08.15l0,0s0,.06-.05.09,0,.07,0,.09l0,.09v0h0l.07-.14.23-.46.2-.45a2.06,2.06,0,0,0,.12-.26L9,2.3c.06-.14.11-.29.16-.43l.07-.2Zm-1,2.19h0Zm.06-.13h0Zm.05-.09,0-.05a.08.08,0,0,0,0-.06h0a1.07,1.07,0,0,0-.07.15S8.31,3.63,8.32,3.62Zm.07-.17v0S8.4,3.45,8.39,3.45Zm0-.05h0v0Zm0-.07s0,0,0,0Zm0-.05h0Zm0-.06Zm.05-.12h0Zm0-.06v0S8.59,3.05,8.58,3Zm0,0a0,0,0,0,1,0,0h0V3h0Zm.05-.12a.09.09,0,0,0,0,.06S8.65,2.93,8.66,2.89Z"/><path d="M10.07,7.14s0,0,0,0h0c-.06-.06-.1-.07-.16,0l-.12,0a2.72,2.72,0,0,0-.35.16l-.16.1-.08,0s0,0-.05,0S9,7.49,9,7.51v0H9l-.07,0h0v0h0a.1.1,0,0,0-.05,0s0,0,0,0,0,0-.05,0l0,0-.05,0h0l0,0h0l0,0a.09.09,0,0,0-.06.06l0,0a.08.08,0,0,0-.07.07h0v0l0,0V8a.1.1,0,0,0,0,0h0v0h0a.33.33,0,0,0-.13.13h0a.21.21,0,0,1-.06.08v0a.16.16,0,0,0-.06.08A.62.62,0,0,0,8,8.54H8l0,0h0s0,.05,0,.06h-.1s-.1,0-.12-.1,0,0,0,0a.1.1,0,0,1,0-.12c.07-.2.12-.4.18-.61s.13-.35.18-.53A1.7,1.7,0,0,1,8.05,7l0,0s0,0,0,0a.18.18,0,0,1,.09.1.33.33,0,0,1,0,.17,4,4,0,0,0-.09.45.43.43,0,0,1,0,0s0,0,0,0,0,0,0,0l.08-.06a3.57,3.57,0,0,1,.38-.3c.11-.08.21-.13.32-.2L9.37,7a1.17,1.17,0,0,1,.32-.09A.31.31,0,0,1,10,7s.08.09.12.15S10.09,7.12,10.07,7.14ZM8,8.58H8ZM9.67,7.06l-.24.1a5.39,5.39,0,0,0-.79.52,7.35,7.35,0,0,0-.66.7.07.07,0,0,0,0,.06H8a1.09,1.09,0,0,0,.1-.11,4,4,0,0,1,.67-.69,3,3,0,0,1,.89-.54S9.66,7.09,9.67,7.06ZM8,8.55H8a0,0,0,0,1,0,0Zm0,0H8Zm0,0v0Zm0,0H8Zm0,0H8s0,0,0,0H8Zm0,0H8v0Zm0,0h0Zm0,0h0l0,0,0,0Zm0,0v0h0Zm.07-.53a0,0,0,0,0,.05,0S8.18,7.87,8.16,7.88Zm0,.41h0Zm.08-.09h0l0,0Zm0,0h0l0,0h0l0,0a0,0,0,0,0,0,0h0Zm0-.4s0,0,0,0Zm.06.34s0,0,0,0Zm0-.4h0a.1.1,0,0,0,0,0A.06.06,0,0,0,8.34,7.71Zm0,.36h0s0,0,0,0Zm0,0h0Zm0,0h0V8Zm0-.35h0v0s0,0,0,0h0l0,0h0s0,0,0,0h0v0l0,0h0s0,0,0,0h0v0s0,0,0,0h0l0,0h.06a.07.07,0,0,0,.05,0h0v0h0v0l0,0,.06,0h0a.24.24,0,0,0,.08-.06v0s0,0,0,0l0,0,0,0H9l0,0v0s0,0,0,0H9l0,0v0a.1.1,0,0,0,.08-.06h0l0,0,0,0,0,0h0l0,0h0v0s.06,0,.08,0h0s0,0,0,0,0,0,0,0a.12.12,0,0,0-.09,0,0,0,0,0,0,0,0,2.64,2.64,0,0,0-.37.2.4.4,0,0,0-.15.1.26.26,0,0,0-.09,0,.24.24,0,0,0-.08.06s0,0,0,0a.05.05,0,0,0-.05,0s0,0,0,0a.12.12,0,0,0-.07,0Zm0,.34h0Zm0,0,0,0,0,0Zm0,0h0V8Zm0,0h0l0,0S8.46,8,8.45,8Zm.07,0,0,0v0Zm0,0h0Zm0,0h0l0,0Zm0,0,0,0Zm0,0v0S8.63,7.82,8.62,7.83Zm0,0h0l0,0Zm0,0h0l0,0h0Zm0,0h0Zm0-.31v0h0Zm0,.28h0Zm0,0h0l0,0Zm0,0,0,0h0v0Zm0-.32v0h0Zm0,.29h0Zm.07-.32a0,0,0,0,1,0,0h0Zm0,0v0h0Zm0,.24v0Zm0,0h0ZM9,7.29v0H9ZM9.47,7s0,0,0,0Z"/><path d="M12,7.06a.13.13,0,0,1,0,.06l0,0c-.11.1-.24.19-.37.29l-.51.4-.87.66-.27.18-.13.05a.16.16,0,0,1-.15,0l0,0a.2.2,0,0,1-.09-.2,1.07,1.07,0,0,1,.09-.34A.35.35,0,0,0,9.68,8a4.09,4.09,0,0,1,.25-.46L10.2,7c.11-.15.21-.3.33-.45s0,0,.06,0,.1.08.06.17a1.11,1.11,0,0,1-.13.27l-.09.17,0,0h0s0,0,0,0a.27.27,0,0,0-.07.08.81.81,0,0,1-.1.18s0,0,0,.06,0,0,0,0h0a.23.23,0,0,0-.08.14.17.17,0,0,0-.06.11.3.3,0,0,0-.06.11.56.56,0,0,0-.07.16l0,0a1.78,1.78,0,0,0-.12.29.28.28,0,0,0,0,.09s0,0,0,0l0,0L10,8.41l.19-.14.48-.35L11,7.67c.17-.13.35-.25.52-.39l.31-.22A.09.09,0,0,1,12,7ZM9.85,8.13h0Zm0-.08a.06.06,0,0,0,0-.05s0,0,0,0h0s0,0,0,0,0,0,0,0ZM10,7.89h0Zm.09-.15v0Zm.84-1.57s-.05-.07,0-.11l0-.1c.08-.12.18-.24.27-.35a.24.24,0,0,1,.09-.08.06.06,0,0,1,.08,0l.07,0-.06.08a.12.12,0,0,0-.07.07s0,0,0,0a.07.07,0,0,1,0,0l.06-.07.08,0,0,0a.69.69,0,0,0-.17.17,1.76,1.76,0,0,0-.14.23.58.58,0,0,1-.1.12A.08.08,0,0,1,10.9,6.17Zm.36-.56h0s0,0,0,0h0Z"/><path d="M13.86,7.42s0,0,0,0a.33.33,0,0,1-.1.06l-.51.32-.57.36-.33.22a3.7,3.7,0,0,1-.55.31l-.23.08H11.4a.11.11,0,0,1-.08,0,.43.43,0,0,1-.22-.2.39.39,0,0,1,0-.26,2.46,2.46,0,0,1,.14-.55c.06-.13.14-.24.19-.36A2.87,2.87,0,0,1,11.7,7a1.54,1.54,0,0,1,.19-.17l.1,0a.26.26,0,0,1,.24,0,.81.81,0,0,1,.14.12.35.35,0,0,1,.08.22,1,1,0,0,1,0,.3l0,.06a.07.07,0,0,1-.08,0s0,0,0-.06a.13.13,0,0,1,0-.06c0-.08,0-.17,0-.26a.66.66,0,0,0,0-.14l0,0a.09.09,0,0,0-.06,0L12,7.07l0,0a1.74,1.74,0,0,0-.28.32s0,0,0,0l0,0,0,0a.59.59,0,0,0-.12.22l0,.07h0l0,0a.06.06,0,0,1,0,0l0,.06h0a.08.08,0,0,1,0,.05l0,0a.08.08,0,0,0,0,.08s0,0,0,.05a.08.08,0,0,1,0,.07.78.78,0,0,0,0,.26.15.15,0,0,0,0,.09h.06l.16-.08A3.62,3.62,0,0,0,12,8.25l.3-.18.35-.21.06,0,.63-.37.25-.13.05,0a.1.1,0,0,1,.12,0l.07,0s0,0,0,0Zm-2.35.41v0h0Zm0-.24,0,0S11.56,7.58,11.55,7.59Zm0,.11h0Zm.05-.23h0Zm0-.08,0,.05s0,0,0-.05A1.63,1.63,0,0,1,12,7l0,0h0a0,0,0,0,0,0,0h0L12,7a.22.22,0,0,0-.09.07A1.94,1.94,0,0,0,11.67,7.39Zm0,.12h0l0,0Zm0,0v0h0Zm0-.41.09,0s0,0,0,0h0l0,0s0,0,0,0l0,0c-.06,0-.07,0-.13.1l0,0S11.75,7.08,11.72,7.1Zm1,1a.1.1,0,0,0-.07,0S12.72,8.1,12.74,8.06ZM12.92,8l-.06,0A.07.07,0,0,0,12.92,8Zm.1-.06h0s0,0,0,0h0Zm.13-.09h0Zm.23-.14,0,0S13.38,7.68,13.38,7.66Z"/><path d="M15.63,7.06a.14.14,0,0,1,0,.06v0l-.38.29-.51.4-.86.66-.28.18-.13.05a.14.14,0,0,1-.14,0l0,0a.18.18,0,0,1-.08-.2,1.05,1.05,0,0,1,.08-.34A.61.61,0,0,0,13.33,8a2.88,2.88,0,0,1,.24-.46c.09-.16.18-.32.28-.48s.2-.3.32-.45,0,0,.06,0,.1.08.06.17a1.59,1.59,0,0,1-.12.27l-.1.17,0,0h0s0,0,0,0A.27.27,0,0,0,14,7.3a.81.81,0,0,1-.1.18.09.09,0,0,1,0,.06s0,0,0,0h0a.23.23,0,0,0-.08.14.17.17,0,0,0-.06.11.18.18,0,0,0,0,.11.4.4,0,0,0-.08.16v0a1.23,1.23,0,0,0-.13.29.28.28,0,0,0,0,.09s0,0,0,0l0,0,.14-.09.19-.14.48-.35c.12-.09.24-.16.35-.25s.35-.25.52-.39l.31-.22a.09.09,0,0,1,.11,0ZM13.5,8.13h0Zm0-.08a.13.13,0,0,0,0-.05s0,0,0,0h0a.06.06,0,0,0,0,0s0,0,0,0Zm.08-.16h0Zm.09-.15v0Zm.85-1.57s-.06-.07,0-.11a.3.3,0,0,1,0-.1,2.88,2.88,0,0,1,.26-.35l.09-.08a.08.08,0,0,1,.09,0l.06,0L15,5.66a.09.09,0,0,0-.06.07s0,0,0,0a.07.07,0,0,1,0,0L15,5.66l.09,0,0,0a.58.58,0,0,0-.18.17,1.76,1.76,0,0,0-.14.23l-.09.12S14.57,6.2,14.55,6.17Zm.35-.56h0s0,0,0,0h0Z"/><path d="M17.52,7.3a.1.1,0,0,1-.05.06h-.08a2.51,2.51,0,0,1-.59.18,1.87,1.87,0,0,1-.47,0,.51.51,0,0,1-.28-.07l0,0s0,0,0,0l0,.07c0,.1-.08.2-.13.3a.94.94,0,0,1-.12.18s0,0,0,0-.08.09-.11.13l0,0,0,0h0a.44.44,0,0,0-.13.14v0a.51.51,0,0,1-.3.1.23.23,0,0,1-.17-.1A.39.39,0,0,1,14.83,8a1.8,1.8,0,0,1,.08-.21,3,3,0,0,1,.31-.55L15.43,7l.05,0a.06.06,0,0,1,.07,0s0,0,0,.08a.2.2,0,0,1,0,.11l-.19.29-.13.21a3.94,3.94,0,0,0-.18.48.51.51,0,0,0,0,.13s0,0,0,0l.06,0a2,2,0,0,0,.41-.47,2.26,2.26,0,0,0,.21-.48c0-.07.05-.14.07-.2s.07-.06.1,0a.45.45,0,0,1,.12.2s0,.06.08.06h.33a2.81,2.81,0,0,0,.83-.17h.06s.09,0,.09,0h0s.06,0,.05.06,0,0-.06.06Zm-2.27,1,0,0h-.06l0,.05h.05Zm.18,0-.15.13h0A.22.22,0,0,0,15.43,8.27Z"/><path d="M31.33,10.36v0a.27.27,0,0,1-.07.08h0a.15.15,0,0,1-.09-.06s-.05-.05-.06-.09,0,0,0,0l-.23,0-.33,0h-1.4l-.75,0-.49,0-.3,0h-.12l-.49,0-.62.05-.58,0-.65.08-.49.06a2.2,2.2,0,0,0-.37.06l-.36,0c-.05,0-.11,0-.17,0a.86.86,0,0,0-.17,0l-.42.07-.4.07-.42.07-.36.07-.53.1-.41.08-.38.07c-.22,0-.43.07-.64.08a3.23,3.23,0,0,1-.44,0l-.32,0a1.27,1.27,0,0,1-.6-.27,1.41,1.41,0,0,1-.17-.18,1,1,0,0,1-.17-.52,1.63,1.63,0,0,1,0-.44c0-.13,0-.26.08-.4l.18-.46c0-.08.08-.17.12-.25s.2-.34.3-.51a4.73,4.73,0,0,1,.28-.39c.06-.07.13-.14.18-.21l0,0,.15-.16a.62.62,0,0,1,.14-.14l0,0a.74.74,0,0,1,.13-.12l0,0A1.29,1.29,0,0,1,20.09,7a4.08,4.08,0,0,1,.33-.25,0,0,0,0,0,0,0c.14-.11.3-.2.45-.32l.1,0,.34-.19a1.24,1.24,0,0,1,.2-.1L21.85,6l.12,0,.36-.12.31-.08.15,0h0l0,0s0,0,0,0a1.78,1.78,0,0,1-.3-.17l-.16-.09a4,4,0,0,1-.63-.44,2.59,2.59,0,0,1-.31-.35,1.35,1.35,0,0,1-.16-.29,1.42,1.42,0,0,1-.06-.46,1.47,1.47,0,0,1,.2-.61A1.67,1.67,0,0,1,21.56,3a3,3,0,0,1,.28-.33L22,2.48a2.34,2.34,0,0,1,.41-.29A2.08,2.08,0,0,1,22.89,2a1.75,1.75,0,0,1,.51,0,1,1,0,0,1,.28.07l.11,0a1,1,0,0,1,.36.26,1.37,1.37,0,0,1,.32.51,1.2,1.2,0,0,1,.08.42,1.48,1.48,0,0,0,0,.21.75.75,0,0,1,0,.2.94.94,0,0,1,0,.16l0,0h0l0,0a.28.28,0,0,1,0-.18.11.11,0,0,0,0-.11s0,0,0-.06v-.2c0-.11,0-.21,0-.32s-.05-.16-.07-.24A.71.71,0,0,0,24,2.38a1,1,0,0,0-.38-.17,1.73,1.73,0,0,0-.32,0,1.86,1.86,0,0,0-.52.11,2.46,2.46,0,0,0-.39.22s0,0-.07,0h0l-.05,0h0s0,0,0,.06a0,0,0,0,0,0,0s0,0,0,0h0l-.05,0a2.57,2.57,0,0,0-.5.64,2,2,0,0,0-.15.37v0s0,0,0-.07,0,0,0,0l0,.18a.39.39,0,0,0,0,.15c0,.06,0,.11,0,.17l0,.14a.78.78,0,0,0,.09.21.92.92,0,0,0,.19.25A2,2,0,0,0,22,5a6.59,6.59,0,0,0,.57.34l.29.16.21.11a.67.67,0,0,1,.2.12l.06,0a.31.31,0,0,1,0,.1.31.31,0,0,1-.19,0h-.06L22.74,6l-.2,0a.88.88,0,0,0-.23.07,1.31,1.31,0,0,0-.21.08l-.08,0-.13.06a.43.43,0,0,0-.12,0l-.25.11-.23.12a.2.2,0,0,0-.07.06c-.08.06-.16.09-.24.14a.76.76,0,0,0-.16.11s0,0-.06,0h0l-.29.23a.7.7,0,0,0-.16.14h0c-.06,0-.09.09-.14.12a1.59,1.59,0,0,1-.13.13l-.15.15c-.1.1-.2.21-.29.32a3.79,3.79,0,0,0-.34.45,2.26,2.26,0,0,0-.16.26,2.59,2.59,0,0,0-.17.33h0a2.26,2.26,0,0,0-.17.35h0V9.37l.09-.21h0a1.11,1.11,0,0,1-.07.16,2,2,0,0,0-.12.34,2.27,2.27,0,0,0-.09.52.48.48,0,0,0,0,.17s0,0,0,0a.17.17,0,0,0,0-.07c0-.06,0-.11,0-.15s0,0,0,0v.1a1.9,1.9,0,0,0,0,.41s0,.06,0,.09l.07.14a.38.38,0,0,0,.11.14.72.72,0,0,0,.48.2,3.76,3.76,0,0,0,.58,0l.47-.07.53-.09c.18,0,.36-.08.54-.1l.24-.05.43-.08c.13,0,.26,0,.39-.07l.06,0L23,10.6l.25,0,.52-.08.47-.07.35,0,.33,0,.2,0,.51-.05h.27l.35,0,.23,0h.24l.45,0,.47,0,.45,0c.22,0,.43,0,.66,0h1.34c.21,0,.44,0,.66,0a2.3,2.3,0,0,1,.28.06.47.47,0,0,1,.27.16S31.32,10.35,31.33,10.36Zm-13,.2h0a1.71,1.71,0,0,1,0-.45,2.43,2.43,0,0,1,.15-.7c0-.07.05-.14.07-.21h0l0,.09a3.66,3.66,0,0,0-.13.44,2,2,0,0,0,0,.64.47.47,0,0,0,0,.17l0,0s0,0,0,0h0A.06.06,0,0,1,18.34,10.56Zm.1-1s0,0,0,0l0,0,0-.1a.15.15,0,0,0,0-.06s0,0,0-.05a.06.06,0,0,0,0,0s0,0,0,0l0,0v0a.06.06,0,0,0,0,.05s0,0,0,.06a0,0,0,0,0,0,0s0,0,0,.06-.05,0,0,.08l0,0a4,4,0,0,0-.09.48s0,.06,0,.09,0,0,0,0a3.12,3.12,0,0,1,.06-.41A.47.47,0,0,0,18.44,9.55Zm0,.63h0v.05h0Zm0-.12.05-.25c0-.06,0-.13,0-.19a.36.36,0,0,0,0-.09s0,0,0-.06,0,0,0,.06h0a.13.13,0,0,0,0,.08s0,0,0,0l-.06.26a1.23,1.23,0,0,0,0,.19A.06.06,0,0,0,18.46,10.06Zm.08.42s0,0,0-.06S18.51,10.46,18.54,10.48Zm0-1.29h0a.15.15,0,0,0,0-.08A.09.09,0,0,0,18.52,9.19Zm0-.09s0,0,0,0A.06.06,0,0,0,18.55,9.1Zm.08.59v.05l-.05.25v0a1,1,0,0,1,.05-.3S18.63,9.7,18.63,9.69Zm-.05-.5h0S18.58,9.18,18.58,9.19Zm0-.2h0V9s0,0,0,0S18.6,9,18.59,9Zm0,.09h0Zm0-.06V9Zm0,.67h0Zm.06-.23,0,0a.29.29,0,0,0,0,.1,1.47,1.47,0,0,1-.06.14v0Zm0-.5s0,0,0,0Zm0-.1h0Zm0,.08h0v0Zm0,.31h0Zm0-.47a.07.07,0,0,0,0-.06A.21.21,0,0,1,18.7,8.78Zm0,.1h0s0,0,0,0h0Zm0,.55h0Zm0-.72.06,0a.08.08,0,0,0,0,.07l0-.07a.05.05,0,0,0,0-.08s.05,0,.06-.06l-.06.06s0,.06-.06,0S18.72,8.7,18.72,8.71Zm.12.39h0Zm.06-.16,0,.08s0,0,0,0A.18.18,0,0,0,18.9,8.94Zm0-.36s0,0,.05-.06v0h0v0S18.87,8.55,18.86,8.58Zm.08-.23h0Zm0,.49s0-.05.05-.08S19,8.8,19,8.84Zm0-.46h0s0,0,0,0h0ZM19,8.32a.49.49,0,0,0,.07-.11s.06-.06.06-.12l-.05.08-.05.07S19,8.27,19,8.32Zm0-.12h0Zm.05.38h0Zm.1-.53h0s0,0,0,0S19.21,8,19.21,8.05ZM19.27,8s0,0,0-.06S19.28,8,19.27,8Zm0,.29h0Zm0-.39s0,0,0,0h0Zm0,0s0,0,0,0l.05,0S19.37,7.82,19.37,7.84Zm.05,0,.07-.06.23-.25s.06-.07.11-.09a.32.32,0,0,1,.1-.1.07.07,0,0,0,0-.06c.05,0,.09-.06.13-.09v0s.05,0,.08,0,0,0,0-.07-.05,0,0,.07h0l0,0c-.05,0-.08.09-.13.12l-.12.1a0,0,0,0,0,0,.06s-.06,0-.07,0a.92.92,0,0,1-.14.14l-.18.2S19.42,7.78,19.42,7.8ZM20.29,7a0,0,0,0,1,0,0h0s0,0,0,0h0Zm.12-.07s0,0,0,0S20.4,6.87,20.41,6.89Zm.09-.08h0S20.5,6.78,20.5,6.81Zm0,0a.1.1,0,0,0,.05,0S20.54,6.76,20.54,6.79Zm.11-.07.05,0,.12-.08s0,0,0,0,0,0,0,0,0,0,0,0a.26.26,0,0,0-.14.11S20.66,6.69,20.65,6.72Zm.29-.18,0,0a0,0,0,0,0,0,0S20.93,6.5,20.94,6.54ZM21,6.46l.09,0s0,0,0,0l-.08,0A.05.05,0,0,0,21,6.46Zm.17-.1h0v0Zm0-2.61a1.46,1.46,0,0,1,.16-.44s0,0,0-.05h0l.07-.14h0a2.07,2.07,0,0,0-.15.25,1.83,1.83,0,0,0-.08.25l0,.14,0,0S21.24,3.77,21.24,3.75Zm0,2.59v0s0,0,0,0h0Zm0-2.74h0Zm0-.1a.43.43,0,0,1,0,0A0,0,0,0,0,21.35,3.5Zm0,2.78a0,0,0,0,0,0,0h.05a.16.16,0,0,0,.09,0s-.07,0-.09,0h-.05Zm0-2.84a0,0,0,0,0,0,0S21.36,3.43,21.37,3.44Zm0-.06s0,0,0,0S21.4,3.39,21.39,3.38Zm0-.07s0,0,0,0l0-.06s0,0,0,0l0,0v.05s0,0,0,0,0,0,0,0,0,0,0,0S21.43,3.33,21.43,3.31Zm0,.34s0-.06,0-.09,0,0,0-.05l0,0s0,0,0,0a.08.08,0,0,0,0,0,.11.11,0,0,0,0,0l0,.05Zm0,.18h0Zm.18-.58s0,0,0,0,0,0,0,.06,0,0-.05,0,0,0,0,0l0,0s0,0,0,0a.06.06,0,0,0,0,0s0,0,0,0h0V3.27h0Zm-.12-.14s.05,0,.06-.08S21.5,3.06,21.49,3.11Zm0,.57h0Zm.05-.56,0,0S21.54,3.14,21.54,3.12Zm0,0s0,0,0,0S21.55,3.09,21.54,3.11Zm0-.1s0,0,0,0S21.55,3,21.56,3Zm0,3.15h0s0,0,0,0h.06s0,0,0,0l-.07,0ZM21.6,3l0,0S21.6,3.07,21.6,3Zm0-.14L21.59,3a.09.09,0,0,0,.06-.07.08.08,0,0,0,.05-.05S21.66,2.87,21.65,2.89Zm0,.23h0Zm0-.23h0Zm0,.17h0s0,0,0,0S21.72,3.06,21.71,3.06Zm.05-.25h0l0,0h0Zm0-.08.06-.06A.11.11,0,0,0,21.79,2.73Zm0,3.34h0S21.81,6.06,21.81,6.07Zm.12-3.45h0l0,0s0,0,0,0Zm.15-.13h0Zm0-.05h0ZM22.1,6h0Zm.16-3.61h0a0,0,0,0,0,0,0h0Zm.1-.05h0l0,0s0,0,0,0h0Zm.05,3.56h0A0,0,0,0,0,22.41,5.86Zm.05-3.61s0,0,.05,0h0S22.46,2.22,22.46,2.25Zm.07,0,0,0,.08,0s0,0,0,0h.07s0,0,.05,0l0,0h0v0s0,0-.05,0a.09.09,0,0,0-.07,0l-.12,0S22.53,2.2,22.53,2.22Zm.22,8.47Zm.12-8.64h0Z"/><path d="M25.12,7.72A8.75,8.75,0,0,0,24,8.41l0,0a.1.1,0,0,0,0,.12c0,.08,0,.16,0,.23a4,4,0,0,1,.08.58,1.48,1.48,0,0,1,0,.3,1.57,1.57,0,0,1,0,.23A.13.13,0,0,0,24,10a.23.23,0,0,1,0,.11s0,0,0,0v0s0,.06,0,.07l0,0-.09.22a.19.19,0,0,0,0,.1h0l0,0h0s0,0,0,0h0s0,0,0,0a3.82,3.82,0,0,1-1.07,1.05,1.42,1.42,0,0,1-.47.21.46.46,0,0,1-.26,0l-.16-.08a.3.3,0,0,1-.16-.25,1,1,0,0,1,0-.39,2.93,2.93,0,0,1,.25-.64,5.21,5.21,0,0,1,.52-.83,4.82,4.82,0,0,1,.36-.43,4.42,4.42,0,0,1,.53-.53,3.08,3.08,0,0,1,.27-.24s.05-.07,0-.12l-.05-.22-.15-.49a.93.93,0,0,1,0-.33.73.73,0,0,1,.15-.39,1.64,1.64,0,0,1,.29-.3,1.26,1.26,0,0,1,.53-.32.31.31,0,0,1,.13,0,.14.14,0,0,1,.1,0s0,0,0,.06l-.17.08-.25.16L24,6.71a0,0,0,0,0,0,0s0,0,0,0l0,0a.31.31,0,0,0,.13-.1s.05,0,.08,0l0,0h0a.24.24,0,0,0-.09.06l-.12.09,0,0h0l0,0h0a.21.21,0,0,0-.06.08L24,6.73H24s0,0-.05.06a.24.24,0,0,0-.06.09l0,0a.28.28,0,0,0-.06.09V7s0,0,0,0h0c0,.08-.08.17-.11.25a.63.63,0,0,0,0,.27,2,2,0,0,0,.09.35,2.25,2.25,0,0,0,.08.24s0,0,0,.06,0,.05.09,0l.14-.1c.16-.11.34-.2.52-.3.5-.26.67-.33.82-.41S25.76,7.42,25.12,7.72ZM23.48,10.3a2,2,0,0,0,.24-.87,3.39,3.39,0,0,0,0-.64.09.09,0,0,0,0,0,0,0,0,0,0-.05,0l-.17.14a4.26,4.26,0,0,0-.35.38l0,0L23,9.34h0l0,0h0l0,.05a1.73,1.73,0,0,0-.17.21.22.22,0,0,0-.07.09h0a.59.59,0,0,0-.13.19l0,0a.21.21,0,0,0-.06.1h0l0,.05h0a1.76,1.76,0,0,0-.14.23h0l0,0h0s0,0,0,0a.8.8,0,0,0-.13.24.61.61,0,0,0-.05.12h0a.2.2,0,0,0-.06.12s0,.05,0,.08a.79.79,0,0,0-.09.35v.09a.54.54,0,0,0,0,.22.16.16,0,0,0,0,.07.06.06,0,0,0,.08,0l.25-.13a3.08,3.08,0,0,0,.41-.3,3.66,3.66,0,0,0,.44-.44A3.46,3.46,0,0,0,23.48,10.3ZM22,10.84h0Zm.06-.13h0A0,0,0,0,0,22,10.71Zm.05-.11a.19.19,0,0,0,.07-.12A.29.29,0,0,0,22.07,10.6Zm.07-.12a.09.09,0,0,0,0-.06A.07.07,0,0,0,22.14,10.48Zm0-.06a.24.24,0,0,0,.06-.09,4.78,4.78,0,0,1,.29-.44,7.48,7.48,0,0,1,.68-.81l.39-.38s0,0,0,0v0h0l0,0a6.69,6.69,0,0,0-.54.52,6,6,0,0,0-.83,1.11A.27.27,0,0,0,22.17,10.42Zm.31-.71h0a0,0,0,0,0,0,0Zm0,0h.05v0l0,0Zm0,0s0,0,0,0l0,0Zm0-.07h0v0S22.56,9.6,22.55,9.61Zm0,0h0a0,0,0,0,0,0,0h0v0l0,0h0l0,0a.1.1,0,0,1,0,0h0v0s0,0,0,.05a.13.13,0,0,0-.05.06S22.6,9.56,22.59,9.56Zm0,0s0,0,0,0l0,0Zm.09-.14h0l0,0v0s0,0,0,0h0v0A.11.11,0,0,0,22.7,9.43Zm.07-.07h0v0Zm0,0h0v0s0,0,0,0l0,0,0,0,0,0h0v0h0v0l0,0,0,0h0l0,0v0l0,0h0l0,0v0l0,0h0l0,0,0,0,0,0,0,0h0a0,0,0,0,0,0,0h0a0,0,0,0,0,0,0h0a0,0,0,0,0,0,0l0,0s0,0,0,0a1.06,1.06,0,0,0,.15-.15l0,0h0v0l0,0h0l0,0,0,0h0v0h0v0s0,0,0,0h0s0,0,0,0a0,0,0,0,0,0,0h0l0,0h0s0,0,0,0l0,0,0,0v0a0,0,0,0,0,0,0h0l0,0,0,0,0,0,0,0,0,0,0,0a.72.72,0,0,0-.2.19h0l0,0a.25.25,0,0,0-.11.12l0,0a.14.14,0,0,0-.08.09h0v0h0s0,0,0,0l0,0a.1.1,0,0,0,0,0l0,0A.1.1,0,0,0,22.78,9.34Zm.06,0v0h0Zm0,0v0h0v0ZM23,9.1v0h0v0Zm0,0v0h0Zm0,0v0h0ZM23.13,9h0V9S23.14,9,23.13,9Zm.06,0V9h0v0Zm0,0v0h0Zm.24,1.7a.05.05,0,0,1,0,0,0,0,0,0,0,0,0s0,0,0,0h0l0,0v0s0,0,0,0a0,0,0,0,0,0,0s0,0,0,0a.19.19,0,0,0,.05-.1h0s0,0,0,0l0,0v0l0,.06-.12.19-.09.15s0,0,0,.06,0,0,.05,0S23.41,10.64,23.45,10.61Zm-.07-1.86h0Zm0,0h0S23.4,8.73,23.4,8.74Zm.41,1.52s0,.06-.07.09a2.6,2.6,0,0,1-.28.45s0,0,0,.09l.06-.06a2.88,2.88,0,0,0,.23-.34A.94.94,0,0,0,23.81,10.26Zm-.37-1.57h0Zm0,0v0h0Zm0,1.94v0l0,0Zm0-2h0v0h0Zm.05,1.85v0h0Zm0,0h0l0,0Zm0,0s0,0,0-.06v.06Zm0-1.88h0Zm0,0v0h0Zm.19,1.93a.05.05,0,0,0,0,0h0l0,0Zm0,0a.43.43,0,0,0,0,0h0Zm0-.21h0Zm0-3.38s0,0,0,0l0,0Zm.07,1.45,0,0h0v0h0L24,8.2v0L24,8.23l0,0,0,0s0,0,0,0Zm.32-.13-.08.05L24,8.31a.49.49,0,0,0-.14.11h0a.67.67,0,0,0,.14-.11.25.25,0,0,0,.1-.08A.16.16,0,0,0,24.23,8.18Zm-.32-1.57s0,0,0,0h0a0,0,0,0,1,0,0v0a0,0,0,0,0,0,0h0l0,0v0l0,0,0,0a.67.67,0,0,0,.14-.09l0,0s0,0,0,0a.29.29,0,0,0-.15.09l0,0A.18.18,0,0,0,23.91,6.61ZM24,8.26h0v0Zm0-1.7v0h0A0,0,0,0,0,24,6.56Zm0,0h0Zm.05,1.63h0v0l0,0h0l0,0s0,0-.06,0Zm.1-.07.06,0Zm.16,0s0,0,0,0A.09.09,0,0,0,24.31,8.13Zm.08-.06a.1.1,0,0,0-.05,0A.1.1,0,0,0,24.39,8.07Zm.06,0-.05,0A.1.1,0,0,0,24.45,8Z"/><path d="M33.69,2.94s0,0-.06,0a1.18,1.18,0,0,0-.37-.09l-.51,0c-.52,0-1.05,0-1.56,0h-.87l-1,0-1.19,0h-.34a.14.14,0,0,0-.13.07l-.2.36v0s0,0,0,0h0l0,0s0,0,0,0,0,0,0,0,0,0,0,0v0l0,0a.05.05,0,0,0,0,0l0,0s0,0,0,0l0,0s0,0,0,0l0,0a.05.05,0,0,1,0,0s0,0,0,0a.44.44,0,0,0-.08.15s0,0,0,0a2,2,0,0,0-.1.21s0,0,0,0,0,0,0,0l0,0a.61.61,0,0,0-.07.14.06.06,0,0,0,0,.07l0,0h0s0,0,0,.06,0,0,0,0a.31.31,0,0,0-.06.13h0a0,0,0,0,1,0,0,.18.18,0,0,0,0,.1l0,0s0,0,0,.09a.16.16,0,0,0,0,.09v0a.77.77,0,0,0-.1.25s0,0,0,0h0l0,0a0,0,0,0,0,0,0l0,0a.14.14,0,0,0,0,.09.06.06,0,0,0,0,0,.13.13,0,0,0,0,.1s0,0,0,0,0,0,0,.06l0,0a.08.08,0,0,0,0,.05.36.36,0,0,0,0,.09.06.06,0,0,0,0,.06.13.13,0,0,0,0,.06s0,0,0,0l0,.06h0a.21.21,0,0,0,0,.11l0,.06a0,0,0,0,1,0,0h0s0,0,0,.08,0,0,0,0a.08.08,0,0,0,0,0v0a.14.14,0,0,1,0,.1.12.12,0,0,0,0,.09,1.73,1.73,0,0,0-.11.32.21.21,0,0,0,0,.11.32.32,0,0,1,0,.09.16.16,0,0,0,0,.09l0,.08a.31.31,0,0,0,0,.13v0s0,0,0,.08a.36.36,0,0,0,0,.11,1.09,1.09,0,0,0-.07.24.41.41,0,0,0-.05.09l-.06.25a.11.11,0,0,0,0,0,.14.14,0,0,0,0,.06l0,.05-.09.3a.46.46,0,0,0-.05.14h0l0,.05h0a.36.36,0,0,0,0,.11.33.33,0,0,0,0,.13s0,0,0,.06a.1.1,0,0,0,0,.07.14.14,0,0,0,0,.06l0,.06h0a1.8,1.8,0,0,0-.05.19h0A.33.33,0,0,0,25,10a.33.33,0,0,0,0,.14.09.09,0,0,0,0,.07l0,.15a.32.32,0,0,0,0,.14.9.9,0,0,1,0,.16.15.15,0,0,1-.06.09h0s0,0,0,0,0,0-.06,0l-.08,0s-.06,0,0-.08a4.21,4.21,0,0,1,.12-.48c.05-.2.11-.41.17-.61s.13-.5.22-.74c0-.08,0-.15.07-.24s.08-.25.12-.38.06-.24.1-.36.09-.26.13-.39l.17-.53c0-.14.09-.27.14-.41s.17-.45.25-.67.11-.27.16-.41.1-.23.15-.36l.2-.45c.07-.19.18-.38.27-.57s.26-.54.4-.81L27.32,3c0-.08,0-.09-.05-.08l-.49,0-.76,0-.33,0-.25,0L24.76,3,24,3.13l-.5.06-.43.06-.4,0-.44.06-.53.08-.5,0a.87.87,0,0,1-.23,0c-.06,0-.12,0-.15-.08v0h0a.44.44,0,0,0,.2,0,1.84,1.84,0,0,0,.4-.06c.25,0,.51-.08.75-.12l.43-.08,1-.16.5-.07.44-.06.41,0c.11,0,.22,0,.33,0l.51-.05.41,0,.59,0H27l.43,0s.07,0,.08,0a.3.3,0,0,0,.07-.1l.16-.26A4.05,4.05,0,0,1,28,1.85l.23-.37c.08-.1.14-.2.21-.3s.2-.29.32-.44.23-.3.36-.45L29.31,0l0,0s0,0,.05,0a.05.05,0,0,1,0,.06.11.11,0,0,1,0,.06.44.44,0,0,1-.08.11L29,.78c-.11.17-.23.34-.34.52a.73.73,0,0,0-.05.09v0a.28.28,0,0,0-.07.09s0,.06-.06.09-.05.08-.07.11a.76.76,0,0,0-.12.19l-.09.16a.47.47,0,0,0-.07.12s0,0,0,0a.11.11,0,0,0,0,.09.31.31,0,0,0-.08.13l0,0s0,0,0,0,0,0,0,0h0a0,0,0,0,0,0,0h0a.11.11,0,0,0,.08,0h1c.5,0,1,0,1.48,0h1.69l.74,0a2.53,2.53,0,0,1,.48.08.49.49,0,0,1,.26.18s0,0,0,0A0,0,0,0,1,33.69,2.94Zm-9,7.18s0,0,0,0h0Zm0,0a.15.15,0,0,1,0-.06.64.64,0,0,1,0,.07S24.75,10.11,24.75,10.1Zm0-.19s0,0,0,.06a.14.14,0,0,0,0,.07h0V10A.14.14,0,0,0,24.78,9.91Zm0-.07a.14.14,0,0,0,0,.06S24.79,9.86,24.8,9.84ZM27.47,3.2s0,0,0,0a.08.08,0,0,0,0,0l0,0a.2.2,0,0,0-.05.09q-.25.48-.48,1c-.16.35-.31.71-.46,1.08s-.33.84-.48,1.27-.3.89-.45,1.33c-.22.68-.44,1.37-.63,2.06l-.06.21a.08.08,0,0,0,0,.07.5.5,0,0,0,.05-.13c.1-.39.22-.78.34-1.16s.21-.66.32-1,.27-.84.42-1.26.29-.81.45-1.21.28-.69.43-1,.17-.38.26-.56.18-.39.28-.58a.59.59,0,0,0,.06-.14.05.05,0,0,0,0,0s0,0,0,0S27.47,3.22,27.47,3.2ZM24.8,9.84a.14.14,0,0,0,0-.06h0s0,0,0-.08h0a.09.09,0,0,1,0-.06s0,0,0-.07a.65.65,0,0,0,0,.13.22.22,0,0,0,0,.08S24.8,9.81,24.8,9.84Zm.08-.27s0,0,0-.05,0,0,0,0l0,0h0s0-.08,0-.11V9.26a.11.11,0,0,0,0,.08A.52.52,0,0,0,24.88,9.57ZM25,9.25h0v0s0,0,0,0,0,0,0-.05l0-.06a0,0,0,0,1,0,0s0,0,0,0a0,0,0,0,0,0-.05.08.08,0,0,1,0-.06s0,0,0-.06V8.83a.13.13,0,0,0,0-.06h0a.07.07,0,0,1,0,0h0a.11.11,0,0,1,0-.05s0,0,0,0,0,0,0,0l0-.05a.06.06,0,0,0,0-.06.07.07,0,0,1,0-.06.43.43,0,0,0,0-.05s0,0,0,0,0,0,0,0,0,0,0-.06a.06.06,0,0,0,0-.06l0,0a0,0,0,0,0,0-.08h0s0,0,0-.06a0,0,0,0,1,0,0s0,0,0,0a.13.13,0,0,1,0-.06h0v0l0,0a.14.14,0,0,0,0-.06.06.06,0,0,1,0-.05h0v.05a0,0,0,0,0,0-.05.11.11,0,0,1,0-.06h0s0,0,0-.06v.06a.42.42,0,0,0,0-.06.07.07,0,0,0,0-.05h0a.13.13,0,0,1,0-.06v0s0,0,0,0v0h0a.13.13,0,0,1,0-.06v.05s0,0,0-.05,0,0,0,0v0h0s0,0,0-.06l0,0a.07.07,0,0,0,0-.07.41.41,0,0,0,.05-.17.07.07,0,0,0,0-.06,14385487365632.7,14385487365632.7,0,0,0,0-.12.08.08,0,0,0,0,0s0,0,0-.06,0,0,0,0a.13.13,0,0,0,0-.06s0,0,0,0h0V6.59s0,0,0,0v0a.08.08,0,0,0,0,0,.11.11,0,0,0,0,0,.14.14,0,0,0,0-.06s0-.05,0-.09l0-.06s0,0,0,0,0,0,0,0h0V6.18h0v.05a.19.19,0,0,0,0-.09s0,0,0,0a.17.17,0,0,0,0-.1l0,0h0V5.89a0,0,0,0,0,0,0L26,6.13s0,0,0,0,0,0,0,.06,0,0,0,0a2.25,2.25,0,0,0-.08.24s0,0,0,.06,0,0,0,.06,0,0,0,.06l-.32,1a.29.29,0,0,0,0,.09.1.1,0,0,0,0,.11.77.77,0,0,0-.1.29l0,.07a2,2,0,0,0-.07.23.13.13,0,0,1,0,.06,1.13,1.13,0,0,0-.08.24.13.13,0,0,0,0,.06A.42.42,0,0,0,25,9,.41.41,0,0,0,25,9.2.06.06,0,0,0,25,9.25Zm.46-1.37h0S25.43,7.86,25.43,7.88Zm.06-.23a.17.17,0,0,1,0-.05v.05Zm0-.11,0,0v0Zm.09-.28h0Zm0,0h0s0,0,0,0S25.64,7.26,25.64,7.27ZM25.69,7V7.1h0S25.68,7.05,25.69,7Zm0-.06V7h0A.07.07,0,0,1,25.71,7Zm0-.06V7h0Zm0,0v0h0A.06.06,0,0,1,25.75,6.87Zm0-.06v.06h0Zm0,.68h0Zm0-.73v0h0S25.77,6.77,25.78,6.76Zm0-.06v.06h0Zm0,0v0h0v0Zm.07-.2v0h0S25.87,6.51,25.88,6.5Zm0-.06V6.5h0S25.88,6.45,25.9,6.44Zm0-.05v.05h0Zm0,.58h0Zm0-.68v0h0v0Zm.07-.2v0h0Zm0,0h0Zm0-.1a.09.09,0,0,1,0,0V6Zm0-.11s0,0,0,0A.08.08,0,0,0,26.08,5.88Zm.05.6h0Zm0-.66a.1.1,0,0,0,0-.09l0,0a.07.07,0,0,0,0-.05.11.11,0,0,0,0,.09S26.11,5.79,26.1,5.82Zm0,.55h0Zm0-.73,0,0s0,0,0-.06,0,0,0,0v0l0,0a.13.13,0,0,0,0-.06l0,0h0V5.27a.1.1,0,0,0,0,.09.18.18,0,0,0,0,.1s0,0,0,.09A.12.12,0,0,0,26.18,5.64Zm0,.05h0Zm.1.33h0Zm0-.76a.13.13,0,0,0,0-.09s0,0,0,0,0,0,0,0A.12.12,0,0,0,26.33,5.26Zm.05-.13,0,0v0S26.39,5.1,26.38,5.13Zm0-.09,0,0S26.42,5,26.42,5Zm0,.6Zm0-.64h0s0,0,0,0V4.91h0v0h0v0h0V5s0,0,0-.06l0,0h0a.05.05,0,0,1,0,0v0a.13.13,0,0,0,0,.09s0,0,0,0A.12.12,0,0,0,26.44,5Zm0,0V5a0,0,0,0,1,0,0Zm.07-.23,0,0v0Zm.06-.13,0,0S26.61,4.6,26.61,4.61Zm0,.56h0l0,0Zm0-.6s0,0,0,0A0,0,0,0,0,26.63,4.57Zm0,0h0Zm0-.1a0,0,0,0,1,0,0A0,0,0,0,0,26.69,4.44Zm0,0h0v0Zm.11.28h0Zm0,0v0ZM27,3.88v0S27,3.87,27,3.88Zm0,.44h0l0,0ZM27.13,4h0l0,0Zm.11-.19v0h0Zm.39-.91h0a.22.22,0,0,1-.05.08.88.88,0,0,0-.1.22l0,0A1.71,1.71,0,0,0,27.63,2.9Zm.26-.34v0h0ZM28,2.47v0h0Zm.25-.42h0Zm0-.15h0S28.2,1.9,28.19,1.9Z"/><path d="M28.67,7.14s0,0-.05,0h0a.15.15,0,0,0-.17,0l-.12,0a2.11,2.11,0,0,0-.34.16l-.16.1-.08,0s0,0,0,0-.05,0-.08.07l0,0h0l-.06,0h0l0,0v0h0s0,0,0,0,0,0-.05,0a.1.1,0,0,0-.05,0l0,0a.1.1,0,0,0-.05,0h0a0,0,0,0,0,0,0h0v0a.13.13,0,0,0-.07.06v0a.11.11,0,0,0-.08.07h0V8s0,0,0,0A.07.07,0,0,0,27,8h0l0,0h0a.44.44,0,0,0-.14.13h0l-.06.08s0,0,0,0l-.06.08a.73.73,0,0,0-.16.22h0v0h0s0,.05,0,.06h-.09c-.05,0-.1,0-.12-.1a.12.12,0,0,0-.05,0,.14.14,0,0,1,0-.12c.07-.2.12-.4.19-.61s.13-.35.18-.53A1,1,0,0,1,26.64,7l0,0s0,0,0,0a.14.14,0,0,1,.08.1.33.33,0,0,1,0,.17,4,4,0,0,0-.09.45s0,0,0,0,0,0,0,0,0,0,0,0l.07-.06a2.88,2.88,0,0,1,.39-.3,3.45,3.45,0,0,1,.32-.2L28,7a1,1,0,0,1,.32-.09.29.29,0,0,1,.27.09.57.57,0,0,1,.12.15S28.68,7.12,28.67,7.14ZM26.54,8.58h0Zm1.73-1.52-.24.1a4.5,4.5,0,0,0-.79.52,6.35,6.35,0,0,0-.67.7.09.09,0,0,0,0,.06h0a.35.35,0,0,0,.1-.11,4,4,0,0,1,.68-.69,3.07,3.07,0,0,1,.88-.54S28.26,7.09,28.27,7.06ZM26.54,8.55h0l0,0Zm0,0h0Zm0,0s0,0,0,0Zm0,0h0Zm0,0h0v0h0Zm0,0h0l0,0S26.65,8.46,26.64,8.47Zm0,0h0Zm0,0h0l0,0v0Zm0,0,0,0h0Zm.08-.53s0,0,0,0Zm0,.41h0Zm.09-.09h0s0,0,0,0Zm0,0h0v0h0l0,0s0,0,0,0h0A0,0,0,0,0,26.89,8.17Zm0-.4a.05.05,0,0,0,.05,0S26.89,7.76,26.87,7.77Zm.06.34,0,0Zm0-.4h0v0S27,7.7,26.94,7.71Zm0,.36h0v0Zm0,0h0Zm0,0h0V8Zm0-.35H27v0a.09.09,0,0,0,.05,0h0a.08.08,0,0,0,0,0h0a.05.05,0,0,1,0,0h0v0l0,0h0s0,0,0,0h0v0l0,0h0l0,0h.07s0,0,0,0h0v0h0v0l0,0a.1.1,0,0,0,.05,0h0s.07,0,.08-.06v0s0,0,0,0l0,0,0,0h0l0,0s0,0,0,0l0,0h0l0,0v0s.07,0,.08-.06h0l0,0,0,0s0,0,.06,0h0l0,0h0v0s.06,0,.09,0h0s0,0,0,0a0,0,0,0,0,0,0,.12.12,0,0,0-.09,0s0,0,0,0a2.18,2.18,0,0,0-.37.2.4.4,0,0,0-.15.1.19.19,0,0,0-.09,0,.24.24,0,0,0-.08.06l-.06,0s0,0,0,0a.07.07,0,0,0-.05,0s0,0-.06,0ZM27,8h0Zm0,0,0,0V8Zm0,0h0l0,0Zm0,0h0s0,0,0,0S27.06,8,27.05,8Zm.07,0v0Zm0,0h0Zm0,0h0s0,0,0,0Zm.05,0v0Zm0,0,0,0S27.22,7.82,27.21,7.83Zm0,0h0v0Zm0,0h0l0,0h0Zm0,0h0Zm.05-.31v0h0Zm0,.28h0Zm0,0h0l0,0Zm0,0,0,0h0l0,0Zm0-.32v0h0Zm0,.29h0Zm.07-.32h0Zm0,0v0h0Zm0,.24v0S27.45,7.61,27.46,7.6Zm0,0h0Zm.09-.34v0h0Zm.5-.28a.08.08,0,0,0,.05,0Z"/><path d="M31.24,7.24l-.14.13a.09.09,0,0,1-.06,0v0a0,0,0,0,1,0,0l0,0a0,0,0,0,0,0,0,0,0,0,0,0,0,0l0,0-.33.33a.05.05,0,0,0,0,0s0,0,0,0v0s0,0,0,0h0s0,0,.06-.06a.71.71,0,0,1,.09-.07.09.09,0,0,1-.06.06c-.11.13-.24.27-.37.4a2.73,2.73,0,0,1-.23.25,3.17,3.17,0,0,1-.36.37.41.41,0,0,1-.11.07.17.17,0,0,1-.19,0l0,0a.2.2,0,0,1-.07-.15.51.51,0,0,1,0-.17,6,6,0,0,1,.22-.68c0-.08.05-.15.08-.24a.08.08,0,0,0,0,0,0,0,0,0,0,0,0s0,0,0-.06V7.36s0,0,0,0h0a0,0,0,0,0,0,0h0l0,0h0v0h0s0,0,0,0a2.31,2.31,0,0,1-.61.52l-.18.07a.17.17,0,0,1-.12,0,.32.32,0,0,1-.18-.18.08.08,0,0,1,0-.08.42.42,0,0,1,.05-.17l.08-.16a1.34,1.34,0,0,1,.32-.31A.66.66,0,0,1,29.27,7a.31.31,0,0,1,.13,0c.05,0,.06,0,.09,0l.17-.24h0c.12-.12.22-.27.35-.39a.3.3,0,0,1,.08-.08.08.08,0,0,1,.1,0l.05,0a.14.14,0,0,1,.06.17,2.68,2.68,0,0,1-.12.3.11.11,0,0,0,0,.06l0,0a.09.09,0,0,1,0,.06v0a.49.49,0,0,1,0,.11V7l0,0a0,0,0,0,1,0,0s0,0,0,0a.25.25,0,0,0-.06.14.21.21,0,0,0-.05.12,0,0,0,0,0,0,0h0A.39.39,0,0,0,30,7.5a.32.32,0,0,0,0,.09s0,0,0,0h0a.2.2,0,0,0,0,.08,0,0,0,0,1,0,0l0,.06-.11.3a.2.2,0,0,0,0,.11,1.06,1.06,0,0,0-.1.3.24.24,0,0,0,0,.12h0s0,0,.05,0l.06-.05L30,8.22l.33-.33.37-.36c.12-.11.23-.23.36-.34l0,0c.05,0,.05,0,.1,0S31.26,7.21,31.24,7.24Zm-2.07.18.14-.18a.47.47,0,0,0,.06-.09s0,0,0,0h0a.37.37,0,0,0-.18,0,.82.82,0,0,0-.2.12s0,0-.07,0,.05,0,.06-.08,0,0,.05,0l-.05,0a.56.56,0,0,0-.21.22.15.15,0,0,0,0,.06s0,0,0-.06l.06,0a.46.46,0,0,1,.07-.07s0,0,0,.08a.49.49,0,0,0-.16.19.65.65,0,0,0-.08.22s0,0,.05,0l.14-.08A2.83,2.83,0,0,0,29.17,7.42Zm-.53.14a0,0,0,0,0,0,0S28.65,7.55,28.64,7.56Zm0-.18h0v0h0v0h0Zm0,0h0Zm0,0h0v0A0,0,0,0,1,28.7,7.33Zm0,0Zm0,0,0,0s.08-.06.09-.11l0,0h0l0,0a.16.16,0,0,0-.1.1h0Zm.39.28h0a0,0,0,0,1,0,0h0v0h0a0,0,0,0,1,0,0h0l0,0v0a0,0,0,0,1,0,0,.12.12,0,0,0,.06-.08h0a0,0,0,0,1,0,0v0h0l0,0h0a.05.05,0,0,0,0,0h0v0h0v0l0,0h0v0a.05.05,0,0,0,0,0h0v0h0v0a.16.16,0,0,0,0,.07,0,0,0,0,0,0,0s0,0-.06.06h0l-.1.11c-.05.06-.11.11-.15.17l.06,0Zm0,.15,0,0A.05.05,0,0,0,29.12,7.76Zm.45-.48v0h0l0,0a3.17,3.17,0,0,1-.3.34l0,0s0,0,0,0a.07.07,0,0,0,0,0l0,0v0a.18.18,0,0,0,.07-.05c.11-.11.2-.22.3-.34Zm-.41.29v0h0Zm.13-.14h0A0,0,0,0,1,29.29,7.43Zm0,0v0h0v0Zm0,0h0l0,0Zm.13-.16h0l0,0S29.46,7.17,29.46,7.2Zm0,.23h0a0,0,0,0,1,0,0Zm.22-.36.1-.14h0l0,0h0l0,0,0,0h0l0,0s0,0,0,0l0,0h0a.1.1,0,0,1,0,.05v0h0A.36.36,0,0,0,29.72,7.07Zm-.07,1.08a.15.15,0,0,0,0-.07S29.66,8.12,29.65,8.15Zm.21-1.21-.17.24a.1.1,0,0,0,0,.12.28.28,0,0,1,0,.09s0,0,0,0a0,0,0,0,0,0,0S29.9,7,29.86,6.94Zm-.1.91h0S29.77,7.85,29.76,7.85Zm0-.92v0Zm0-.22s0,0,0,0v0a.06.06,0,0,0,.05,0v0h0l0,0s0,0,0,0l0,0h0v0h0v0s0,0,0,0a.11.11,0,0,0-.07.06s-.05,0-.05.07l0,0Zm.08.75a.09.09,0,0,0,0,.07A.09.09,0,0,0,29.92,7.46Zm0-.88h0Zm0,.93h0ZM30,7.27a0,0,0,0,0,0,0S30,7.28,30,7.27Zm0-.79a.07.07,0,0,0,.05,0h0v0S30,6.47,30,6.48Zm.05.64,0,0s0,0,0,0h0Zm.19.94a1.09,1.09,0,0,0-.18.19l0,0a1.8,1.8,0,0,0,.19-.2A0,0,0,0,0,30.26,8.06Zm0,.17h0a.56.56,0,0,0-.15.16.75.75,0,0,0,.15-.16ZM30.12,7a.09.09,0,0,0,0,.07A.15.15,0,0,0,30.12,7Zm.05,0a0,0,0,0,1,0,0h0Zm.08,1.15,0,0A0,0,0,0,0,30.25,8.2Zm0,0h0Zm.28-.29h0v0h0V8h0a1.8,1.8,0,0,0-.19.2v0A1,1,0,0,0,30.46,8h0V8s0,0,0,0l0,0ZM30.35,8h0Zm0,0a.2.2,0,0,0,.11-.11Zm.29-.29a1.85,1.85,0,0,0-.14.14A.24.24,0,0,0,30.67,7.65Zm.07.07v0h0Zm0,0a1.85,1.85,0,0,1,.14-.14A.27.27,0,0,1,30.75,7.7Zm.18-.28c-.07,0-.11.08-.16.13a.14.14,0,0,0,.08,0Zm0,.12,0,0ZM31,7.46h0a.17.17,0,0,1-.08.07Zm0,0v0h0S31,7.45,31,7.46Zm0,0h0Zm0,0h0Zm.12-.21a.71.71,0,0,0-.09.07C31.12,7.25,31.12,7.25,31.15,7.2Z"/><path d="M34.9,2.62l-.06.12h0a.64.64,0,0,0-.1.13.26.26,0,0,1,0,.09h0s0,0,0,0a.34.34,0,0,1-.08.14s0,0,0,0v0a.12.12,0,0,0-.06.08.64.64,0,0,1-.1.18v0h0l0,.05a1.48,1.48,0,0,0-.16.27h0a.3.3,0,0,0,0,.1.2.2,0,0,0-.06.12l0,0s0,0,0,0,0,0,0,0h0s0,0,0,0a.67.67,0,0,0-.09.14,2.29,2.29,0,0,0-.1.23.94.94,0,0,0-.15.28h0s0,0,0,0,0,0,0,0a.1.1,0,0,0,0,0,.18.18,0,0,0,0,.09,0,0,0,0,0,0,0,.33.33,0,0,0-.07.13,1,1,0,0,0-.08.18,0,0,0,0,0,0,0,.26.26,0,0,0,0,.09h0a.06.06,0,0,1,0,0h0l0,0a1.12,1.12,0,0,0-.11.25s0,0,0,0a.09.09,0,0,0,0,.06,1.94,1.94,0,0,0-.13.3.94.94,0,0,0-.06.15s0,0,0,0a.15.15,0,0,0,0,.07,3,3,0,0,0-.17.45V7s0,0,0,0a.31.31,0,0,0-.06.16.37.37,0,0,0,0,.14s0,0,0,0a.5.5,0,0,0,0,.13.17.17,0,0,0,0,.1.08.08,0,0,0,0,.06.32.32,0,0,0,0,.09h0s0,0,0,0,0,.05,0,.08-.08.23-.11.34a.51.51,0,0,0,0,.13,1.14,1.14,0,0,0-.08.33.26.26,0,0,0,0,.15h0s0,0,.07,0l.06-.05.39-.44.35-.38.39-.42c.13-.13.25-.27.39-.39l0,0c0-.05.06-.05.12,0s0,0,0,.09l-.14.14a.15.15,0,0,1-.06,0v0a0,0,0,0,0,0,0h0s0,0,0,0l-.05,0c-.11.12-.22.25-.34.37a.08.08,0,0,0,0,0,0,0,0,0,0,0,0h0s0,0,0,0a.16.16,0,0,0,.07-.07l.08-.08s0,0,0,.07l-.39.46-.24.29a5.22,5.22,0,0,1-.39.43l-.1.07a.23.23,0,0,1-.24,0s0,0,0,0a.23.23,0,0,1-.1-.17.74.74,0,0,1,0-.21c0-.26.12-.52.18-.77a2.29,2.29,0,0,0,.08-.28s0,0,0-.06,0,0,0,0,0,0,0-.06V7.33s0,0-.05,0v0l0,0s0,0,0,.06a0,0,0,0,1,0,0l0,0h0l0,0h0a2,2,0,0,1-.64.6.43.43,0,0,1-.2.07.17.17,0,0,1-.14,0,.4.4,0,0,1-.22-.2.2.2,0,0,1,0-.11.63.63,0,0,1,0-.19l.09-.18a1.61,1.61,0,0,1,.33-.36.74.74,0,0,1,.48-.15.8.8,0,0,1,.15,0c.06,0,.07,0,.11,0l.16-.27.42-.72c.11-.18.21-.38.31-.57l.17-.29a1.09,1.09,0,0,1,.08-.15,1.09,1.09,0,0,1,.08-.15l.33-.59.32-.54c.09-.16.18-.32.29-.48l.44-.66.09-.1s.06,0,.1,0a.55.55,0,0,1,.12.14S34.92,2.6,34.9,2.62ZM31.66,7.39c0-.07.1-.14.15-.21a.35.35,0,0,0,.05-.08s0,0,0,0h0a.54.54,0,0,0-.22.05l-.21.13a.12.12,0,0,1-.08.06s.05-.06.07-.09l.05,0s0,0-.06,0a.45.45,0,0,0-.21.24.08.08,0,0,0,0,.07.1.1,0,0,0,0-.07s0,0,.06-.06,0,0,.08-.07,0,.05-.05.08a.76.76,0,0,0-.15.23.51.51,0,0,0-.06.25s0,0,0,0l.16-.09A3.42,3.42,0,0,0,31.66,7.39Zm-.6,0h0v0Zm0,.21s0,0,0,0Zm0-.23h0a0,0,0,0,1,0,0S31.09,7.33,31.08,7.33Zm0,0h0v0a0,0,0,0,0,0,0h0Zm0,0v0s0,0,0,0Zm0,0h0v0h0Zm0,0h0Zm0,0,0,0h0v0l0,0a.23.23,0,0,0,.1-.12,0,0,0,0,0,0,0l0,0A.23.23,0,0,0,31.15,7.25Zm.14-.13h0Zm.35.49,0,0h0l0,0v0s0,0,0,0h0l0,0,0,0v0a.16.16,0,0,0,.07-.09h0l0,0v0s0,0,0,0h0l0,0a0,0,0,0,0,0,0,0,0,0,0,1,0,0v0h0a0,0,0,0,1,0,0,.07.07,0,0,0,0-.06h0l0,0v0h0v0s0,0,0,0h0l0,0v0h0v0a.05.05,0,0,0,0,0h0v0h0v0a.14.14,0,0,0-.05.08h0a.16.16,0,0,0-.06.08h0a.5.5,0,0,0-.1.14.93.93,0,0,0-.16.18.15.15,0,0,0,.07,0l0,0h0Zm0,.17-.05,0S31.62,7.79,31.64,7.78Zm0-.19v0h0A0,0,0,0,1,31.64,7.59Zm.46-.38h0l0,0a3.9,3.9,0,0,1-.31.4l0,0h0s0,0,0,0l0,0a0,0,0,0,1,0,0l.07-.06a2.38,2.38,0,0,0,.31-.4h0A0,0,0,0,0,32.1,7.21Zm-.42.35h0s0,0,0,0Zm.2-.26h0ZM32,7.14h0l0,0S32,7.11,32,7.14Zm.09.27h0Zm.05-.08h0ZM32.25,7a2.53,2.53,0,0,0,.18-.27V6.68c-.06.08-.11.18-.17.27s0,0,0,0a.26.26,0,0,0-.07.11h0A.19.19,0,0,0,32.25,7Zm.23-.26a.37.37,0,0,0-.11.18.35.35,0,0,0-.11.15c-.06,0-.06.11,0,.19a.54.54,0,0,1,0,.1s0,0,0,0a0,0,0,0,0,0,0l.15-.45a0,0,0,0,0,0,0s0,0,0,0Zm-.19.33h0A0,0,0,0,1,32.29,7.07Zm0,1.08s0,0,0,.08A.08.08,0,0,0,32.31,8.15Zm.07-.25h0S32.39,7.9,32.38,7.9Zm.14-1.35a.05.05,0,0,0,0,0A.05.05,0,0,0,32.52,6.55Zm0,.89a.32.32,0,0,0,0,.09A.1.1,0,0,0,32.52,7.44Zm.08-.22,0,0A.06.06,0,0,0,32.6,7.22Zm.06-.16s0,0,0,0h0Zm0-.14a.32.32,0,0,0,0,.09A.16.16,0,0,0,32.7,6.92Zm.08-.2a.1.1,0,0,0,0,.08A.09.09,0,0,0,32.78,6.72Zm0,.26v0a.08.08,0,0,0,0,0Zm0,1.41a1,1,0,0,0,.2-.22s0,0,0,0a1,1,0,0,0-.2.21S32.77,8.38,32.76,8.39ZM33,8.3s0,0,0,0l0,0a.52.52,0,0,0-.15.18.65.65,0,0,0,.15-.18l0,0Zm-.16-1.66s0,0,0,0S32.81,6.66,32.81,6.64Zm.12-.3h0Zm0,.07a0,0,0,0,0,0,0h0A0,0,0,0,1,33,6.41Zm0-.23s0,0,0,0A0,0,0,0,0,33,6.18Zm0,2.1h0Zm0,0A1.21,1.21,0,0,0,33.2,8h0V8a0,0,0,0,0,0,0h0l0,0a0,0,0,0,0,0,0,0,0,0,0,0,0,0l0,0,0,0,0,0V8h0a1.45,1.45,0,0,0-.19.23S33,8.27,33,8.28Zm0-2.21a.09.09,0,0,0,0,.06A0,0,0,0,0,33,6.07Zm0,2Zm0,0a.25.25,0,0,0,.12-.13A.3.3,0,0,0,33.1,8Zm0-2.18s0,0,0,.07A.11.11,0,0,0,33.15,5.82Zm0-.07s0,0,0,0S33.17,5.75,33.18,5.75Zm0,0v0S33.19,5.72,33.19,5.71Zm0,0h0Zm0,2.14a.33.33,0,0,0,.15-.16A.57.57,0,0,0,33.25,7.83Zm.1-2.46a.06.06,0,0,0,0,0,.14.14,0,0,0-.05.08.16.16,0,0,0,.05-.08S33.35,5.39,33.35,5.37Zm0,0a.1.1,0,0,0,0,0A.1.1,0,0,0,33.39,5.32Zm.06-.15,0,0S33.45,5.18,33.45,5.17Zm0,2.55a0,0,0,0,1,0,0h0S33.49,7.73,33.5,7.72Zm0-2.67h0s0,0,0,0h0Zm0,2.5.09-.06.07-.1A.61.61,0,0,0,33.51,7.55Zm.14,0a.43.43,0,0,1-.14.16A.44.44,0,0,1,33.65,7.56Zm-.08-2.64a0,0,0,0,0,0,0,0,0,0,0,1,0,0Zm.09,2.63v0a0,0,0,0,0,0,0h0Zm.08-.11h0a.12.12,0,0,1-.08.09Zm0,0h0v0A0,0,0,0,0,33.75,7.42Zm0,0h0Zm0,0h0Zm0,0h0A0,0,0,0,1,33.79,7.4Zm0-.17s0,0,.08-.09A.32.32,0,0,0,33.82,7.23Zm.26-3.14h0Zm0,0v0Z"/><path d="M36.22,7.24l-.14.13a.09.09,0,0,1-.06,0v0s0,0,0,0l0,0h0l0,0,0,0-.33.33s0,0,0,0,0,0,0,0v0s0,0,0,0h0s0,0,.07-.06a.29.29,0,0,1,.08-.07.1.1,0,0,1,0,.06l-.38.4a1.79,1.79,0,0,1-.23.25,2.53,2.53,0,0,1-.36.37.41.41,0,0,1-.11.07.17.17,0,0,1-.19,0l0,0a.19.19,0,0,1-.06-.15.5.5,0,0,1,0-.17,6,6,0,0,1,.22-.68c0-.08.05-.15.08-.24a.08.08,0,0,0,0,0s0,0,0,0,0,0,0-.06V7.36s0,0,0,0h0a0,0,0,0,1,0,0h0l0,0h0v0h0v0a2,2,0,0,1-.61.52l-.17.07a.19.19,0,0,1-.13,0,.32.32,0,0,1-.18-.18.19.19,0,0,1,0-.08.69.69,0,0,1,.05-.17l.09-.16a1.3,1.3,0,0,1,.31-.31A.66.66,0,0,1,34.25,7a.35.35,0,0,1,.14,0s0,0,.09,0,.11-.16.16-.24h0c.12-.12.22-.27.35-.39a.3.3,0,0,1,.08-.08.08.08,0,0,1,.1,0l0,0c.07,0,.08.09.06.17a2.68,2.68,0,0,1-.12.3.11.11,0,0,0,0,.06l0,0a.09.09,0,0,1,0,.06v0a.45.45,0,0,1,0,.11V7l0,0s0,0,0,0a.11.11,0,0,0,0,0,.25.25,0,0,0-.06.14.23.23,0,0,0-.06.12v0h0a.37.37,0,0,0-.05.11.16.16,0,0,0,0,.09s0,0,0,0h0a.2.2,0,0,0,0,.08,0,0,0,0,1,0,0l0,.06-.11.3a.35.35,0,0,0,0,.11,1.06,1.06,0,0,0-.1.3.24.24,0,0,0,0,.12h0s0,0,0,0l.07-.05L35,8.22l.33-.33.38-.36.35-.34,0,0s.06,0,.1,0S36.25,7.21,36.22,7.24Zm-2.06.18.14-.18a.47.47,0,0,1,.06-.09,0,0,0,0,0,0,0h0a.41.41,0,0,0-.18,0,.82.82,0,0,0-.2.12s0,0-.07,0,0,0,.07-.08,0,0,0,0l-.05,0a.63.63,0,0,0-.21.22.08.08,0,0,0,0,.06.09.09,0,0,0,0-.06l.06,0a.29.29,0,0,1,.08-.07s0,0,0,.08a.6.6,0,0,0-.16.19.63.63,0,0,0-.07.22s0,0,0,0l.14-.08A2.92,2.92,0,0,0,34.16,7.42Zm-.54.14s0,0,0,0S33.63,7.55,33.62,7.56Zm0-.18h0v0h0v0l0,0a0,0,0,0,1,0,0h0a0,0,0,0,0,0,0Zm0,0h0Zm0,0h0v0A0,0,0,0,1,33.69,7.33Zm0,0h0Zm0,0,0,0a.27.27,0,0,0,.1-.11v0h0l0,0s-.08,0-.11.1h0Zm.39.28h0a0,0,0,0,1,0,0h0l0,0h0a0,0,0,0,1,0,0h0l0,0v0s0,0,0,0a.12.12,0,0,0,.06-.08h0l0,0v0s0,0,0,0h0l0,0h0a.05.05,0,0,0,0,0h0s0,0,0,0h0v0h0v0s0,0,0,0h0s0,0,0,0h0v0a.12.12,0,0,0-.05.07l0,0a.1.1,0,0,0-.05.06h0l-.1.11c0,.06-.11.11-.15.17l.07,0Zm0,.15s0,0,0,0Zm.45-.48s0,0,0,0h0l0,0c-.09.12-.2.23-.3.34l0,0s0,0,0,0,0,0,0,0l0,0,0,0s0,0,.06-.05a3.17,3.17,0,0,0,.3-.34Zm-.41.29v0h0Zm.13-.14h0Zm0,0v0h0s0,0,0,0Zm0,0h0l0,0Zm.13-.16h0l0,0S34.44,7.17,34.44,7.2Zm0,.23h0Zm.22-.36a.71.71,0,0,0,.1-.14h0l0,0h0l0,0V7h0l0,0s0,0,0,0l0,0h0l0,.05v0h0A.36.36,0,0,0,34.7,7.07Zm-.07,1.08a.09.09,0,0,0,0-.07S34.64,8.12,34.63,8.15Zm.21-1.21-.17.24a.16.16,0,0,0,0,.12s0,.06,0,.09,0,0,0,0,0,0,0,0S34.88,7,34.84,6.94Zm-.1.91h0S34.75,7.85,34.74,7.85Zm.06-.92s0,0,0,0Zm0-.22s0,0,0,0l0,0s0,0,0,0l0,0h0s0,0,0,0a.08.08,0,0,0,0,0v0a0,0,0,0,0,0,0v0h0v0a.13.13,0,0,0-.07.06.18.18,0,0,0-.05.07l0,0Zm.09.75s0,0,0,.07A.16.16,0,0,0,34.91,7.46Zm0-.88h0Zm0,.93h0ZM35,7.27a0,0,0,0,0,0,0S35,7.28,35,7.27Zm0-.79s0,0,0,0a0,0,0,0,0,0,0h0s0,0,0,0Zm0,.64,0,0s0,0,0,0h0Zm.19.94a1.09,1.09,0,0,0-.18.19s0,0,0,0a1.8,1.8,0,0,0,.19-.2A0,0,0,0,0,35.24,8.06Zm0,.17h0a.52.52,0,0,0-.14.16.7.7,0,0,0,.14-.16ZM35.1,7a.09.09,0,0,0,0,.07A.09.09,0,0,0,35.1,7Zm0,0V7h0Zm.08,1.15,0,0A0,0,0,0,0,35.23,8.2Zm0,0h0Zm.29-.29h0v0h0V8h0a1.12,1.12,0,0,0-.18.2s0,0,0,0A1,1,0,0,0,35.44,8h0V8l0,0v0Zm-.2.07h0Zm0,0a.2.2,0,0,0,.11-.11Zm.29-.29a1.85,1.85,0,0,0-.14.14A.24.24,0,0,0,35.65,7.65Zm.07.07v0h0Zm0,0a1,1,0,0,1,.15-.14A.34.34,0,0,1,35.73,7.7Zm.18-.28a.32.32,0,0,0-.15.13.12.12,0,0,0,.07,0Zm0,.12,0,0ZM36,7.46h0a.13.13,0,0,1-.08.07Zm0,0v0h0Zm0,0h0Zm0,0h0Zm.12-.21a.29.29,0,0,0-.08.07C36.1,7.25,36.1,7.25,36.13,7.2Z"/></g></g></svg>