<svg xmlns="http://www.w3.org/2000/svg" viewBox="0 0 68.24 43.57"><defs><style>.cls-1{opacity:0.86;}.cls-2{opacity:0.67;}.cls-10,.cls-11,.cls-12,.cls-13,.cls-14,.cls-15,.cls-16,.cls-17,.cls-18,.cls-19,.cls-20,.cls-21,.cls-22,.cls-23,.cls-24,.cls-25,.cls-26,.cls-27,.cls-28,.cls-29,.cls-3,.cls-30,.cls-31,.cls-4,.cls-5,.cls-6,.cls-7,.cls-8,.cls-9{fill:none;stroke:#b79815;}.cls-3{stroke-width:0.01px;}.cls-4{stroke-width:0.02px;}.cls-5{stroke-width:0.03px;}.cls-6{stroke-width:0.03px;}.cls-7{stroke-width:0.04px;}.cls-8{stroke-width:0.05px;}.cls-9{stroke-width:0.06px;}.cls-10{stroke-width:0.07px;}.cls-11{stroke-width:0.08px;}.cls-12{stroke-width:0.09px;}.cls-13{stroke-width:0.09px;}.cls-14{stroke-width:0.1px;}.cls-15{stroke-width:0.11px;}.cls-16{stroke-width:0.12px;}.cls-17{stroke-width:0.13px;}.cls-18{stroke-width:0.14px;}.cls-19{stroke-width:0.15px;}.cls-20{stroke-width:0.16px;}.cls-21{stroke-width:0.16px;}.cls-22{stroke-width:0.17px;}.cls-23{stroke-width:0.18px;}.cls-24{stroke-width:0.19px;}.cls-25{stroke-width:0.2px;}.cls-26{stroke-width:0.21px;}.cls-27{stroke-width:0.22px;}.cls-28{stroke-width:0.22px;}.cls-29{stroke-width:0.23px;}.cls-30{stroke-width:0.24px;}.cls-31{stroke-width:0.25px;}.cls-32{fill:#fff;}</style></defs><g id="Layer_2" data-name="Layer 2"><g id="Layer_1-2" data-name="Layer 1"><g class="cls-1"><g id="Design" class="cls-2"><g id="Blog-landing-page"><g id="Group-295"><path id="Stroke-237" class="cls-3" d="M66.68,9.13c-6-10.8-18-12.19-30.39-3.23C15.54,21,5.41-6,.44,12.47-4,29.19,27.32,48.06,49.15,38.07,61.29,32.52,72.43,19.52,66.68,9.13Z"/><path id="Stroke-239" class="cls-4" d="M66.24,9.6c-5.86-10.68-17.77-12.19-30-3.44C16,20.74,6.05-4.93,1.35,13.14-2.89,29.53,27.67,47.86,49,38.14,61,32.71,71.87,19.88,66.24,9.6Z"/><path id="Stroke-241" class="cls-5" d="M65.56,10.06C59.85-.5,48.1-2.11,36.12,6.43,16.32,20.54,6.68-3.87,2.26,13.81c-4,16,25.66,33.86,46.42,24.4C60.46,32.89,71.07,20.24,65.56,10.06Z"/><path id="Stroke-243" class="cls-6" d="M65.12,10.52C59.52.09,47.9-1.63,36.1,6.69,16.74,20.34,7.33-2.81,3.17,14.47c-3.74,15.73,25.1,33,45.36,23.82C60.15,33.07,70.51,20.59,65.12,10.52Z"/><path id="Stroke-245" class="cls-7" d="M64.67,11C59.2.67,47.7-1.14,36.08,7,17.17,20.14,8-1.76,4.08,15.15.56,30.54,28.6,47.26,48.39,38.37,59.83,33.24,70,21,64.67,11Z"/><path id="Stroke-247" class="cls-8" d="M64.23,11.46C58.87,1.26,47.5-.66,36.06,7.22,17.6,19.94,8.6-.7,5,15.82,1.72,30.88,29,47.06,48.24,38.45,59.52,33.41,69.4,21.32,64.23,11.46Z"/><path id="Stroke-249" class="cls-9" d="M63.56,11.69C58.34,1.62,47.14-.41,35.92,7.26c-18,12.25-26.69-7.13-30,9-3,14.73,23.29,30.37,42,22C59,33.36,68.59,21.45,63.56,11.69Z"/><path id="Stroke-251" class="cls-10" d="M63.11,12.16C58,2.21,46.94.08,35.89,7.53,18.4,19.31,9.87,1.2,6.83,16.93,4,31.32,29.55,46.42,47.77,38.36,58.69,33.54,68,21.81,63.11,12.16Z"/><path id="Stroke-253" class="cls-11" d="M62.67,12.64C57.69,2.8,46.75.57,35.87,7.8c-17,11.32-25.35-5.53-28.13,9.8C5.19,31.66,29.9,46.22,47.62,38.44,58.38,33.72,67.48,22.18,62.67,12.64Z"/><path id="Stroke-255" class="cls-12" d="M62.22,13.11c-4.85-9.71-15.67-12-26.37-5C19.27,18.93,11.17,3.34,8.66,18.27,6.35,32,30.25,46,47.48,38.52,58.07,33.9,66.92,22.54,62.22,13.11Z"/><path id="Stroke-257" class="cls-13" d="M61.78,13.35C57,3.76,46.36,1.32,35.83,8.11,19.7,18.5,11.82,4.18,9.58,18.71,7.51,32.1,30.6,45.59,47.33,38.35,57.76,33.84,66.37,22.67,61.78,13.35Z"/><path id="Stroke-259" class="cls-14" d="M61.1,14.06C56.51,4.6,46,2.06,35.69,8.62c-15.59,9.93-23.23-3.13-25.19,11-1.82,13.05,20.36,26,36.51,19C57.24,34.26,65.56,23.27,61.1,14.06Z"/><path id="Stroke-261" class="cls-15" d="M60.66,14.3c-4.48-9.34-14.85-12-25-5.64C20.54,18.13,13.12,6.33,11.42,20.07,9.85,32.78,31.21,45.19,46.87,38.5,56.93,34.21,65,23.4,60.66,14.3Z"/><path id="Stroke-263" class="cls-16" d="M60.22,14.78C55.86,5.57,45.62,2.83,35.66,8.94,21,18,13.77,7.41,12.34,20.75,11,33.13,31.57,45,46.72,38.58,56.62,34.39,64.45,23.77,60.22,14.78Z"/><path id="Stroke-265" class="cls-17" d="M59.77,15.26c-4.23-9.09-14.34-11.92-24.13-6-14.22,8.55-21.21-.73-22.37,12.2-1.08,12,18.65,23.37,33.31,17.22C56.31,34.57,63.89,24.14,59.77,15.26Z"/><path id="Stroke-267" class="cls-18" d="M59.33,15.74c-4.12-9-14.09-11.89-23.71-6.23-13.75,8.09-20.53.07-21.42,12.6-.84,11.7,18.08,22.49,32.23,16.62C56,34.76,63.34,24.51,59.33,15.74Z"/><path id="Stroke-269" class="cls-19" d="M58.65,16.22C54.68,7.39,44.89,4.37,35.5,9.8c-13.21,7.63-19.75.87-20.37,13-.58,11.36,17.42,21.61,31,16C55.48,34.94,62.53,24.88,58.65,16.22Z"/><path id="Stroke-271" class="cls-20" d="M58.21,16.71C54.36,8,44.71,4.89,35.48,10.09c-12.74,7.18-19.06,1.67-19.42,13.38-.33,11,16.85,20.73,29.92,15.4C55.17,35.12,62,25.25,58.21,16.71Z"/><path id="Stroke-273" class="cls-21" d="M57.77,17.2C54,8.62,44.52,5.41,35.47,10.38,23.21,17.11,17.1,12.85,17,24.15,16.92,34.84,33.28,44,45.84,39,54.87,35.31,61.41,25.62,57.77,17.2Z"/><path id="Stroke-275" class="cls-22" d="M57.32,17.28c-3.6-8.5-13-11.83-21.85-7.06C23.68,16.54,17.78,13.51,18,24.49,18.11,34.9,33.65,43.6,45.7,38.77,54.56,35.22,60.85,25.65,57.32,17.28Z"/><path id="Stroke-277" class="cls-23" d="M56.64,17.94c-3.48-8.31-12.7-11.69-21.41-7.2-11.3,5.83-17,4-16.55,14.55.41,10,15.12,18.09,26.65,13.57C54,35.44,60.06,26.13,56.64,17.94Z"/><path id="Stroke-279" class="cls-24" d="M56.2,18.26c-3.36-8.24-12.43-11.73-21-7.44C24.43,16.25,19,15.7,19.66,25.86c.67,9.73,14.53,17.35,25.54,13.06C53.72,35.6,59.5,26.4,56.2,18.26Z"/><path id="Stroke-281" class="cls-25" d="M55.76,18.76c-3.23-8.11-12.15-11.68-20.5-7.64C25,16.11,19.7,16.8,20.66,26.55,21.58,35.93,34.59,43,45.07,39,53.43,35.79,58.94,26.78,55.76,18.76Z"/><path id="Stroke-283" class="cls-26" d="M55.31,19.26c-3.09-8-11.85-11.62-20-7.83C25.48,16,20.46,17.9,21.67,27.24,22.84,36.28,35,42.82,45,39.06,53.13,36,58.37,27.16,55.31,19.26Z"/><path id="Stroke-285" class="cls-27" d="M54.87,23.06a14.44,14.44,0,0,0-19.68-8C25.82,19.16,21,22.3,22.46,31.23c1.44,8.69,12.83,14.7,22.3,11.21C52.81,39.47,57.82,30.84,54.87,23.06Z"/><path id="Stroke-287" class="cls-28" d="M54.19,23.4A14.25,14.25,0,0,0,35,15.13c-8.85,3.72-13.46,8.11-11.73,16.69C25,40.23,35.48,45.76,44.42,42.5,52.28,39.63,57,31.12,54.19,23.4Z"/><path id="Stroke-289" class="cls-29" d="M53.75,21.7a14.17,14.17,0,0,0-18.69-8.39c-8.33,3.28-12.72,8.83-10.74,16.93s11.6,13,20,10C52,37.5,56.46,29.23,53.75,21.7Z"/><path id="Stroke-291" class="cls-30" d="M53.3,24.4A14.15,14.15,0,0,0,35,15.77c-7.88,2.88-12.06,9.67-9.82,17.43s11.07,12.17,19,9.44A14.44,14.44,0,0,0,53.3,24.4Z"/><path id="Stroke-293" class="cls-31" d="M52.62,24.67a14,14,0,1,0-8.82,17.8A14,14,0,0,0,52.62,24.67Z"/></g></g></g></g><path class="cls-32" d="M10.86,20.93A1.44,1.44,0,0,1,10.52,22a1.22,1.22,0,0,1,.34,1c0,1.09-.63,1.62-2,1.61H7.34l.4-.48,0-4.19-.23-.5H8.88C10.25,19.46,10.91,20,10.86,20.93ZM9.2,22.53c-.12,0-.24,0-.37,0v1.05c.6,0,.92-.19.95-.55S9.58,22.59,9.2,22.53Zm0-1c.35-.08.53-.25.56-.52s-.33-.55-.94-.55v1C9,21.5,9.1,21.5,9.22,21.52Z"/><path class="cls-32" d="M12.31,19.92v4.2l.23.49H10.82l.4-.48V20l-.23-.5h1.71Z"/><path class="cls-32" d="M13.65,20.45H13l-.28.24,0-1.29H15.6l0,1.29-.37-.24h-.53l0,3.67.24.49-1.72.74.43-.5Z"/><path class="cls-32" d="M16.63,24.23l.34.41-1.83,0,.24-.49L17,19.08l1.62,5.05.24.49-1.83,0,.34-.41Zm.58-.92L17,22.5l-.21.81Z"/><path class="cls-32" d="M21.3,19.44l0,1.21-.4-.25a1,1,0,0,0-1.11,1.09l0,1.68c0,.34.4.54,1.16.59l.3-.6v1.66l-.41,0c-1.47-.11-2.19-.69-2.15-1.76V21.32c-.07-1.24.61-1.88,2-1.9Z"/><path class="cls-32" d="M25,21.18V22.9q0,1.86-1.62,1.86A1.51,1.51,0,0,1,21.69,23V21.32c0-1.24.52-1.88,1.55-1.9A1.56,1.56,0,0,1,25,21.18Zm-1.66-.78q-.55,0-.57.87l0,1.9c0,.39.2.59.57.59s.53-.27.54-.71l0-1.86C23.86,20.68,23.68,20.42,23.33,20.4Z"/><path class="cls-32" d="M26.47,19.42c1.42,0,2.1.54,2,1.53a1.41,1.41,0,0,1-1.18,1.56L29,24.69l-1.78-.09.16-.36-.93-1.17v1.05l.24.49H25l.4-.48,0-4.19-.24-.5Zm0,2.17c.6,0,.91-.2.95-.57s-.33-.57-.94-.56Z"/><path class="cls-32" d="M30,24.23l.34.41-1.82,0,.23-.49,1.62-5.05L32,24.13l.23.49-1.82,0,.34-.41Zm.59-.92-.22-.81-.21.81Z"/><path class="cls-32" d="M35,19.45c1.14,0,1.68.66,1.62,1.87V23c0,1-.56,1.53-1.8,1.57H33.14l.4-.48,0-4.19-.24-.5Zm-.4,1v3.13c.6,0,.91-.18.92-.53l0-1.68A.85.85,0,0,0,34.63,20.46Z"/><path class="cls-32" d="M39.72,19.4l0,1.29-.37-.24H38.11v.95h1.36l-.23,1.29-.37-.24H38.1v1.11h1.32l.28-.24,0,1.3H36.61l.4-.48V19.93l-.23-.48Z"/><path class="cls-32" d="M39.75,24.62l.41-.48V20l-.23-.5h1.71l-.4.48v3.64l.88,0,.55-.71,0,1.79Z"/><path class="cls-32" d="M45.34,19.42c1.42,0,2.1.54,2,1.53s-.64,1.63-2,1.66v1.51l.24.49H43.86l.4-.48,0-4.19-.23-.5Zm0,2.17c.59,0,.91-.2.94-.57s-.33-.57-.94-.56Z"/><path class="cls-32" d="M48.41,24.23l.34.41-1.82,0,.23-.49,1.62-5.05,1.63,5.05.23.49-1.82,0,.34-.41Zm.58-.92-.21-.81-.21.81Z"/><path class="cls-32" d="M51.81,19.42c1.42,0,2.09.54,2,1.53a1.41,1.41,0,0,1-1.19,1.56l1.71,2.18-1.78-.09.16-.36-.93-1.17v1.05l.23.49H50.33l.4-.48V20l-.23-.5Zm0,2.17c.59,0,.91-.2.94-.57s-.32-.57-.94-.56Z"/><path class="cls-32" d="M55.73,25,54.11,20l-.24-.5H55.7l-.4.48.43,1.66.43-1.66-.4-.48h1.83l-.24.5Z"/><path class="cls-32" d="M59.88,19.94l-.23-.5h1.71l-.4.48v3q0,1.86-1.62,1.86A1.52,1.52,0,0,1,57.65,23V20l-.23-.5h1.71l-.4.48,0,3.25c0,.39.2.59.57.59s.53-.27.54-.71Z"/><path class="cls-32" d="M61,24.62l.4-.48,0-4.19-.24-.5h1.72l-.4.48,0,3.64.88,0,.55-.71,0,1.79Z"/><path class="cls-32" d="M66.94,21.18V22.9q0,1.86-1.62,1.86A1.52,1.52,0,0,1,63.64,23V21.32c0-1.24.53-1.88,1.56-1.9A1.56,1.56,0,0,1,66.94,21.18Zm-1.66-.78q-.54,0-.57.87l0,1.9c0,.39.21.59.58.59s.52-.27.53-.71l0-1.86C65.81,20.68,65.63,20.42,65.28,20.4Z"/><path class="cls-32" d="M30.55,27.23h0a2.2,2.2,0,0,0-.36,0l-.34,0h-.48l-.15,0H27.62c-.29,0-.58,0-.87,0-.61,0-1.22,0-1.84,0h3.32l.79,0h.39l.07,0a3.31,3.31,0,0,1-.44,0H25.39s0,0,0,0a.14.14,0,0,0-.11,0h-.42a.08.08,0,0,0-.08.06s0,0,0,0-.1.26-.12.4a.36.36,0,0,1,0,.11l-.27.79-.15.42a.45.45,0,0,0-.06.12V29a.21.21,0,0,0,0,.11l0,0a.57.57,0,0,0,0,.14c0,.12-.1.24-.14.36l-.11.32-.07.15c0,.06,0,.08.06.08H24l.7,0,.68,0h.73l.62,0a1.11,1.11,0,0,1,.25.05.15.15,0,0,1,.07.05H27l-.15,0h-.18a1.32,1.32,0,0,0-.28,0H25.08l-.06,0,.39,0h1.2a1.09,1.09,0,0,1,.18,0,1.2,1.2,0,0,0,.19,0l.07.05s0,0,0,0h0l-.27,0-.28,0H24.61l-.59,0h-.26s0,0,0,0h.33l.48,0c.21,0,.42,0,.62,0h1.21l.43,0,.18,0h0s0,0-.05,0h-.08a1.84,1.84,0,0,1-.33,0h-.8a.14.14,0,0,0-.09,0H24l-.25,0c-.06,0-.09,0-.11.09s-.15.37-.22.57a3.59,3.59,0,0,0-.12.35l-.15.37-.18.5-.12.31s0,0,0,.06l0-.07c.05-.15.1-.29.16-.44s.19-.52.29-.78l.19-.51.13-.36s0,0,0,0v0l-1.46,3.93v0l0,0a.64.64,0,0,0,0,.07,1.31,1.31,0,0,1-.05.15.07.07,0,0,1-.08.06h0l-.08-.06s0-.05,0-.08l0-.13a.73.73,0,0,1,.07-.19A1.3,1.3,0,0,0,22.1,34c.07-.16.12-.33.18-.49s.13-.38.2-.56l.29-.79c0-.13.1-.27.14-.4l.15-.41c0-.07.05-.15.08-.22l.05-.15.21-.52a.43.43,0,0,0,0-.05s0-.05-.05-.05h0a.33.33,0,0,1-.14,0h-.48c-.16,0-.32,0-.5,0,0,0,.08,0,.11,0h.75l.1,0h.21s0,0,0,0-.32,0-.48,0l-.46,0h-.23a.61.61,0,0,0-.13,0s0,0,0-.05,0,0,0,0l.25-.05.54-.06.5,0h.08a.13.13,0,0,0,.07-.05v0c0-.11.09-.22.13-.33s0-.12.07-.17l.18-.46.09-.24c.06-.14.11-.27.16-.41s.16-.43.25-.64.13-.36.2-.53a.64.64,0,0,1,0-.07s0-.06,0-.06H24a1.53,1.53,0,0,1-.37,0,1.94,1.94,0,0,0-.34,0h-.5s0,0,0,0l.4,0c.15,0,.29,0,.44,0h1s0,0,0,0h-.88l-.45,0-.51,0-.41.05h0a.11.11,0,0,0-.08,0,.33.33,0,0,0-.21.07h0s0,0,0-.06,0,0,.06,0l.23-.08A5.28,5.28,0,0,1,23,27l.18,0,.3,0,.6,0h.6a.08.08,0,0,0,.08-.06.49.49,0,0,1,0-.11.43.43,0,0,1,0-.05s0,0,0,0a0,0,0,0,1,0,0,.77.77,0,0,0,0,.15s0,.06,0,.06h1.36L27,27h1.36l.5,0,.49,0h.46l.27,0,.34,0h0s.07,0,.07.06S30.56,27.21,30.55,27.23Zm-8.42,3.14h0Zm0,3.64a0,0,0,0,1,0,0h0S22.14,34,22.14,34Zm0,.24a.07.07,0,0,0,0,0A.07.07,0,0,1,22.16,34.25Zm0-.07a.11.11,0,0,1,0,.07A.08.08,0,0,1,22.19,34.18Zm1.26-4H23l-.28,0-.25,0h-.1l-.06,0h-.09s0,0,0,0h.44a.1.1,0,0,0,.07,0h.19v0a.92.92,0,0,0,.24,0l0,0a1.63,1.63,0,0,0,.31,0l0,0S23.42,30.19,23.45,30.17Zm-1.26,3.69,0,0A0,0,0,0,0,22.19,33.86Zm.06.15a.35.35,0,0,1-.06.17A.49.49,0,0,1,22.25,34Zm0-6.78h0Zm0,6.46a.07.07,0,0,0,0,.05S22.25,33.71,22.25,33.69Zm0,.31a.22.22,0,0,1,.05-.11A.27.27,0,0,1,22.25,34Zm0-.37h0S22.29,33.63,22.28,33.63Zm0-.1,0,0h0A.06.06,0,0,0,22.31,33.53Zm0,.36a1,1,0,0,1,.11-.29A1,1,0,0,1,22.3,33.89Zm.41-6.79a.08.08,0,0,0-.08,0l-.29,0a0,0,0,0,0,0,0Zm-.39.1h.08A.07.07,0,0,1,22.32,27.2Zm.06,6.16h0Zm0-.12a.13.13,0,0,1,0,0h0Zm0,.36,0,0s0,0,0,0Zm0-.05s0,0,0,0a0,0,0,0,1,0,0Zm0-.07s0,0,0,0Zm0,0a1.22,1.22,0,0,1,.1-.24A.64.64,0,0,1,22.46,33.43Zm0-6.24h0Zm0,5.72,0,.07A.11.11,0,0,0,22.54,32.91Zm0-.12a.21.21,0,0,0,0,.07S22.59,32.82,22.58,32.79Zm0,.4a.08.08,0,0,1,0-.07A.08.08,0,0,1,22.56,33.19Zm0-.07s0,0,0,0Zm0,0a.21.21,0,0,1,0-.12A.22.22,0,0,1,22.6,33.07Zm.09-5.89h-.08A.08.08,0,0,1,22.69,27.18Zm-.05,5.46a.13.13,0,0,0,0,0A.05.05,0,0,0,22.64,32.64Zm0,.31a.17.17,0,0,1,0-.12A.17.17,0,0,1,22.65,33Zm0-2.72h0Zm0,0h0Zm0,2.21h0l0,0S22.71,32.47,22.71,32.45Zm0,.21a.61.61,0,0,1,.05-.12.06.06,0,0,1,0,0l-.08.2a.08.08,0,0,1,0,0Zm0-.31a.07.07,0,0,0,0,.06S22.75,32.39,22.74,32.35Zm1-5.31-.17,0c-.17,0-.32,0-.49,0H23l-.2,0v0a.48.48,0,0,0,.12,0,.3.3,0,0,1,.12,0h.07a.47.47,0,0,1,.17,0h.51ZM22.89,32s0,0,0,.05S22.89,32,22.89,32Zm.05-.09s0,0,0,0a.05.05,0,0,0,0,0S22.94,31.88,22.94,31.86Zm0-.07s0,0,0,0S23,31.81,23,31.79Zm0-.12s0,0,0,.07,0,0,0,0,0,0,0,0l0,0h0A.06.06,0,0,0,23,31.67Zm.1-.26s0,0,0,0h0Zm.05-.13h0l0,0h0s0,0,0,0Zm0-.11,0,0S23.18,31.18,23.18,31.17Zm.13-.37s0,0,0-.06a.06.06,0,0,0,0,.06.11.11,0,0,0,0,.07h0S23.33,30.83,23.31,30.8Zm.15-.41h0s0,0,0,0v0Zm.43-.83s0,0,0,.05-.11.29-.17.43v0s0,0,0,0,.07-.19.1-.29A1.34,1.34,0,0,0,23.89,29.56ZM24.38,27l-.29,0h-.35A3.41,3.41,0,0,0,24.38,27Zm-.63,3.14a1,1,0,0,0,.38,0l-.14,0h.17c.16,0,.33,0,.5,0h0l-.61,0h-.32Zm.18-.72a.11.11,0,0,0,0,.07S23.92,29.47,23.93,29.44Zm.05-.12s0,.05,0,.07A.08.08,0,0,0,24,29.32Zm0-.1h0ZM24.66,27h0Zm-.14,3.15h.08A.08.08,0,0,1,24.52,30.14Zm2-3.15H24.87s0,0,0,0h.81a1.92,1.92,0,0,1,.24,0h.65Zm-.05,0a0,0,0,0,0,0,0h0Zm.05,3.1h0Zm.09-3.1h0ZM27,27a.82.82,0,0,0-.27,0A.82.82,0,0,0,27,27Zm.13,0h0Zm.21,0h-.09S27.33,27,27.37,27Zm.51,0a5,5,0,0,0-.55,0A2.41,2.41,0,0,0,27.88,27Zm1.1,0h-.62a1.56,1.56,0,0,0-.37,0h1Zm.34,0h-.09S29.29,27.09,29.32,27.07Zm1,.07-.06,0h-.85l0,0,.25,0v0H30a.05.05,0,0,0,.05,0h.13A.31.31,0,0,0,30.35,27.14Zm.14,0a.2.2,0,0,0-.13,0l0,0h.11Z"/><path class="cls-32" d="M27.15,31.16l-.12.1a.07.07,0,0,1-.05,0v0s0,0,0,0v0h0a0,0,0,0,0,0,0l0,0-.27.28s0,0,0,0h0a0,0,0,0,1,0,0s0,0,0,0h0a.12.12,0,0,0,0-.05s0-.05.07-.06,0,0,0,.05l-.32.34a2,2,0,0,1-.19.22,2.91,2.91,0,0,1-.31.3l-.09.07a.16.16,0,0,1-.16,0l0,0a.15.15,0,0,1-.06-.13.68.68,0,0,1,0-.14,3.47,3.47,0,0,1,.19-.57,1.72,1.72,0,0,1,.07-.21s0,0,0,0,0,0,0,0,0,0,0-.05v-.07s0,0,0,0h0a0,0,0,0,0,0,0h0l0,0h0l0,0h0a1.66,1.66,0,0,1-.51.44l-.15.06h-.1a.26.26,0,0,1-.16-.15.08.08,0,0,1,0-.07.29.29,0,0,1,0-.14l.07-.14a1.33,1.33,0,0,1,.27-.26.52.52,0,0,1,.36-.11l.12,0s0,0,.07,0,.1-.14.14-.21l0,0h0c.11-.11.19-.23.3-.33a.46.46,0,0,1,.07-.07.05.05,0,0,1,.08,0l0,0a.12.12,0,0,1,.05.15,1.86,1.86,0,0,1-.1.25.13.13,0,0,0,0,0l0,0a.09.09,0,0,1,0,.06v0a.13.13,0,0,1,0,.08v0l0,0v0l0,.05a.22.22,0,0,0-.05.12.18.18,0,0,0,0,.1s0,0,0,0h0a.31.31,0,0,0-.05.1.14.14,0,0,0,0,.07s0,0,0,0h0l0,.07a0,0,0,0,1,0,0,.05.05,0,0,0,0,.05l-.1.25a.29.29,0,0,0,0,.09.65.65,0,0,0-.08.26.17.17,0,0,0,0,.1h0s0,0,0,0l.06,0,.31-.33.28-.27.32-.31.3-.29,0,0s0,0,.08,0S27.17,31.13,27.15,31.16Zm-1.75.14.12-.15.05-.07s0,0,0,0h0a.45.45,0,0,0-.16,0l-.17.11a.09.09,0,0,1-.06,0s.05,0,.06-.07,0,0,0,0,0,0,0,0a.42.42,0,0,0-.17.18.07.07,0,0,0,0,.05.07.07,0,0,0,0-.05l.05,0a.12.12,0,0,1,.06-.06s0,0,0,.06a.43.43,0,0,0-.13.17.4.4,0,0,0-.07.19s0,0,0,0l.12-.07A2.08,2.08,0,0,0,25.4,31.3Zm-.45.13s0,0,0,0S25,31.42,25,31.43Zm0-.16h0s0,0,0,0Zm0,0h0Zm0,0h0v0A0,0,0,0,1,25,31.23Zm0,0h0A0,0,0,0,1,25,31.21Zm0,0,0,0a.18.18,0,0,0,.08-.09,0,0,0,0,0,0,0l0,0s0,0,0,0h0a.14.14,0,0,0-.09.08s0,0,0,0h0Zm.33.24h0v0h0s0,0,0,0h0s.05,0,.05-.07h0a0,0,0,0,1,0,0h0a0,0,0,0,1,0,0h0l0,0h0s0,0,0,0h0v0h0v0s0,0,0,0h0s0,0,0,0h0v0a.09.09,0,0,0,0,.06h0a.1.1,0,0,0,0,.05,0,0,0,0,1,0,0l-.08.1a1.85,1.85,0,0,0-.14.14l.06,0A0,0,0,0,1,25.36,31.47Zm0,.12a.05.05,0,0,0,0,0Zm.37-.4s0,0,0,0h0l0,0a3.58,3.58,0,0,1-.26.29l0,0h0s0,0,0,0l0,0h0l.06-.05.25-.29Zm-.34.24v0h0Zm.11-.11h0Zm0-.05v0h0s0,0,0,0Zm0,0h0Zm.11-.14h0a0,0,0,0,1,0,0S25.64,31.09,25.64,31.12Zm0,.2h0Zm.18-.31a1.25,1.25,0,0,0,.09-.12h0l0,0h0l0,0v0h0l0,0,0,0h0l0,0h0s0,0,0,0A.16.16,0,0,0,25.86,31Zm-.06.92a.09.09,0,0,0,0-.07S25.81,31.9,25.8,31.93Zm.18-1-.15.2a.2.2,0,0,0,0,.11.17.17,0,0,0,0,.07s0,0,0,0l0,0S26,30.92,26,30.9Zm-.08.77h0Zm0-.78v0Zm0-.19a.05.05,0,0,0,0,0v0l0,0s0,0,0,0h0s0,0,0,0a0,0,0,0,0,0,0v0h0v0h0a0,0,0,0,0,0,0,.17.17,0,0,0-.06.06.07.07,0,0,0,0,.06,0,0,0,0,0,0,0Zm.08.64a.09.09,0,0,0,0,.06A.33.33,0,0,0,26,31.34Zm0-.74h0Zm0,.78Zm.05-.2s0,0,0,0Zm0-.67s0,0,0,0h0v0Zm0,.55h0Zm.16.79a.77.77,0,0,0-.15.16s0,0,0,0a1.21,1.21,0,0,0,.16-.16Zm0,.14a0,0,0,0,1,0,0,.49.49,0,0,0-.12.13.37.37,0,0,0,.12-.13S26.29,32,26.29,32Zm-.09-1s0,0,0,.06A.14.14,0,0,0,26.2,31Zm0,0v0h0Zm.07,1h0S26.31,32,26.31,32Zm0,0h0Zm.24-.25h0v0s0,0,0,0h0l-.16.17v0a.69.69,0,0,0,.16-.18h0v0l0,0Zm-.16.06Zm0,0a.18.18,0,0,0,.1-.09A.28.28,0,0,0,26.42,31.75Zm.25-.25a.68.68,0,0,0-.12.12A.23.23,0,0,0,26.67,31.5Zm0,.06,0,0h0Zm0,0a.68.68,0,0,1,.12-.12A.28.28,0,0,1,26.74,31.54Zm.15-.24a.3.3,0,0,0-.13.12l.06,0Zm0,.11a0,0,0,0,1,0,0Zm.06-.07h0a.09.09,0,0,1-.07.06Zm0,0h0S26.94,31.33,26.94,31.34Zm0,0Zm0,0h0Zm.1-.18-.07.06A.13.13,0,0,0,27.07,31.12Z"/><path class="cls-32" d="M29.93,25.7c0,.1,0,.21-.07.32l0,.11c0,.06,0,.11,0,.17l-.06.17c0,.07,0,.14-.07.21l-.07.18-.06.14-.07.18-.09.21-.06.14L29.1,28c0,.06-.06.11-.09.18l-.08.16c-.06.11-.11.23-.18.35l-.2.39-.16.29-.1.18-.09.15-.1.16a.35.35,0,0,1-.05.08A.53.53,0,0,1,28,30l-.09.17a1.51,1.51,0,0,0-.12.2l-.12.19-.07.11-.05.1-.07.09a.3.3,0,0,1,0,.08l-.06.08,0,.07-.06.09-.08.12v0h0l0,0,0,0,0,0a2.5,2.5,0,0,1,.24-.22l.22-.13a.35.35,0,0,1,.17-.06h.12a.21.21,0,0,1,.15.07.42.42,0,0,1,.11.18.37.37,0,0,1,0,.15.57.57,0,0,1,0,.18l-.07.16-.1.14,0,.05a.64.64,0,0,1-.27.2.2.2,0,0,1-.11,0h0a.41.41,0,0,1-.19,0,.36.36,0,0,1-.17-.11l-.1-.13v0s0,0,0,0l0,0-.11.12-.15.18a.88.88,0,0,0-.12.15l-.14.15-.06.07s-.06,0-.09,0a.1.1,0,0,1,0-.05l0,0,0-.08a.08.08,0,0,1,0-.08l.05-.09s0,0,0-.06l0,0,0,0,0-.07,0,0,.07-.11.07-.11h0a.22.22,0,0,0,.07-.09,0,0,0,0,1,0,0l0,0a0,0,0,0,1,0,0h0l.05-.08a.56.56,0,0,0,.05-.08l.07-.11s0,0,0,0a1.48,1.48,0,0,1,.08-.13s0,0,0,0a.22.22,0,0,0,.07-.09s0,0,0,0h0v0a0,0,0,0,0,0,0h0v0l0,0,0-.07a.24.24,0,0,1,.06-.08.36.36,0,0,0,.07-.1h0l0,0h0s0-.06.06-.07a.14.14,0,0,0,.05-.08l0,0s0,0,0,0h0l0,0,0-.07s0,0,0,0l0-.06s0,0,0,0l0-.06s0,0,0-.05l0,0,.06-.1.07-.1h0a.43.43,0,0,0,0-.07l0,0,0-.05s0,0,0,0a.35.35,0,0,1,0-.08l0-.07,0,0h0l0,0a.09.09,0,0,0,0-.06l0,0,0-.06a0,0,0,0,1,0,0l0,0s0,0,0,0,0,0,0,0,0,0,0,0l0-.07,0,0a.16.16,0,0,1,0-.07l0,0h0s0,0,0,0l0-.05h0l.06-.11.05-.1a0,0,0,0,1,0,0l.06-.11a0,0,0,0,0,0,0l0,0,0,0a.08.08,0,0,1,0-.05s0,0,0,0a.05.05,0,0,1,0,0h0l0,0s0,0,0,0l0-.09a0,0,0,0,0,0,0,.1.1,0,0,1,0-.05v0l0-.05a0,0,0,0,1,0,0,.05.05,0,0,0,0-.05v0h0v0s0,0,0,0,0,0,0,0,0,0,0,0a1,1,0,0,1,0-.1l0,0,0,0v0s0,0,0,0l0-.1,0,0s0,0,0,0l.06-.13,0,0s0,0,0,0h0a1,1,0,0,0,0-.1l0,0v0s0,0,0,0,0,0,0-.05l0-.07,0-.07,0-.11a.08.08,0,0,1,0-.05v0a.21.21,0,0,0,0-.07v0l0-.05a.11.11,0,0,1,0-.05.17.17,0,0,0,0-.05l0-.09v0s0,0,0-.07,0,0,0,0,0-.08.05-.13a.11.11,0,0,0,0-.05l0-.11a.11.11,0,0,0,0-.08s0,0,0,0,0,0,0,0a.32.32,0,0,0,0-.09,0,0,0,0,1,0,0,.34.34,0,0,0,0-.1h0v-.06a.69.69,0,0,1,0-.13.25.25,0,0,1,0-.07h0s0,0,0,0,0,0,.05,0l.05,0S29.94,25.66,29.93,25.7Zm-3,5.65-.05.06h0Zm.1-.17-.05.08h0A.19.19,0,0,0,27,31.18Zm.16.28,0,0,0,0,0,0,0,0,0,0,.07-.06,0,0Zm0,.18h0Zm.05-.75,0,0s0,0,0,0S27.18,30.91,27.19,30.89Zm.08.76a.2.2,0,0,0,0,.11.18.18,0,0,0,.11.08.26.26,0,0,0,.15,0l.1,0,.18-.11a.21.21,0,0,1,.08-.06l0-.07a0,0,0,0,0,0,0l0,0h0l0-.05a.2.2,0,0,0,0-.08,0,0,0,0,0,0,0h0a.32.32,0,0,0,0-.09.55.55,0,0,0,0-.17v-.05s0,0-.05,0H28l-.14.06a2,2,0,0,0-.25.18l-.14.13-.17.16,0,0S27.27,31.62,27.27,31.65Zm0-.16h0Zm0-.15,0,0,.13-.12,0-.05,0,0-.1.09-.06.07S27.29,31.33,27.29,31.34Zm.18,0h0l0,0v0l0,0h0a0,0,0,0,0,0,0s0,0,0,0,0,0,.05-.06,0,0,0,0l0,0s0,0,0,0,.05,0,.06-.06A.1.1,0,0,0,27.47,31.3Zm-.07-.66a.07.07,0,0,0,0,.06A.11.11,0,0,0,27.4,30.64Zm0,.73h0Zm0-.86,0,0S27.41,30.55,27.42,30.51Zm.13-.11h0l-.08.12s0,0,0,0A.65.65,0,0,0,27.55,30.4Zm-.06,0a.06.06,0,0,0,0-.05S27.49,30.38,27.49,30.41Zm.09-.16,0,.05h0Zm2.09-4.17v0l-.09.27c0,.11-.07.22-.12.33l-.09.24c-.05.09-.08.18-.13.28a3,3,0,0,1-.19.41l-.12.28c-.05.1-.11.21-.16.32s-.08.16-.13.24-.17.33-.25.49l-.17.29-.16.29-.12.21,0,.05a.56.56,0,0,0,0,.08l-.08.13a.41.41,0,0,1-.07.11,1.18,1.18,0,0,1-.11.19v0l0,0a.56.56,0,0,1,.05-.08l.08-.14.05-.08a.25.25,0,0,0,0-.07l.08-.12a.47.47,0,0,1,.07-.12l.09-.15a1.09,1.09,0,0,1,.08-.15,1,1,0,0,1,.08-.14,1.09,1.09,0,0,0,.08-.15l.18-.32c.11-.22.23-.43.33-.65A3.36,3.36,0,0,0,29,27.8l.24-.51.09-.22a1.88,1.88,0,0,0,.12-.3c0-.09.08-.19.11-.28l.05-.11.07-.25Zm-2,4.09s0,0,0,0A.08.08,0,0,0,27.63,30.17Zm.24-.09s0,0,0,0S27.87,30.09,27.87,30.08ZM28,31.57l0,0,0,0,0,0,0,0,0,0,0,0A.53.53,0,0,0,28,31.57ZM27.92,30h0Zm0,0s0,0,0,0Zm0-.34s0,0,0,0S28,29.59,28,29.61ZM28,31.74h0l0,0v0h0l0,0S28,31.74,28,31.74Zm0-1.9a.16.16,0,0,0,0,.06S28,29.86,28,29.84Zm0,0h0Zm0-.36Zm0,.25,0,0s0,0,0,0A.21.21,0,0,0,28.07,29.74Zm0,1.94s0,0,0,0Zm0-2h0s0,0,0,0Zm0,0h0s0,0,0,0S28.12,29.66,28.12,29.65Zm.06-.11v0l0,0a0,0,0,0,0,0,0A.08.08,0,0,0,28.18,29.54Zm0,0h0Zm.12-.19,0,0a.16.16,0,0,1,0,.06v0h0l0,0a.21.21,0,0,0,0-.06S28.29,29.37,28.28,29.37Zm0-.24Zm.1.15s0,0,0,0Zm0-.08s0,0,0,0Zm.1-.15h0l0,0a.09.09,0,0,1,0,.06s0,0,0,0,0,0,0,0v0s0,0,0,0,.07-.12.1-.19Zm-.06.07s0,0,0,0S28.4,29.13,28.4,29.12Zm.05-.08s0,0,0,0S28.45,29.05,28.45,29Zm0-.07,0,0S28.48,29,28.48,29Zm0,0,0,0h0A.05.05,0,0,0,28.51,29Zm0-.07a.05.05,0,0,0,0,0S28.55,28.91,28.55,28.89Zm0-.07s0,0,0,0S28.56,28.83,28.56,28.82Zm.16-.25a0,0,0,0,0,0,0s0,0,0,0l-.05.09,0,0s0,0,0,0l0,0v0s0,0,0-.05,0,0,0,0l.08-.14,0-.07Zm-.12.19s0,0,0,0Zm0-.06h0s0,0,0,0A0,0,0,0,0,28.63,28.7Zm0-.07v0S28.66,28.64,28.66,28.63Zm0-.06Zm0-.05a0,0,0,0,0,0,0h0Zm.09-.14,0,0a.06.06,0,0,1,0,0s0,0,0,.07,0,0,0,0A.59.59,0,0,0,28.81,28.38Zm-.06.08h0Zm0-.07h0Zm0-.08s0,0,0,0S28.82,28.33,28.82,28.31Zm.85-1.89,0,0s0,0,0,0a1.34,1.34,0,0,1-.07.18v0a.43.43,0,0,0-.05.13s0,0,0,.06,0,0,0,0l0,.06a.08.08,0,0,0,0,0l0,.05a.64.64,0,0,0,0,.07l0,0,0,0,0,.05,0,0h0s0,0,0,0h0s0,.05,0,.08,0,0,0,0a.25.25,0,0,0,0,.09h0v0h0a0,0,0,0,1,0,0l0,.08v0s0,0,0,0l-.06.12s0,0,0,0l0,.08,0,.08a.36.36,0,0,1,0,.09l0,0a.75.75,0,0,1-.06.13l0,0,0,.09a.25.25,0,0,1,0,.07l0,.08h0l.05-.12c.07-.12.13-.25.2-.39l.17-.38a1.12,1.12,0,0,0,.1-.22l.11-.27c.05-.12.1-.24.14-.36l.06-.17Zm-.82,1.86h0a0,0,0,0,0,0,0h0Zm0-.11a0,0,0,0,1,0,0h0A0,0,0,0,1,28.9,28.17Zm0-.08,0,0s0,0,0-.05,0,0,0,0a.45.45,0,0,0-.06.14S28.94,28.1,28.94,28.09Zm.07-.15s0,0,0,0S29,28,29,27.94Zm0,0s0,0,0,0h0Zm0-.07,0,0S29.06,27.85,29.06,27.84Zm0,0Zm0-.05Zm0-.1h0Zm0,0v0S29.17,27.61,29.16,27.6Zm0,0a0,0,0,0,1,0,0h0s0,0,0,0h0Zm0-.09s0,0,0,0Z"/><path class="cls-32" d="M30.42,31.07s0,0,0,0h0c-.05,0-.09-.07-.13,0l-.11,0-.29.14a.57.57,0,0,0-.13.08l-.07,0s0,0,0,0a.18.18,0,0,1-.07.05v0h0l-.06,0h0v0s0,0,0,0h0a.05.05,0,0,0,0,0l0,0s0,0,0,0h0l0,0h0v0h0v0a.1.1,0,0,0-.06.05v0a.11.11,0,0,0-.07.06h0l0,0s0,0,0,0l0,0h0v0a.29.29,0,0,0-.11.11h0l-.05.06a0,0,0,0,0,0,0,.13.13,0,0,0,0,.07.49.49,0,0,0-.14.18v0s0,0,0,0h0s0,0,0,.05H28.5a.17.17,0,0,1-.11-.09l0,0a.08.08,0,0,1,0-.1c.06-.17.1-.34.16-.52s.11-.29.15-.45,0-.13.07-.2l0,0s0,0,0,0a.14.14,0,0,1,.07.08.38.38,0,0,1,0,.15,2.57,2.57,0,0,0-.08.38s0,0,0,0a.06.06,0,0,0,0,0,0,0,0,0,0,0,0l.07-.06a2.51,2.51,0,0,1,.32-.25l.27-.16.38-.2a.84.84,0,0,1,.27-.08.27.27,0,0,1,.24.08l.1.12A0,0,0,0,1,30.42,31.07Zm-1.79,1.22h0ZM30.09,31a.54.54,0,0,0-.21.08,4.25,4.25,0,0,0-.67.43c-.21.18-.36.4-.56.6a.09.09,0,0,0,0,.05h0a.39.39,0,0,0,.08-.1,3.9,3.9,0,0,1,.57-.58A3,3,0,0,1,30,31Zm-1.46,1.26h0v0Zm0,0v0h0Zm0,0h0Zm0,0h0Zm0,0h0l0,0Zm0,0h0Zm0,0h0Zm0,0a0,0,0,0,0,0,0l0,0v0Zm0,0v0h0Zm.06-.44s0,0,0,0Zm0,.35,0,0Zm.07-.08h0s0,0,0,0S28.89,32,28.89,32Zm0,0h0v0h0l0,0a0,0,0,0,0,0,0,0,0,0,0,0,0,0S28.92,31.93,28.92,31.94Zm0-.34a0,0,0,0,0,0,0Zm.05.29s0,0,0,0S29,31.88,29,31.89Zm0-.34h0v0Zm0,.31h0a0,0,0,0,0,0,0Zm0,0h0v0Zm0,0h0Zm0-.31h0a.05.05,0,0,0,0,0h0s0,0,0,0h0s0,0,0,0h0v0l0,0h0l0,0s0,0,0,0a0,0,0,0,1,0,0,0,0,0,0,0,0,0h0l0,0h.06s0,0,0,0h0v0l0,0s0,0,0,0h0l.07-.05v0l0,0s0,0,0,0h0s0,0,0,0,0,0,0,0,0,0,0,0h0l0,0v0s.06,0,.07-.05h0l0,0h0l.05,0h0l0,0v0h0s.05,0,.07,0v0h0a.07.07,0,0,0-.07,0h0a1.62,1.62,0,0,0-.32.17.57.57,0,0,0-.13.08,3583582170213.26,3583582170213.26,0,0,1-.14.1l-.05,0a0,0,0,0,0,0,0,0,0,0,0,0,0,0s0,0-.06,0Zm0,.29h0s0,0,0,0Zm0,0,0,0v0Zm0,0h0Zm0,0h0v0Zm.05,0,0,0v0Zm0,0h0Zm0,0h0a0,0,0,0,0,0,0A0,0,0,0,0,29.15,31.67Zm.05,0h0Zm0,0v0A0,0,0,0,0,29.2,31.66Zm0,0h0v0Zm0,0h0l0,0h0Zm0,0h0Zm0-.27v0h0Zm0,.24h0a0,0,0,0,1,0,0Zm0,0h0l0,0Zm0,0,0,0h0Zm0-.27v0h0Zm0,.25a0,0,0,0,1,0,0h0Zm.06-.27h0Zm0,0v0h0Zm0,.2v0Zm0,0h0Zm.08-.29a0,0,0,0,1,0,0h0Zm.42-.24s.05,0,0,0A.05.05,0,0,0,29.91,31Z"/><path class="cls-32" d="M32,31a.09.09,0,0,1,0,.05s0,0,0,0l-.32.25-.43.34-.73.55a1.2,1.2,0,0,1-.24.15.28.28,0,0,1-.11,0c-.05,0-.09,0-.12,0l0,0a.15.15,0,0,1-.07-.17A.72.72,0,0,1,30,31.9l.06-.12a3.6,3.6,0,0,1,.2-.39l.24-.4c.09-.13.17-.26.27-.39s0,0,.06,0,.08.06.05.13a2.4,2.4,0,0,1-.11.23,1.09,1.09,0,0,0-.08.15l0,0h0s0,0,0,0a.34.34,0,0,0-.06.06,1.09,1.09,0,0,1-.08.15s0,0,0,.06a0,0,0,0,1,0,0h0a.21.21,0,0,0-.07.12.18.18,0,0,0,0,.1.12.12,0,0,0-.05.09.33.33,0,0,0-.07.13s0,0,0,0a2.72,2.72,0,0,0-.11.25v.07s0,0,0,0l0,0,.12-.07.17-.12.4-.3.29-.21.45-.33.26-.19A.06.06,0,0,1,32,31Zm-1.8.91Zm0-.07s0,0,0,0a0,0,0,0,0,0,0h0a.06.06,0,0,1,0,0l0,0Zm.07-.13h0Zm.07-.13v0Zm.72-1.33s0-.06,0-.09a.24.24,0,0,1,0-.09,2,2,0,0,1,.23-.3l.07-.06a0,0,0,0,1,.07,0l.06,0,0,.07s-.05,0-.06.05,0,0,0,.05a.07.07,0,0,1,0-.05.12.12,0,0,1,.05-.05l.07,0,0,0a.38.38,0,0,0-.14.14.76.76,0,0,0-.12.19.48.48,0,0,1-.09.11A.08.08,0,0,1,31.13,30.25Zm.3-.47h0a0,0,0,0,0,0,0h0Z"/><path class="cls-32" d="M33.63,31.3s0,0,0,0l-.08.05-.43.27-.48.3c-.1.06-.19.13-.29.18a2.64,2.64,0,0,1-.46.27,1.17,1.17,0,0,1-.2.06h-.12l-.07,0a.51.51,0,0,1-.19-.17.56.56,0,0,1,0-.22,1.48,1.48,0,0,1,.12-.47l.16-.3c.09-.11.16-.24.26-.34L32,30.8l.08,0a.2.2,0,0,1,.2,0,.63.63,0,0,1,.12.11.28.28,0,0,1,.06.18.72.72,0,0,1,0,.25l0,.06s0,0-.06,0a.08.08,0,0,1,0-.05.09.09,0,0,1,0-.05,1.62,1.62,0,0,1,0-.22s0-.08,0-.12l0,0s0,0-.05,0l-.11.05s0,0,0,0a2,2,0,0,0-.24.27s0,0,0,0v0l0,0a.86.86,0,0,0-.11.19s0,0,0,.06h0l0,0a.06.06,0,0,0,0,0l0,0h0a.05.05,0,0,1,0,0l0,0a.06.06,0,0,0,0,.06s0,0,0,0a.06.06,0,0,1,0,.06.9.9,0,0,0,0,.23.1.1,0,0,0,0,.07h0l.14-.06c.12-.07.24-.13.36-.21l.26-.15.29-.18.06,0,.53-.31.2-.11,0,0a.11.11,0,0,1,.1,0l.06,0,0,0Zm-2,.36v0s0,0,0,0Zm0-.21,0,0Zm0,.09h0Zm.05-.19h0Zm0-.07,0,0,0,0a1.67,1.67,0,0,1,.28-.31s0,0,0,0h0l0,0A.13.13,0,0,0,32,31,1.09,1.09,0,0,0,31.78,31.28Zm0,.1h0l0,0Zm0,0v0h0Zm0-.34.08,0s0,0,0,0h0l0,0s0,0,0,0l0,0c-.06,0-.06,0-.11.09l0,0Zm.86.81s0,0-.06,0S32.67,31.88,32.68,31.85Zm.15-.09,0,0A.05.05,0,0,0,32.83,31.76Zm.09-.05h0Zm.11-.08s0,0,0,0h0Zm.2-.12,0,0Z"/><path class="cls-32" d="M35.13,31s0,0,0,.05v0l-.32.25-.43.34-.73.55a1.5,1.5,0,0,1-.23.15.43.43,0,0,1-.12,0c-.05,0-.09,0-.12,0l0,0a.16.16,0,0,1-.07-.17,1.43,1.43,0,0,1,.07-.28.27.27,0,0,0,.06-.12,3.72,3.72,0,0,1,.21-.39c.07-.14.15-.27.23-.4l.28-.39a.06.06,0,0,1,.05,0c.07,0,.08.06,0,.13a2.4,2.4,0,0,1-.11.23,1.09,1.09,0,0,0-.08.15,0,0,0,0,0,0,0h0s0,0,0,0a.34.34,0,0,0-.06.06,1.09,1.09,0,0,1-.08.15s0,0,0,.06l0,0h0a.29.29,0,0,0-.07.12s0,.06,0,.1a.16.16,0,0,0,0,.09.22.22,0,0,0-.06.13s0,0,0,0a1.3,1.3,0,0,0-.1.25.17.17,0,0,0,0,.07s0,0,0,0l0,0,.12-.07.17-.12.4-.3.3-.21.44-.33L35,31a.08.08,0,0,1,.1,0Zm-1.81.91Zm0-.07a0,0,0,0,0,0,0s0,0,0,0h0s0,0,0,0,0,0,0,0Zm.07-.13h0Zm.07-.13v0Zm.72-1.33s0-.06,0-.09a.94.94,0,0,1,0-.09l.23-.3.07-.06a0,0,0,0,1,.07,0l.06,0,0,.07a.1.1,0,0,0-.06.05s0,0,0,.05a.07.07,0,0,1,0-.05.12.12,0,0,1,.05-.05l.07,0,0,0a.47.47,0,0,0-.14.14,1.22,1.22,0,0,0-.12.19,1,1,0,0,1-.08.11A.11.11,0,0,1,34.21,30.25Zm.3-.47h0s0,0,0,0h0Z"/><path class="cls-32" d="M36.73,31.21a.07.07,0,0,1,0,0h-.06a2.42,2.42,0,0,1-.5.16,1.8,1.8,0,0,1-.4,0,.41.41,0,0,1-.23-.06l0,0h0l0,.06a1.89,1.89,0,0,1-.11.25.4.4,0,0,1-.1.15,0,0,0,0,1,0,0,.54.54,0,0,1-.09.12,0,0,0,0,0,0,0h0s-.08.07-.1.12h0a.48.48,0,0,1-.26.09.29.29,0,0,1-.14-.08.34.34,0,0,1-.08-.36c0-.05,0-.11.07-.17a1.92,1.92,0,0,1,.27-.46c.05-.08.12-.15.17-.22l0,0a0,0,0,0,1,.05,0s0,0,0,.07l0,.1a2.5,2.5,0,0,0-.16.24,1.08,1.08,0,0,0-.11.18,1.93,1.93,0,0,0-.15.4.36.36,0,0,0,0,.11s0,0,0,0,0,0,.06,0a1.9,1.9,0,0,0,.34-.41,1.81,1.81,0,0,0,.18-.4l.06-.17c0-.06,0-.05.08,0a.37.37,0,0,1,.1.17.06.06,0,0,0,.07.06h.28a2.27,2.27,0,0,0,.7-.14h.05s.08,0,.08,0h0s0,0,0,.06,0,0,0,.05ZM34.81,32h0a0,0,0,0,0,0,0h0s0,0,0,0h0ZM35,32a.58.58,0,0,0-.12.1v0h0A.19.19,0,0,0,35,32Z"/><path class="cls-32" d="M48.42,33.8v0l-.06.07h0a.12.12,0,0,1-.08,0,.35.35,0,0,1,0-.08s0,0,0,0l-.2,0-.27,0-.73,0-.46,0-.64,0-.41,0-.25,0h-.1l-.41,0-.53,0-.49,0-.55.07L42.7,34l-.31,0-.3,0a.39.39,0,0,0-.15,0,.4.4,0,0,0-.15,0l-.35,0-.33.06-.36.06-.31.06c-.15,0-.3.06-.44.09l-.36.06-.32.06a3.35,3.35,0,0,1-.53.07,2.44,2.44,0,0,1-.38,0l-.27,0L38,34.56a1.14,1.14,0,0,1-.32-.18.67.67,0,0,1-.14-.15.92.92,0,0,1-.15-.43,1.51,1.51,0,0,1,0-.37,1.86,1.86,0,0,1,.07-.34c0-.14.09-.26.14-.4l.11-.21a3.7,3.7,0,0,1,.25-.43l.23-.33c.05-.06.12-.12.16-.18l0,0,.13-.14a1.36,1.36,0,0,1,.12-.12l0,0,.11-.1s0,0,0,0,.11-.09.16-.14a1.89,1.89,0,0,1,.27-.2h0c.12-.1.25-.18.38-.27l.09,0,.28-.17a1,1,0,0,1,.18-.08l.27-.13.1,0,.31-.1.26-.07.13,0s0,0,0,0h0s0,0,0,0l-.26-.14-.13-.08a3.29,3.29,0,0,1-.54-.38,1.84,1.84,0,0,1-.26-.29.92.92,0,0,1-.13-.24.88.88,0,0,1-.05-.39,1.32,1.32,0,0,1,.16-.52,1.67,1.67,0,0,1,.16-.24,3.22,3.22,0,0,1,.24-.28l.12-.12a4.15,4.15,0,0,1,.34-.24,1.59,1.59,0,0,1,.43-.16,1.18,1.18,0,0,1,.42,0,.69.69,0,0,1,.24.05l.09,0a1,1,0,0,1,.31.22,1.08,1.08,0,0,1,.27.43,1,1,0,0,1,.07.36,1,1,0,0,0,0,.17.51.51,0,0,1,0,.17,1,1,0,0,1,0,.14s0,0,0,0h0a.19.19,0,0,1,0-.15.09.09,0,0,0,0-.1v-.22a2.51,2.51,0,0,0,0-.27,1.66,1.66,0,0,0-.06-.21.61.61,0,0,0-.24-.31.83.83,0,0,0-.32-.14,1.24,1.24,0,0,0-.27,0,1.4,1.4,0,0,0-.45.1,1.65,1.65,0,0,0-.32.18.15.15,0,0,1-.07,0s0,0,0,0l0,0h0a.08.08,0,0,0-.05.05h0s0,0,0,0h0l0,0a2,2,0,0,0-.43.54,1.66,1.66,0,0,0-.12.31s0,0,0,0,0-.05,0-.07,0,0,0,0l0,.15a.57.57,0,0,0,0,.13s0,.1,0,.15a.52.52,0,0,0,0,.11,1,1,0,0,0,.08.18.56.56,0,0,0,.16.21,2.19,2.19,0,0,0,.22.2l.49.29.24.13a.66.66,0,0,0,.19.09l.16.1a.12.12,0,0,0,0,.05.19.19,0,0,1,0,.08.23.23,0,0,1-.16,0h0l-.32.06-.17.05a.6.6,0,0,0-.19.06.85.85,0,0,0-.17.06l-.08,0-.1.05-.11,0-.2.1-.2.1-.06,0a1.32,1.32,0,0,1-.2.12l-.14.1-.05,0,0,0-.24.19a.39.39,0,0,0-.14.12h0c-.05,0-.08.07-.12.1l-.12.11-.12.12-.25.27a2.76,2.76,0,0,0-.28.39,1,1,0,0,0-.14.22,1.74,1.74,0,0,0-.14.27h0a1.35,1.35,0,0,0-.14.3h0a.11.11,0,0,1,0,0l.07-.17h0a1.47,1.47,0,0,1-.06.14,1.83,1.83,0,0,0-.1.28,2.14,2.14,0,0,0-.08.44v.15h0v-.06s0-.09,0-.12,0,0,0,0v.09a1.87,1.87,0,0,0,0,.34s0,.06,0,.08l.06.12a.38.38,0,0,0,.09.12.65.65,0,0,0,.41.17l.49,0,.4,0,.45-.09.45-.08a.65.65,0,0,0,.2,0l.37-.07.33-.06H41l.42-.07.21,0L42,33.9l.41-.07.29,0,.28,0,.17,0,.43,0h.23l.3,0h.19l.21,0,.37,0,.4,0,.38,0,.56,0h1.13a5.09,5.09,0,0,1,.56,0l.24,0a.43.43,0,0,1,.23.14Zm-11,.17h0a1.64,1.64,0,0,1,0-.38,2.38,2.38,0,0,1,.12-.59c0-.07.05-.12.07-.19h0s0,.05,0,.08a2.4,2.4,0,0,0-.12.38,1.59,1.59,0,0,0,0,.53.77.77,0,0,0,0,.15s0,0,0,0,0,0,0,0h0S37.41,34,37.42,34Zm.09-.86s0,0,0,0l0-.05a.29.29,0,0,0,0-.09l0,0a.06.06,0,0,1,0,0,.08.08,0,0,0,0,0l0,0,0,0s0,0,0,0a0,0,0,0,0,0,0s0,0,0,0,0,0,0,0,0,0,0,0,0,0,0,.07l0,0a2.93,2.93,0,0,0-.07.41v.05a2,2,0,0,1,.06-.34A.8.8,0,0,0,37.51,33.11Zm0,.53h0v0h0Zm0-.1,0-.21a1.24,1.24,0,0,0,0-.16.26.26,0,0,0,0-.08.07.07,0,0,0,0-.05.09.09,0,0,0,0,.05h0a.1.1,0,0,0,0,.07l0,0c0,.08,0,.15,0,.22a.88.88,0,0,0,0,.17Zm.06.35s0,0,0,0S37.56,33.88,37.59,33.89Zm0-1.09h0s0,0,0-.07S37.56,32.77,37.58,32.8Zm0-.07s0,0,0,0S37.6,32.71,37.6,32.73Zm.07.5v0l-.05.21v0a.78.78,0,0,1,0-.26A0,0,0,0,0,37.67,33.23Zm-.05-.43Zm0-.17h0v0s0,0,0,0A.05.05,0,0,1,37.63,32.63Zm0,.08h0Zm0-.05v0Zm0,.57h0Zm0-.19,0,0s0,0,0,.08l0,.12v0A.88.88,0,0,1,37.72,33Zm0-.43s0,0,0,0Zm0-.09h0Zm0,.07h0v0Zm0,.27h0Zm0-.4s0,0,0-.05A.11.11,0,0,1,37.73,32.46Zm0,.08h0Zm0,.47h0v0Zm0-.61,0,0a.06.06,0,0,0,0,0s0,0,0,0,0,0,0-.07,0,0,0-.05l0,.05s0,0-.05,0Zm.09.33Zm0-.14,0,.07s0,0,0,0S37.89,32.63,37.89,32.59Zm0-.3s0,0,0,0v0h0v0S37.87,32.26,37.86,32.29Zm.07-.19h0A0,0,0,0,1,37.93,32.1Zm0,.41s0,0,0-.07S38,32.47,38,32.51Zm0-.39h0s0,0,0,0h0Zm0,0,.06-.09s.06-.05.06-.1l-.05.06A.21.21,0,0,1,38,32,.09.09,0,0,0,38,32.07ZM38,32h0Zm0,.33Zm.09-.45h0s0,0,0,0a0,0,0,0,0,0,0S38.16,31.83,38.16,31.84Zm.05-.05s0,0,0-.05A0,0,0,0,0,38.21,31.79Zm0,.24h0Zm0-.32h0Zm0-.05s0,0,0,0l0-.05S38.3,31.64,38.3,31.66Zm0,0,.07-.05.19-.21s0-.07.09-.08.06-.06.09-.09a.05.05,0,0,0,0,0,.31.31,0,0,0,.11-.08v0A.1.1,0,0,0,39,31s0,0,0-.05,0,0,0,.05h0l0,0s-.07.07-.11.1l-.1.08s0,0,0,.05a.07.07,0,0,0-.06,0,1.36,1.36,0,0,1-.12.12l-.15.16A.05.05,0,0,0,38.33,31.63Zm.74-.71h0l0,0h0Zm.1-.06s0,0,0,0S39.16,30.84,39.17,30.86Zm.08-.07h0S39.25,30.77,39.25,30.79Zm0,0a.05.05,0,0,0,0,0S39.28,30.75,39.28,30.77Zm.09-.06.05,0,.1-.06,0,0s0,0,0,0,0,0,0,0a.18.18,0,0,0-.12.09S39.39,30.68,39.37,30.71Zm.25-.15,0,0a0,0,0,0,0,0,0S39.61,30.53,39.62,30.56Zm.07-.06.09,0s0,0,0,0l-.06,0S39.69,30.48,39.69,30.5Zm.15-.09h0S39.85,30.41,39.84,30.41Zm0-2.21a1.16,1.16,0,0,1,.13-.37l0,0h0l.06-.12,0,0a.72.72,0,0,0-.12.21.48.48,0,0,0-.07.21s0,.07,0,.12l0,0A.43.43,0,0,1,39.88,28.2Zm0,2.19a0,0,0,0,0,0,0s0,0,0,0h0Zm0-2.31ZM40,28s0,0,0,0S40,28,40,28Zm0,2.35s0,0,0,0,0,0,0,0l.09,0a.09.09,0,0,0-.09,0h0Zm0-2.4a0,0,0,0,0,0,0A0,0,0,0,0,40,27.94Zm0-.05s0,0,0,0S40,27.9,40,27.89Zm0-.06s0,0,0,0l0-.05s0,0,0,0l0,0v0a0,0,0,0,0,0,0s0,0,0,0,0,0,0,0S40,27.84,40,27.83Zm0,.28A.1.1,0,0,0,40,28s0,0,0,0l0,0a.06.06,0,0,0,0,0,.06.06,0,0,0,0,0l0,0L40,28Zm0,.15Zm.16-.49a0,0,0,0,0,0,0s0,0,0,0,0,0,0,0,0,0,0,0v0s0,0,0,0a0,0,0,0,0,0,0s0,0,0,0h0v0h0Zm-.1-.11s0,0,0-.07S40.1,27.62,40.09,27.66Zm0,.48h0Zm0-.47,0,0A0,0,0,0,0,40.13,27.67Zm0,0s0,0,0,0S40.14,27.64,40.13,27.66Zm0-.08a.05.05,0,0,0,0,0S40.14,27.56,40.15,27.58Zm0,2.66h0s0,0,0,0h0s0,0,0,0H40.2Zm0-2.65,0,0S40.18,27.62,40.18,27.59Zm0-.12,0,.06a.06.06,0,0,0,0-.06s0,0,0,0S40.23,27.46,40.22,27.47Zm0,.2h0Zm0-.2s0,0,0,0h0Zm0,.15h0s0,0,0,0S40.28,27.62,40.27,27.62Zm0-.21h0Zm0-.07,0-.05S40.36,27.3,40.34,27.34Zm0,2.82h0A0,0,0,0,1,40.36,30.16Zm.1-2.92h0l0,0s0,0,0,0S40.48,27.24,40.46,27.24Zm.13-.1h0Zm0-.05h0Zm0,3h0ZM40.74,27h0Zm.08-.05h0l0,0s0,0,0,0h0Zm0,3Zm0-3.06,0,0h0S40.9,26.9,40.91,26.93Zm.06,0,0,0a.15.15,0,0,1,.07,0l0,0h0s0,0,0,0l0,0h0v0s0,0,0,0h0l-.1.05S41,26.89,41,26.9Zm.19,7.18h0Zm.1-7.31Z"/><path class="cls-32" d="M43.16,31.56a6.35,6.35,0,0,0-1,.59l0,0a.09.09,0,0,0,0,.1c0,.07,0,.14,0,.2a2.73,2.73,0,0,1,.06.49,2.08,2.08,0,0,1,0,.25,1.42,1.42,0,0,1,0,.2.09.09,0,0,0,0,.05.16.16,0,0,1,0,.09s0,0,0,0v0s0,.05,0,.06l0,0-.08.19a.2.2,0,0,0,0,.08h0l0,0h0l0,0h0l0,0a3,3,0,0,1-.9.9,1.1,1.1,0,0,1-.4.17.3.3,0,0,1-.21,0,.61.61,0,0,1-.14-.07.25.25,0,0,1-.14-.21.75.75,0,0,1,0-.33,2.74,2.74,0,0,1,.21-.54,3.92,3.92,0,0,1,.44-.7c.09-.13.2-.25.3-.37a3.73,3.73,0,0,1,.45-.44l.23-.21a.1.1,0,0,0,0-.1l0-.18-.12-.42a.65.65,0,0,1,0-.28.59.59,0,0,1,.13-.33,2,2,0,0,1,.24-.26,1.15,1.15,0,0,1,.45-.27l.11,0a.15.15,0,0,1,.09,0s0,0,0,.05l-.15.07c-.07.05-.14.08-.21.14a.15.15,0,0,1-.09.06s0,0,0,0h0l0,0,.11-.08s0,0,.07-.05l0,0h0a.18.18,0,0,0-.07,0l-.1.07,0,0s0,0,0,0l0,0s0,0,0,0,0,0,0,.06a.17.17,0,0,0,.06-.06h0a.09.09,0,0,1,0,.06l-.06.07v0a.19.19,0,0,0-.06.07v0l0,0h0a2,2,0,0,0-.09.22.45.45,0,0,0,0,.23,1.36,1.36,0,0,0,.06.29c0,.07,0,.14.07.21a.05.05,0,0,0,0,0s0,0,.07,0a.94.94,0,0,0,.12-.09,4.6,4.6,0,0,1,.44-.25l.69-.35C43.53,31.2,43.7,31.3,43.16,31.56Zm-1.38,2.18A1.74,1.74,0,0,0,42,33a5.07,5.07,0,0,0,0-.55s0,0,0,0,0,0,0,0a1,1,0,0,0-.15.13c-.1.1-.21.2-.3.31l0,0-.06.06h0a0,0,0,0,0,0,0h0l0,0a1.3,1.3,0,0,0-.15.18l-.06.07h0a.61.61,0,0,0-.12.16l0,0a.22.22,0,0,0-.05.08h0l0,0h0a.76.76,0,0,0-.12.19h0l0,0h0l0,0a1.39,1.39,0,0,0-.11.21.36.36,0,0,0,0,.09h0a.21.21,0,0,0,0,.11s0,0,0,.06a.69.69,0,0,0-.07.3.25.25,0,0,0,0,.08.37.37,0,0,0,0,.18.09.09,0,0,0,0,.07.06.06,0,0,0,.07,0l.21-.11.35-.25a3.24,3.24,0,0,0,.36-.38A2.77,2.77,0,0,0,41.78,33.74Zm-1.29.46h0A0,0,0,0,1,40.49,34.2Zm0-.11h0Zm0-.09a.15.15,0,0,0,.06-.1A.17.17,0,0,0,40.58,34Zm.06-.11,0,0A.05.05,0,0,0,40.64,33.89Zm0,0s0-.05.06-.07a2.45,2.45,0,0,1,.24-.38c.18-.23.37-.46.58-.68l.33-.32a0,0,0,0,0,0,0h0l0,0c-.16.14-.3.29-.45.45a5,5,0,0,0-.71.93A.79.79,0,0,1,40.66,33.84Zm.26-.6h0v0Zm0,0h0v0l0,0Zm0,0v0l0,0Zm0-.06h0v0Zm0,0h0v0h0v0l0,0h0a.08.08,0,0,1,0,0h0v0l0,0,0,.05Zm0,0a0,0,0,0,0,0,0l0,0Zm.07-.11h0l0,0v0h0a0,0,0,0,0,0,0v0A.15.15,0,0,0,41.11,33Zm.06-.06h0v0A0,0,0,0,0,41.17,33Zm0,0h0v0a0,0,0,0,1,0,0l0,0,0,0h0l0,0h0v0h0v0l0,0s0,0,0,0h0l0,0v0l0,0a0,0,0,0,0,0,0h0s0,0,0,0l0,0,0,0h0l0,0h0s0,0,0,0h0l0,0h0a.8.8,0,0,0,.13-.13l0,0h0v0h0s0,0,0,0h0s0,0,0,0h0v0h0l0,0h0v0h0v0l0,0h0l0,0h0l0,0a0,0,0,0,1,0,0l0,0h0l-.17.16s0,0,0,0l0,0a.43.43,0,0,0-.09.1v0a.12.12,0,0,0-.07.07h0v0h0a.1.1,0,0,0,0,0h0A.1.1,0,0,0,41.18,32.93Zm0,0v0h0Zm0,0h0l0,0v0h0a0,0,0,0,0,0,0Zm.14-.15v0h0v0Zm0,0v0h0Zm0,0h0Zm0-.06h0v0A0,0,0,0,0,41.48,32.62Zm.05,0s0,0,0,0h0Zm0,0h0Zm.2,1.44,0,0a0,0,0,0,0,0,0s0,0,0,0h0s0,0,0,0v0s0,0,0,0,0,0,0,0,0,0,0,0,0-.05,0-.08h0s0,0,0,0l0,0a.07.07,0,0,0,0,0l0,0-.1.17-.07.12,0,0s0,0,0,0S41.71,34,41.74,34Zm-.05-1.58h0Zm0,0h0s0,0,0,0S41.71,32.42,41.71,32.42Zm.34,1.29s0,0,0,.08a3,3,0,0,1-.24.38.16.16,0,0,0,0,.07l.05-.05a1.38,1.38,0,0,0,.19-.28A.88.88,0,0,0,42.05,33.71Zm-.31-1.33h0Zm0,0v0h0Zm0,1.65s0,0,0,0l0,0Zm0-1.66h0Zm.05,1.56s0,0,0,0h0Zm0,0h0l0,0Zm0,0a.07.07,0,0,1,0-.05v.05Zm0-1.59h0Zm0,0v0h0ZM42,33.91l0,0h0l0,0Zm0,0v0h0Zm0-.18h0S42.07,33.7,42.06,33.69Zm0-2.85s0,0,0,0h0Zm.05,1.22h0l0,0h0v0l0,0,0,0v0a.18.18,0,0,0-.07.05h0l0,0s0,0,0,0Zm.28-.11a.18.18,0,0,0-.07.05.15.15,0,0,0-.09.06.27.27,0,0,0-.12.09h0a.38.38,0,0,0,.12-.09.22.22,0,0,0,.09-.07A.12.12,0,0,0,42.41,32Zm-.28-1.33h0l0,0v0s0,0,0,0h0l0,0,.12-.08s0,0,0,0,0,0,0,0a.36.36,0,0,0-.12.08l0,0A.1.1,0,0,0,42.13,30.62ZM42.2,32h0Zm0-1.43a0,0,0,0,1,0,0h0v0Zm0,0h0Zm0,1.38h0v0h0a.05.05,0,0,1,0,0,.05.05,0,0,0,0,0Zm.09-.06,0,0S42.36,31.88,42.34,31.89Zm.14,0,0,0Zm.06-.05,0,0S42.53,31.88,42.54,31.86Zm.05,0a.05.05,0,0,0,0,0Z"/><path class="cls-32" d="M50.42,27.51a0,0,0,0,1-.05,0,1.25,1.25,0,0,0-.32-.08,3.11,3.11,0,0,0-.43,0q-.67,0-1.32,0h-.74l-.82,0-1,0h-.29a.14.14,0,0,0-.12.06l-.16.31h0l0,0h0s0,0,0,0,0,0,0,0,0,0,0,0,0,0,0,0a0,0,0,0,0,0,0l0,0,0,0a0,0,0,0,0,0,0,.05.05,0,0,1,0,0l0,0a.1.1,0,0,0,0,0l0,0s0,0,0,0,0,0,0,0a.38.38,0,0,0-.06.13s0,0,0,0a1,1,0,0,0-.08.18v0l0,0a0,0,0,0,1,0,0,.27.27,0,0,0-.06.12,0,0,0,0,0,0,.06s0,0,0,0h0s0,0,0,.05,0,0,0,0a.37.37,0,0,0-.05.11h0s0,0,0,0a.14.14,0,0,0,0,.09s0,0,0,0a.15.15,0,0,0,0,.07.12.12,0,0,0,0,.09l0,0a.66.66,0,0,0-.08.21,0,0,0,0,1,0,0h0l0,0s0,0,0,.05l0,0a.19.19,0,0,0,0,.08.05.05,0,0,0,0,0s0,0,0,.08,0,0,0,0,0,0,0,.05l0,0s0,0,0,0l0,.08a.07.07,0,0,0,0,.05s0,0,0,.05,0,0,0,0l0,0h0a.26.26,0,0,0,0,.1v.07h0s0,0,0,.06a0,0,0,0,1,0,0,.09.09,0,0,0,0,.05,0,0,0,0,0,0,0,.1.1,0,0,1,0,.09.19.19,0,0,0,0,.08,1.69,1.69,0,0,0-.1.27.24.24,0,0,0,0,.09s0,0,0,.08a.19.19,0,0,0,0,.07l0,.07a.23.23,0,0,0,0,.11v0s0,0,0,.06l0,.1a.83.83,0,0,0-.06.21s0,0,0,.07l-.05.21,0,0s0,0,0,0v.05a2.41,2.41,0,0,0-.08.25.36.36,0,0,0,0,.11h0l0,0h0a.16.16,0,0,0,0,.09.27.27,0,0,0,0,.12.08.08,0,0,0,0,0,.14.14,0,0,0,0,.06s0,0,0,0l0,.05h0s0,.1,0,.16h0a.27.27,0,0,0,0,.12.23.23,0,0,0,0,.11.21.21,0,0,0,0,.06l0,.13a.5.5,0,0,0,0,.12.78.78,0,0,1,0,.14s0,.06-.05.07h0s0,0-.06,0,0,0-.06,0-.05,0,0-.07.07-.27.1-.41l.15-.51a6.55,6.55,0,0,1,.19-.63c0-.07,0-.13,0-.2l.11-.33c0-.1.05-.2.08-.3s.08-.22.11-.33l.15-.44c0-.12.08-.24.12-.36s.14-.37.2-.56.1-.23.14-.34.08-.21.13-.31l.17-.38c.06-.16.15-.32.23-.49s.22-.46.34-.68l.12-.24c0-.07,0-.08,0-.08l-.41,0-.65,0-.27,0-.22,0-.58.05-.61.07-.43.06-.36,0-.34.05-.37.05-.45.07-.42,0a.65.65,0,0,1-.2,0,.13.13,0,0,1-.12-.07v0h0a.29.29,0,0,0,.16,0,2,2,0,0,0,.34-.05l.64-.1.36-.07.86-.14.43-.06.36,0,.36,0,.27,0,.43,0,.35,0,.5,0h.13l.36,0s.06,0,.07,0a.24.24,0,0,0,.06-.08l.13-.23a2.9,2.9,0,0,1,.19-.29c.06-.1.12-.21.19-.31l.17-.25.27-.37c.1-.14.2-.26.31-.39l.18-.21,0,0s0,0,0,0a.05.05,0,0,1,0,.06s0,0,0,.05l-.06.09-.32.46-.29.44a.25.25,0,0,1,0,.07v0a.24.24,0,0,0-.06.08.15.15,0,0,0-.05.07.53.53,0,0,0-.06.1.86.86,0,0,0-.1.16l-.08.13a.39.39,0,0,0-.06.11l0,0a.1.1,0,0,0,0,.07.2.2,0,0,0-.06.12l0,0s0,0,0,0h0s0,0,0,0h0a.07.07,0,0,0,.06,0h.88l1.26,0h1.43l.63,0a1.87,1.87,0,0,1,.4.07.42.42,0,0,1,.22.15,0,0,0,0,1,0,0A0,0,0,0,1,50.42,27.51Zm-7.6,6.08a.06.06,0,0,1,0,0h0Zm0,0a.08.08,0,0,1,0,0l0,0S42.85,33.58,42.85,33.57Zm0-.16a.09.09,0,0,0,0,.05.14.14,0,0,0,0,.06h0v-.06A.09.09,0,0,0,42.87,33.41Zm0,0a.08.08,0,0,0,0,0Zm2.26-5.62s0,0,0,0a.06.06,0,0,0,0,0s0,0,0,0,0,.05-.05.07c-.14.27-.27.54-.4.82s-.27.6-.39.91-.28.71-.4,1.08-.26.75-.38,1.13c-.19.57-.37,1.15-.54,1.73a1.05,1.05,0,0,0,0,.19s0,0,0,0a.3.3,0,0,0,0-.1c.09-.34.19-.66.29-1l.27-.83c.11-.36.23-.72.36-1.07s.24-.69.38-1,.23-.58.36-.87.15-.32.22-.48.15-.32.24-.48a.61.61,0,0,0,.05-.12l0,0a0,0,0,0,0,0,0S45.15,27.75,45.15,27.74Zm-2.26,5.61a.07.07,0,0,0,0-.05h0v-.06h0a.09.09,0,0,1,0-.05v-.06a.35.35,0,0,0,0,.11s0,0,0,.06A.09.09,0,0,0,42.89,33.35Zm.06-.23,0,0s0,0,0,0l0,0h0s0-.06,0-.09v-.06s0,0,0,.06A.62.62,0,0,0,43,33.12Zm.08-.26h0s0,0,0,0l0-.06a0,0,0,0,1,0,0s0,0,0,0a0,0,0,0,0,0,0,.43.43,0,0,1,0,0l0,0V32.5s0,0,0,0h0a.05.05,0,0,1,0,0h0a.06.06,0,0,1,0,0,0,0,0,0,1,0,0s0,0,0,0l0,0a0,0,0,0,0,0,0l0-.05s0,0,0,0l0,0s0,0,0,0a0,0,0,0,0,0,0,0,0,0,0,0,0-.05s0,0,0,0,0,0,0-.06h0s0,0,0-.05,0,0,0,0,0,0,0,0a.07.07,0,0,1,0,0h0v0l0,0s0,0,0,0a.09.09,0,0,1,0,0h0v0s0,0,0,0,0,0,0-.05h0a.11.11,0,0,1,0-.05v.05s0,0,0-.05a.06.06,0,0,0,0,0h0a.07.07,0,0,1,0-.05v0s0,0,0,0a.06.06,0,0,0,0,0h0a.43.43,0,0,1,0-.05v0a0,0,0,0,0,0,0s0,0,0-.05v.05h0s0,0,0-.06l0,0a.07.07,0,0,0,0-.06.88.88,0,0,0,0-.15.07.07,0,0,0,0-.05.05.05,0,0,0,0,0,.09.09,0,0,0,0-.05s0,0,0-.05a.07.07,0,0,0,0-.05,0,0,0,0,0,0,0,.09.09,0,0,0,0-.05.06.06,0,0,0,0-.05h0v0l0,0v.05s0,0,0-.05,0,0,0,0,0,0,0-.05,0-.05,0-.08l0,0h0a.08.08,0,0,0,0,0h0v0h0v0s0,0,0-.08a.06.06,0,0,0,0,0,.12.12,0,0,0,0-.08v-.05h0v0h0a1.67,1.67,0,0,0-.08.2s0,0,0,0a.07.07,0,0,0,0,0s0,0,0,0a1.59,1.59,0,0,0-.07.2l0,.05a.09.09,0,0,0,0,0,.13.13,0,0,0,0,.05l-.27.82a.11.11,0,0,0,0,.08.08.08,0,0,0,0,.09.8.8,0,0,0-.09.26.08.08,0,0,0,0,.05.82.82,0,0,0-.06.19.13.13,0,0,1,0,.06.66.66,0,0,0-.06.2s0,0,0,0a.43.43,0,0,0,0,.16.42.42,0,0,0,0,.16S43,32.84,43,32.86Zm.4-1.17h0A0,0,0,0,1,43.43,31.69Zm0-.19s0,0,0,0v0Zm0-.09,0,0v0Zm.08-.24Zm0,0h0s0,0,0,0S43.6,31.17,43.6,31.18Zm0-.2V31s0,0,0,0A0,0,0,0,1,43.65,31Zm0,0v0h0A.06.06,0,0,1,43.66,30.94Zm0-.05v.05h0Zm0-.05v.05h0A.07.07,0,0,1,43.69,30.84Zm0-.05v.05h0Zm0,.58h0Zm0-.62v0h0A.06.06,0,0,1,43.72,30.75Zm0-.05v.05h0Zm0,0v-.05h0v.05Zm.07-.17v0h0A0,0,0,0,1,43.81,30.53Zm0-.05v.05h0A.07.07,0,0,1,43.82,30.48Zm0-.05v.05h0Zm0,.49h0Zm0-.57v0h0v0Zm.06-.17v0h0Zm0,0h0Zm0-.08a.06.06,0,0,1,0-.05v.05Zm0-.1a.06.06,0,0,0,0,0A.06.06,0,0,0,44,30Zm0,.51h0ZM44,30a.1.1,0,0,0,0-.07l0,0a.09.09,0,0,0,0-.05.08.08,0,0,0,0,.08S44,29.93,44,30Zm0,.46h0S44,30.42,44,30.41Zm0-.61,0,0s0,0,0-.05l0,0a.06.06,0,0,0,0,0l0,0v-.05l0,0h0v0a.09.09,0,0,0,0,.07.14.14,0,0,0,0,.09s0,0,0,.07A.13.13,0,0,0,44.06,29.8Zm0,.05h0Zm.08.27h0Zm0-.64a.09.09,0,0,0,0-.07s0,0,0,0a.05.05,0,0,0,0,0A.21.21,0,0,0,44.18,29.48Zm0-.11,0,0s0,0,0,0A.09.09,0,0,0,44.23,29.37Zm0-.08a0,0,0,0,0,0,0Zm0,.51h0Zm0-.54h0l0,0v-.05h0v0h0v0h0v.05a.11.11,0,0,1,0-.05v0h0v-.07a.09.09,0,0,0,0,.07s0,0,0,0A.16.16,0,0,0,44.28,29.26Zm0,0v0a0,0,0,0,0,0,0Zm.06-.2v0h0Zm.05-.11,0,0Zm0,.48h0s0,0,0,0Zm0-.51v0A0,0,0,0,0,44.44,28.9Zm0,0h0S44.45,28.86,44.45,28.87Zm0-.08a0,0,0,0,1,0,0A0,0,0,0,0,44.49,28.79Zm0,0h0s0,0,0,0S44.5,28.75,44.5,28.76Zm.09.24h0Zm0,0v0Zm.1-.69v0Zm0,.37h0a0,0,0,0,0,0,0Zm.12-.27h0a0,0,0,0,0,0,0Zm.1-.16a0,0,0,0,0,0,0h0Zm.33-.77h0a.43.43,0,0,1,0,.07.66.66,0,0,0-.09.19l0,0A2.42,2.42,0,0,0,45.29,27.48Zm.22-.29v0h0Zm.05-.07v0h0Zm.21-.36h0A0,0,0,0,1,45.77,26.76Zm0-.12a0,0,0,0,0,0,0h0Z"/><path class="cls-32" d="M46.16,31.07s0,0,0,0h0S46,31,46,31l-.1,0-.29.14-.14.08-.07,0s0,0,0,0a.18.18,0,0,1-.07.05l0,0h0l0,0h0v0s0,0,0,0h0a.05.05,0,0,0,0,0l0,0-.05,0h0l0,0h0v0h0v0a.1.1,0,0,0-.06.05v0a.11.11,0,0,0-.07.06h0v0s0,0,0,0a0,0,0,0,1,0,0h0v0a.32.32,0,0,0-.12.11h0l0,.06v0a.13.13,0,0,0,0,.07.49.49,0,0,0-.14.18v0l0,0h0s0,0,0,.05h-.09a.18.18,0,0,1-.1-.09l0,0a.08.08,0,0,1,0-.1c.06-.17.1-.34.16-.52l.15-.45c0-.06,0-.13.07-.2l0,0s0,0,0,0a.14.14,0,0,1,.07.08.26.26,0,0,1,0,.15c0,.13-.07.25-.07.38s0,0,0,0a.06.06,0,0,0,0,0s0,0,0,0l.06-.06a2.6,2.6,0,0,1,.33-.25l.27-.16.38-.2a.84.84,0,0,1,.27-.08.26.26,0,0,1,.23.08.53.53,0,0,1,.1.12S46.17,31.06,46.16,31.07Zm-1.79,1.22h0ZM45.83,31a.54.54,0,0,0-.21.08,3.83,3.83,0,0,0-.67.43c-.21.18-.36.4-.56.6a.09.09,0,0,0,0,.05h0l.08-.1A3.9,3.9,0,0,1,45,31.5a3,3,0,0,1,.75-.46Zm-1.46,1.26h0v0Zm0,0v0h0Zm0,0h0Zm0,0a0,0,0,0,1,0,0A0,0,0,0,0,44.41,32.23Zm0,0h0l0,0Zm0,0h0Zm0,0h0Zm0,0a0,0,0,0,0,0,0l0,0,0,0S44.47,32.17,44.46,32.17Zm0,0v0h0Zm.06-.44s0,0,0,0S44.56,31.69,44.55,31.7Zm0,.35v0Zm.07-.08h0s0,0,0,0S44.63,32,44.63,32Zm0,0h0v0h0l0,0a0,0,0,0,0,0,0s0,0,0,0S44.66,31.93,44.66,31.94Zm0-.34s0,0,0,0Zm0,.29s0,0,0,0S44.69,31.88,44.69,31.89Zm0-.34h0v0A.05.05,0,0,0,44.7,31.55Zm0,.31h0a0,0,0,0,0,0,0Zm0,0h0v0Zm0,0h0Zm0-.31h0a.05.05,0,0,0,0,0h0s0,0,0,0h0s0,0,0,0h0v0l0,0h0l0,0s0,0,0,0a0,0,0,0,1,0,0,0,0,0,0,0,0,0h0l0,0H45a0,0,0,0,0,0,0h0v0l0,0a.05.05,0,0,0,0,0h0s.06,0,.07-.05v0l0,0s0,0,0,0h0l0,0s0,0,0,0,0,0,0,0h0l0,0v0s.06,0,.07-.05h0l0,0h0l0,0h0l0,0v0h0s.05,0,.07,0v0h0a.09.09,0,0,0-.08,0h0a1.87,1.87,0,0,0-.31.17.41.41,0,0,0-.13.08.18.18,0,0,0-.07.05.18.18,0,0,0-.07.05s0,0,0,0a0,0,0,0,0,0,0,0,0,0,0,0,0,0,.07.07,0,0,0-.06,0Zm0,.29h0l0,0Zm0,0,0,0v0Zm0,0h0Zm0,0h0v0S44.8,31.77,44.79,31.76Zm.06,0v0Zm0,0h0Zm0,0h0a0,0,0,0,0,0,0A0,0,0,0,0,44.89,31.67Zm0,0h0Zm0,0,0,0Zm0,0h0v0Zm0,0h0l0,0h0Zm0,0Zm0-.27v0h0Zm0,.24h0a0,0,0,0,1,0,0Zm0,0h0l0,0Zm0,0,0,0h0Zm0-.27v0h0Zm0,.25a0,0,0,0,1,0,0h0Zm.05-.27h0Zm0,0v0h0Zm0,.2v0S45.13,31.47,45.14,31.46Zm0,0h0Zm.08-.29a0,0,0,0,1,0,0h0Zm.42-.24s.05,0,0,0Z"/><path class="cls-32" d="M48.34,31.16l-.12.1a.07.07,0,0,1,0,0v0s0,0,0,0v0h0a0,0,0,0,0,0,0l0,0-.27.28s0,0,0,0h0a.12.12,0,0,0,.05-.05s0-.05.07-.06,0,0,0,.05l-.32.34a2,2,0,0,1-.19.22,2.2,2.2,0,0,1-.31.3.31.31,0,0,1-.09.07.16.16,0,0,1-.16,0l0,0a.15.15,0,0,1-.06-.13.68.68,0,0,1,0-.14,3.47,3.47,0,0,1,.19-.57,1.72,1.72,0,0,1,.07-.21s0,0,0,0,0,0,0,0,0,0,0-.05v-.07s0,0,0,0h0a0,0,0,0,0,0,0h0l0,0h0v0h0s0,0,0,0a1.82,1.82,0,0,1-.52.44l-.15.06h-.1a.23.23,0,0,1-.15-.15.06.06,0,0,1,0-.07.47.47,0,0,1,0-.14l.07-.14a1.33,1.33,0,0,1,.27-.26.52.52,0,0,1,.36-.11l.12,0s0,0,.07,0,.1-.14.14-.21l0,0h0c.1-.11.18-.23.29-.33l.07-.07a.05.05,0,0,1,.08,0l.05,0a.12.12,0,0,1,0,.15,1.86,1.86,0,0,1-.1.25.13.13,0,0,0,0,0l0,0a.14.14,0,0,1,0,.06v0a.3.3,0,0,1,0,.08v0l0,0v0l0,.05a.22.22,0,0,0,0,.12.18.18,0,0,0,0,.1s0,0,0,0h0l0,.1a.14.14,0,0,0,0,.07s0,0,0,0h0l0,.07a0,0,0,0,1,0,0s0,0,0,.05l-.1.25A.29.29,0,0,0,47,32a.87.87,0,0,0-.08.26.17.17,0,0,0,0,.1h0s0,0,0,0l.06,0,.31-.33c.1-.09.19-.19.29-.27l.31-.31.3-.29s0,0,0,0,0,0,.08,0S48.36,31.13,48.34,31.16Zm-1.75.14.12-.15,0-.07s0,0,0,0h0a.45.45,0,0,0-.16,0,.91.91,0,0,0-.16.11.15.15,0,0,1-.07,0s.05,0,.06-.07,0,0,0,0l0,0a.42.42,0,0,0-.17.18.07.07,0,0,0,0,.05.07.07,0,0,0,0-.05l0,0s0-.05.06-.06,0,0,0,.06a.43.43,0,0,0-.13.17.54.54,0,0,0-.07.19s0,0,0,0l.12-.07A2.08,2.08,0,0,0,46.59,31.3Zm-.45.13,0,0S46.15,31.42,46.14,31.43Zm0-.16h0s0,0,0,0Zm0,0h0Zm0,0h0v0A0,0,0,0,1,46.19,31.23Zm0,0h0A0,0,0,0,1,46.21,31.21Zm0,0v0a.18.18,0,0,0,.08-.09,0,0,0,0,0,0,0l0,0s0,0,0,0h0a.13.13,0,0,0-.08.08s0,0,0,0h0Zm.32.24h0l0,0h0a0,0,0,0,1,0,0s0,0,0,0h0s.05,0,.05-.07h0a0,0,0,0,0,0,0h0a0,0,0,0,1,0,0h0l0,0h0s0,0,0,0h0v0h0v0s0,0,0,0h0s0,0,0,0h0v0a.09.09,0,0,0,0,.06h0l0,.05a0,0,0,0,1,0,0l-.08.1-.14.14.06,0A0,0,0,0,1,46.55,31.47Zm0,.12s0,0,0,0Zm.37-.4s0,0,0,0h0l0,0a3.58,3.58,0,0,1-.26.29l0,0h0s0,0,0,0l0,0h0l.06-.05.25-.29Zm-.34.24v0h0Zm.11-.11h0Zm0-.05v0h0s0,0,0,0Zm0,0h0Zm.11-.14h0s0,0,0,0S46.83,31.09,46.83,31.12Zm0,.2h0Zm.18-.31a1.25,1.25,0,0,0,.09-.12h0l0,0h0l0,0v0h0l0,0,0,0h0l0,0h0s0,0,0,0A.16.16,0,0,0,47.05,31Zm-.06.92a.09.09,0,0,0,0-.07S47,31.9,47,31.93Zm.18-1-.14.2a.13.13,0,0,0,0,.11.17.17,0,0,1,0,.07s0,0,0,0l0,0S47.21,30.92,47.17,30.9Zm-.08.77h0Zm0-.78v0Zm0-.19a.05.05,0,0,0,0,0v0l0,0s0,0,0,0h0l0,0a0,0,0,0,0,0,0l0,0h0v0h0a0,0,0,0,0,0,0,.17.17,0,0,0-.06.06.07.07,0,0,0,0,.06,0,0,0,0,0,0,0Zm.08.64a.09.09,0,0,0,0,.06A.33.33,0,0,0,47.23,31.34Zm0-.74h0Zm0,.78Zm0-.2s0,0,0,0Zm0-.67s0,0,0,0h0v0Zm0,.55h0Zm.16.79a.77.77,0,0,0-.15.16s0,0,0,0a1.21,1.21,0,0,0,.16-.16Zm0,.14h0a.49.49,0,0,0-.12.13.37.37,0,0,0,.12-.13S47.49,32,47.49,32Zm-.1-1s0,0,0,.06A.14.14,0,0,0,47.39,31Zm0,0s0,0,0,0h0Zm.06,1h0A0,0,0,0,0,47.5,32Zm0,0h0Zm.24-.25h0v0s0,0,0,0h0l-.16.17v0a.69.69,0,0,0,.16-.18h0l0,0v0Zm-.16.06Zm0,0a.18.18,0,0,0,.1-.09A.28.28,0,0,0,47.61,31.75Zm.25-.25a.68.68,0,0,0-.12.12A.23.23,0,0,0,47.86,31.5Zm0,.06,0,0h0Zm0,0,.12-.12A.28.28,0,0,1,47.93,31.54Zm.15-.24a.3.3,0,0,0-.13.12l.06,0Zm0,.11h0Zm0-.07h0a.09.09,0,0,1-.06.06Zm0,0h0S48.13,31.33,48.13,31.34Zm0,0Zm0,0h0Zm.1-.18-.07.06C48.24,31.16,48.24,31.16,48.26,31.12Z"/><path class="cls-32" d="M51.44,27.24l0,.1h0a.5.5,0,0,0-.08.12l0,.07h0l0,0a.29.29,0,0,1-.07.12s0,0,0,0v0a.18.18,0,0,0-.05.07A.44.44,0,0,1,51,28h0L51,28a1.27,1.27,0,0,0-.13.22s0,0,0,0a.2.2,0,0,0,0,.08s0,.07,0,.11v0s0,0,0,0a0,0,0,0,0,0,0h0l0,0a.57.57,0,0,0-.08.13,1.11,1.11,0,0,0-.09.19.9.9,0,0,0-.12.24h0s0,0,0,0a0,0,0,0,0,0,0s0,0,0,0a.3.3,0,0,0,0,.08s0,0,0,0a.27.27,0,0,0-.06.1s0,.1-.07.15,0,0,0,0a.2.2,0,0,0,0,.08h0s0,0,0,0h0s0,0,0,0A1,1,0,0,0,50,30s0,0,0,0l0,.05a1.86,1.86,0,0,0-.1.25.52.52,0,0,0-.06.13,0,0,0,0,1,0,0s0,0,0,.06a2.46,2.46,0,0,0-.14.38v0s0,0,0,0a.39.39,0,0,0-.05.14.27.27,0,0,0,0,.12s0,0,0,0a.36.36,0,0,0,0,.11.19.19,0,0,0,0,.08.07.07,0,0,0,0,.05.11.11,0,0,0,0,.08h0s0,0,0,0,0,0,0,.07a2.45,2.45,0,0,0-.08.29.22.22,0,0,0,0,.11.64.64,0,0,0-.07.28.17.17,0,0,0,0,.12h0s0,0,.06,0l.06-.05c.1-.13.21-.25.32-.37l.3-.33.33-.35c.11-.11.21-.23.32-.33l0,0s0,0,.1,0,0,.05,0,.08l-.11.12,0,0v0s0,0,0,0,0,0,0,0h0s0,0,0,0l0,0-.29.31a.08.08,0,0,0,0,.05h0a0,0,0,0,0,0,0h0l.06-.06a.23.23,0,0,1,.07-.07l0,.06-.33.39c-.07.08-.13.17-.2.24a2.82,2.82,0,0,1-.33.36l-.09.06a.15.15,0,0,1-.19,0l0,0a.19.19,0,0,1-.08-.15,1,1,0,0,1,0-.17,4.74,4.74,0,0,1,.16-.65c0-.08,0-.15.06-.24a.11.11,0,0,1,0-.05s0,0,0,0,0,0,0-.06a.28.28,0,0,0,0-.09s0,0,0,0l0,0v0l0,.05h0l0,0h0a1.72,1.72,0,0,1-.54.5.43.43,0,0,1-.17.06.13.13,0,0,1-.12,0,.32.32,0,0,1-.19-.17.15.15,0,0,1,0-.09.42.42,0,0,1,0-.16,1,1,0,0,1,.07-.15,1.19,1.19,0,0,1,.28-.31.53.53,0,0,1,.4-.12l.13,0c.06,0,.06,0,.09,0s.1-.16.14-.24.24-.4.35-.6.18-.32.27-.49l.14-.24.07-.13a.75.75,0,0,1,.07-.12c.09-.17.19-.34.27-.51l.27-.45.25-.41.38-.56.07-.08s0,0,.09,0a1.27,1.27,0,0,1,.1.12S51.46,27.23,51.44,27.24Zm-2.74,4a1,1,0,0,1,.12-.17.56.56,0,0,0,0-.08s0,0,0,0h0a.53.53,0,0,0-.18,0l-.18.12a.1.1,0,0,1-.07,0s0-.05.06-.07,0,0,0,0,0,0-.05,0a.44.44,0,0,0-.18.2.08.08,0,0,0,0,.06.1.1,0,0,0,0-.05s0,0,.05-.06l.07-.06a.1.1,0,0,1,0,.07.91.91,0,0,0-.13.19.79.79,0,0,0-.05.22s0,0,0,0l.14-.08A2,2,0,0,0,48.7,31.28Zm-.51,0h0v0Zm0,.18s0,0,0,0S48.2,31.42,48.19,31.43Zm0-.2h0v0A0,0,0,0,1,48.2,31.23Zm0,0h0v0h0Zm0,0v0s0,0,0,0Zm0,0h0v0h0Zm0,0h0Zm0,0,0,0h0v0a.21.21,0,0,0,.09-.1v0h0A.28.28,0,0,0,48.26,31.16Zm.12-.1s0,0,0,0S48.39,31,48.38,31.06Zm.3.41,0,0h0l0,0v0a0,0,0,0,0,0,0h0l0,0v0s0,0,0,0a.13.13,0,0,0,.06-.07h0a0,0,0,0,0,0,0h0v0a0,0,0,0,0,0,0h0v0h0s0,0,0-.05h0a0,0,0,0,0,0,0v0h0s0,0,0,0v0s0,0,0,0h0v0s0,0,0,0h0v0l0,0h0l0,0h0v0a.13.13,0,0,0,0,.06,0,0,0,0,0,0,0,.12.12,0,0,0-.05.07h0a.48.48,0,0,0-.09.11,1.07,1.07,0,0,0-.14.16s0,0,.06,0l0,0h0A0,0,0,0,0,48.68,31.47Zm0,.14s0,0,0,0S48.66,31.62,48.68,31.61Zm0-.16v0h0Zm.39-.32h0s0,0,0,0-.17.23-.26.34,0,0,0,0,0,0,0,0,0,0,0,0l0,0a0,0,0,0,1,0,0s0,0,.06-.05a2.18,2.18,0,0,0,.26-.34s0,0,0,0Zm-.36.29h0Zm.17-.22h0Zm.07-.13h0S49,31,49,31.07Zm.08.23h0Zm0-.07Zm.12-.28a1.14,1.14,0,0,0,.15-.23s0,0,0,0a1.82,1.82,0,0,0-.15.23,0,0,0,0,0,0,0l-.07.09h0a0,0,0,0,0,0,0A.11.11,0,0,0,49.19,31Zm.2-.22a.31.31,0,0,0-.1.15.29.29,0,0,0-.08.13.12.12,0,0,0,0,.16s0,.06,0,.09a0,0,0,0,0,0,0v0c.05-.13.08-.25.13-.39v0a0,0,0,0,0,0,0Zm-.16.28h0Zm0,.92a.64.64,0,0,0,0,.07A.06.06,0,0,0,49.24,31.93Zm.07-.22h0Zm.12-1.14a.05.05,0,0,0,0,0Zm0,.76s0,0,0,.07A.11.11,0,0,0,49.43,31.33Zm.06-.19s0,0,0,0A.08.08,0,0,0,49.49,31.14Zm0-.14v0h0Zm0-.11s0,0,0,.07A.11.11,0,0,0,49.58,30.89Zm.06-.18a.14.14,0,0,0,0,.07A.1.1,0,0,0,49.64,30.71Zm0,.22v0Zm0,1.2c.06-.05.11-.12.17-.18s0,0,0,0a1.37,1.37,0,0,0-.16.18A0,0,0,0,0,49.63,32.13Zm.17-.08a0,0,0,0,1,0,0h0a.51.51,0,0,0-.13.16.51.51,0,0,0,.13-.16h0S49.8,32.06,49.8,32.05Zm-.13-1.4a0,0,0,0,1,0,0S49.67,30.66,49.67,30.65Zm.1-.26s0,0,0,0h0Zm0,.06s0,0,0,0h0S49.82,30.45,49.81,30.45Zm0-.19a0,0,0,0,0,0,0Zm0,1.77v0Zm0,0a.7.7,0,0,0,.18-.2h0l0,0s0,0,0,0h0s0,0,0,0h0l0,0h0v0l0,0a1.37,1.37,0,0,0-.16.18Zm0-1.87a.17.17,0,0,0,0,.05S49.87,30.19,49.86,30.16Zm0,1.67h0Zm0,0a.17.17,0,0,0,.1-.1A.47.47,0,0,0,49.91,31.79ZM50,30s0,0,0,.06A.09.09,0,0,0,50,30Zm0-.06v0A0,0,0,0,0,50,29.89Zm0,0v0S50,29.87,50,29.86Zm0,0s0,0,0,0h0Zm0,1.81a.29.29,0,0,0,.13-.14A.44.44,0,0,0,50,31.66Zm.09-2.08s0,0,0,0a.09.09,0,0,0,0,.07.21.21,0,0,0,0-.07S50.13,29.59,50.13,29.58Zm0,0s0,0,0,0S50.15,29.54,50.16,29.53Zm.05-.13a0,0,0,0,0,0,0S50.21,29.41,50.21,29.4Zm0,2.16s0,0,0,0h0S50.25,31.57,50.25,31.56Zm0-2.26h0v0s0,0,0,0Zm0,2.12a.18.18,0,0,0,.07-.05l.07-.09A.62.62,0,0,0,50.26,31.42Zm.12,0a.28.28,0,0,1-.12.14A.41.41,0,0,1,50.38,31.42Zm-.07-2.23h0Zm.07,2.23,0,0s0,0,0,0Zm.07-.09h0a.16.16,0,0,1-.07.07Zm0,0h0Zm0,0Zm0,0h0Zm0,0h0Zm0-.15s0,0,.07-.07A.46.46,0,0,0,50.52,31.14Zm.22-2.65h0Zm0,0h0v0Z"/><path class="cls-32" d="M52.55,31.16l-.11.1a.1.1,0,0,1,0,0v0l0,0h0a0,0,0,0,0,0,0l0,0-.28.28,0,0h0a0,0,0,0,1,0,0s0,0,0,0h0s0,0,.06-.05,0-.05.07-.06a.07.07,0,0,1,0,.05l-.32.34a2,2,0,0,1-.19.22c-.1.11-.21.21-.31.3l-.09.07a.15.15,0,0,1-.16,0l0,0a.17.17,0,0,1,0-.13.34.34,0,0,1,0-.14,3.47,3.47,0,0,1,.19-.57,1.66,1.66,0,0,1,.06-.21.08.08,0,0,0,0,0,0,0,0,0,0,0,0s0,0,0-.05v-.07s0,0,0,0h0a0,0,0,0,0,0,0h0l0,0h0v0h0a1.66,1.66,0,0,1-.51.44l-.15.06H50.3a.25.25,0,0,1-.15-.15.08.08,0,0,1,0-.07.29.29,0,0,1,0-.14s0-.1.08-.14a1.07,1.07,0,0,1,.26-.26.56.56,0,0,1,.37-.11L51,31s0,0,.08,0,.09-.14.14-.21l0,0h0c.1-.11.19-.23.3-.33a.23.23,0,0,1,.07-.07.05.05,0,0,1,.08,0l0,0a.11.11,0,0,1,.05.15,1.09,1.09,0,0,1-.1.25s0,0,0,0l0,0a.09.09,0,0,1,0,.06v0s0,.05,0,.08v0l0,0s0,0,0,0a.09.09,0,0,1,0,.05.22.22,0,0,0,0,.12.13.13,0,0,0,0,.1,0,0,0,0,0,0,0h0a.3.3,0,0,0,0,.1.15.15,0,0,0,0,.07l0,0h0s0,.05,0,.07a0,0,0,0,0,0,0,.05.05,0,0,0,0,.05l-.1.25a.29.29,0,0,0,0,.09.89.89,0,0,0-.09.26.3.3,0,0,0,0,.1h0s0,0,.05,0l0,0,.32-.33.28-.27c.1-.11.21-.21.32-.31a4.11,4.11,0,0,1,.3-.29,0,0,0,0,0,0,0s0,0,.09,0S52.58,31.13,52.55,31.16Zm-1.74.14.12-.15,0-.07a0,0,0,0,0,0,0h0a.4.4,0,0,0-.15,0l-.17.11s0,0-.06,0,0,0,.06-.07a0,0,0,0,0,0,0s0,0,0,0a.52.52,0,0,0-.18.18.05.05,0,0,0,0,.05.06.06,0,0,0,0-.05.11.11,0,0,0,0,0s0-.05.07-.06,0,0,0,.06a.76.76,0,0,0-.13.17.39.39,0,0,0-.06.19s0,0,0,0l.12-.07A2.58,2.58,0,0,0,50.81,31.3Zm-.46.13,0,0S50.37,31.42,50.35,31.43Zm0-.16h0s0,0,0,0Zm0,0h0Zm0,0h0v0S50.42,31.23,50.41,31.23Zm0,0h0A0,0,0,0,1,50.43,31.21Zm0,0v0a.2.2,0,0,0,.09-.09,0,0,0,0,1,0,0,0,0,0,0,0,0,0l0,0h0a.14.14,0,0,0-.09.08,0,0,0,0,0,0,0h0Zm.33.24h0v0h0a0,0,0,0,0,0,0s0,0,0,0h0a0,0,0,0,1,0,0,.18.18,0,0,0,0-.07h0s0,0,0,0h0a0,0,0,0,1,0,0h0s0,0,0,0h0a.05.05,0,0,0,0,0h0s0,0,0,0h0v0h0v0s0,0,0,0h0s0,0,0,0h0v0a.09.09,0,0,0,0,.06h0a.1.1,0,0,0,0,.05s0,0,0,0l-.08.1-.13.14.06,0S50.76,31.47,50.77,31.47Zm0,.12,0,0S50.76,31.6,50.76,31.59Zm.38-.4s0,0,0,0h0l0,0a2.26,2.26,0,0,1-.25.29l0,0h0s0,0,0,0l0,0h0l.05-.05c.09-.09.17-.19.26-.29Zm-.35.24v0h0S50.79,31.44,50.79,31.43Zm.12-.11h0Zm0-.05v0h0s0,0,0,0Zm0,0h0Zm.11-.14h0a0,0,0,0,1,0,0S51.05,31.09,51.05,31.12Zm0,.2h0Zm.19-.31.09-.12h0l0,0h0s0,0,0,0v0a0,0,0,0,1,0,0h0s0,0,0,0l0,0h0l0,0h0s0,0,0,0A.24.24,0,0,0,51.27,31Zm-.06.92a.15.15,0,0,0,0-.07S51.22,31.9,51.21,31.93Zm.18-1-.15.2a.11.11,0,0,0,0,.11.17.17,0,0,0,0,.07s0,0,0,0,0,0,0,0S51.42,30.92,51.39,30.9Zm-.08.77h0Zm0-.78s0,0,0,0S51.34,30.9,51.35,30.89Zm0-.19a.05.05,0,0,0,0,0v0l0,0v0h0s0,0,0,0,0,0,0,0v0h0s0,0,0,0h0l0,.06a.1.1,0,0,0-.05.06,0,0,0,0,0,0,0Zm.07.64s0,0,0,.06A.07.07,0,0,0,51.44,31.34Zm0-.74h0Zm0,.78Zm0-.2a0,0,0,0,0,0,0A0,0,0,0,0,51.51,31.18Zm0-.67a0,0,0,0,0,0,0h0s0,0,0,0S51.54,30.5,51.53,30.51Zm0,.55h0Zm.17.79a.77.77,0,0,0-.15.16s0,0,0,0,.1-.11.15-.16Zm0,.14a0,0,0,0,1,0,0,.49.49,0,0,0-.12.13.37.37,0,0,0,.12-.13S51.7,32,51.7,32Zm-.09-1a.06.06,0,0,0,0,.06A.09.09,0,0,0,51.61,31Zm0,0v0h0Zm.06,1h0S51.71,32,51.71,32Zm0,0h0Zm.24-.25h0v0h0a0,0,0,0,1,0,0h0a.83.83,0,0,0-.16.17s0,0,0,0a.73.73,0,0,0,.17-.18,0,0,0,0,1,0,0h0l0,0v0Zm-.17.06h0Zm0,0a.2.2,0,0,0,.09-.09A.26.26,0,0,0,51.83,31.75Zm.24-.25-.12.12A.2.2,0,0,0,52.07,31.5Zm.06.06s0,0,0,0h0Zm0,0,.12-.12A.2.2,0,0,1,52.14,31.54Zm.15-.24a.49.49,0,0,0-.13.12l.07,0Zm0,.11a0,0,0,0,1,0,0Zm.06-.07h0a.13.13,0,0,1-.07.06Zm0,0h0A0,0,0,0,0,52.35,31.34Zm0,0Zm0,0h0Zm.1-.18-.07.06A.13.13,0,0,0,52.48,31.12Z"/><polygon class="cls-32" points="17.57 19.18 17.96 18.31 18.24 18.81 17.57 19.18"/><polygon class="cls-32" points="49.28 18.84 49.67 17.96 49.95 18.46 49.28 18.84"/></g></g></svg>