<svg width="134" height="32" viewBox="0 0 134 32" xmlns="http://www.w3.org/2000/svg" xmlns:xlink="http://www.w3.org/1999/xlink"><defs><path id="a" d="M0 31.656h133.9V.146H0z"/></defs><g fill="none" fill-rule="evenodd"><path fill="#FFF" d="M131.41 11.343v-.241h1.295v.241h-.473v1.065h-.347v-1.065zM133.628 11.102l-.266.898h-.003l-.281-.898h-.373v1.306h.248v-.916h.004l.294.916h.204l.294-.926h.004v.926H134v-1.306z"/><g><path d="M123.696 30.455h.857l-.452-.958-.405.958zm-3.66-1.72h2.117v.56h-1.37v.61h1.036l.102.466h-1.138v.747h1.402v.535h-2.164l.015-2.918zm-1.636.483h-.701v.881h.6c.67-.061.56-.883.101-.881zm-1.449-.483H118.4c.557 0 1.086.296 1.106.765.02.46-.08.72-.695.942l.912 1.114-.824.097-.955-1.167h-.245v1.167h-.748v-2.918zm-3.691 0h.732v2.13c.323.334.819.325 1.465.013v-2.143h.748v2.918h-.748v-.305c-.557.512-2.197.409-2.197-.484v-2.13zm-2.322 1.72h.858l-.453-.958-.405.958zm-.577 1.198h-.763l1.372-2.918h.794l1.418 2.918h-.78l-.373-.705h-1.324l-.344.705zm12.76 0h-.764l1.37-2.918h.795l1.417 2.918h-.778l-.375-.705h-1.323l-.342.705zm5.311-2.918v.56h-1.216v2.358h-.747v-2.357h-1.106v-.561h3.069zm-21.108 2.918v-2.918h.84v2.354h1.063l.122.564h-2.025zm21.435-2.918H130.877v.56h-1.37v.61h1.036l.101.466h-1.137v.747h1.402v.535h-2.165l.015-2.918zM103.242 29.975a.568.568 0 0 0-.072-.173.371.371 0 0 0-.123-.118.347.347 0 0 0-.178-.044.35.35 0 0 0-.3.162.508.508 0 0 0-.072.173.883.883 0 0 0 0 .406.483.483 0 0 0 .071.172c.033.05.074.09.125.12a.35.35 0 0 0 .176.044c.07 0 .13-.015.178-.044.05-.03.09-.07.123-.12a.536.536 0 0 0 .072-.172.886.886 0 0 0 0-.406zm-.752-1.277v.845h.007a.494.494 0 0 1 .23-.19.8.8 0 0 1 .301-.06c.086 0 .17.017.252.052a.637.637 0 0 1 .225.158c.067.072.12.164.162.276.041.11.061.244.061.398 0 .155-.02.286-.061.399a.815.815 0 0 1-.162.273.641.641 0 0 1-.477.212.882.882 0 0 1-.332-.059.416.416 0 0 1-.222-.198h-.007v.215h-.441v-2.321h.464zM104.566 31.52a.676.676 0 0 1-.373.087c-.048 0-.095-.001-.142-.005a7.426 7.426 0 0 1-.143-.011v-.38c.044.003.089.007.134.013.046.004.091.005.138.003a.18.18 0 0 0 .135-.072.227.227 0 0 0 .044-.136.275.275 0 0 0-.02-.104l-.592-1.577h.495l.382 1.151h.007l.369-1.15h.48l-.706 1.888a.575.575 0 0 1-.208.293M43.457 16.508c.125.504.325.957.6 1.36.273.403.63.726 1.072.97.44.242.977.364 1.609.364.631 0 1.167-.122 1.609-.365.44-.243.798-.566 1.072-.969s.474-.856.599-1.36a6.431 6.431 0 0 0 .188-1.556c0-.557-.063-1.096-.188-1.618a4.283 4.283 0 0 0-.599-1.396 3.038 3.038 0 0 0-1.072-.978c-.442-.242-.978-.364-1.61-.364-.631 0-1.167.122-1.608.364-.441.244-.799.57-1.073.978-.274.41-.474.875-.599 1.396a6.919 6.919 0 0 0-.187 1.618c0 .534.062 1.052.187 1.556m-2.565-4.196a6.336 6.336 0 0 1 1.234-2.125A5.642 5.642 0 0 1 44.1 8.764c.78-.343 1.66-.515 2.637-.515.989 0 1.87.172 2.645.515.775.344 1.43.818 1.967 1.423a6.332 6.332 0 0 1 1.233 2.125c.286.812.43 1.692.43 2.64 0 .925-.144 1.787-.43 2.587a6.165 6.165 0 0 1-1.233 2.09 5.668 5.668 0 0 1-1.967 1.395c-.775.338-1.656.507-2.645.507-.978 0-1.857-.169-2.637-.507a5.646 5.646 0 0 1-1.975-1.396 6.168 6.168 0 0 1-1.234-2.089 7.629 7.629 0 0 1-.429-2.587c0-.948.143-1.828.43-2.64M56.444 12.054v1.28h.054c.322-.533.739-.922 1.251-1.165a3.638 3.638 0 0 1 1.573-.364c.68 0 1.236.092 1.672.276.435.184.777.438 1.028.764.25.326.425.723.527 1.191.1.469.152.987.152 1.556v5.654h-2.538v-5.191c0-.759-.12-1.325-.358-1.699-.239-.373-.662-.56-1.27-.56-.69 0-1.191.205-1.5.614-.31.409-.466 1.082-.466 2.018v4.818h-2.538v-9.192h2.413zM69.592 14.205c-.304-.331-.766-.497-1.386-.497-.405 0-.742.068-1.01.204a1.92 1.92 0 0 0-.643.507 1.853 1.853 0 0 0-.34.64 2.875 2.875 0 0 0-.116.604h4.13c-.12-.64-.331-1.126-.635-1.458m-2.87 4.837c.382.367.93.551 1.645.551.512 0 .954-.127 1.323-.382.37-.255.596-.525.68-.81h2.234c-.358 1.103-.906 1.892-1.645 2.365-.739.475-1.633.712-2.681.712-.727 0-1.383-.116-1.966-.347a4.086 4.086 0 0 1-1.484-.987 4.433 4.433 0 0 1-.939-1.53 5.567 5.567 0 0 1-.33-1.955c0-.687.113-1.327.34-1.92a4.501 4.501 0 0 1 .965-1.538 4.54 4.54 0 0 1 1.492-1.023 4.807 4.807 0 0 1 1.922-.373c.786 0 1.472.151 2.056.453a4.101 4.101 0 0 1 1.439 1.218c.375.51.646 1.091.813 1.743.167.652.226 1.333.179 2.045h-6.668c.036.817.244 1.41.626 1.778M82.882 8.551v2.347h-6.167v2.934h5.345v2.17h-5.345v5.245H73.91V8.55zM89.371 16.748a1.137 1.137 0 0 1-.402.222 4.138 4.138 0 0 1-.519.134 8 8 0 0 1-.58.088c-.203.024-.406.054-.608.09-.191.035-.379.082-.563.142-.185.06-.346.139-.483.24-.137.1-.248.228-.33.382-.084.154-.126.35-.126.587 0 .225.042.415.125.569a.953.953 0 0 0 .34.364c.143.09.31.151.5.187.19.036.387.053.59.053.5 0 .888-.083 1.162-.249a1.67 1.67 0 0 0 .608-.595 1.9 1.9 0 0 0 .241-.703 4.84 4.84 0 0 0 .045-.569v-.942zm-5.863-1.867c.036-.593.184-1.085.446-1.476a3.036 3.036 0 0 1 1.002-.942c.405-.237.86-.406 1.367-.507a7.817 7.817 0 0 1 1.528-.151c.465 0 .936.033 1.413.098.476.065.911.192 1.305.382.393.19.715.453.965.791s.375.786.375 1.343v4.783c0 .415.024.812.072 1.191.047.38.13.664.25.854h-2.574a3.535 3.535 0 0 1-.179-.89 3.311 3.311 0 0 1-1.43.872 5.773 5.773 0 0 1-1.68.249c-.441 0-.852-.054-1.234-.16a2.83 2.83 0 0 1-1-.498 2.315 2.315 0 0 1-.671-.854c-.16-.343-.241-.752-.241-1.227 0-.521.092-.95.277-1.289a2.31 2.31 0 0 1 .715-.809 3.214 3.214 0 0 1 1-.453c.376-.1.754-.18 1.136-.24.381-.06.757-.107 1.126-.142.37-.036.697-.09.983-.16.286-.072.513-.175.68-.312.166-.136.244-.334.232-.595 0-.273-.045-.49-.134-.65a.982.982 0 0 0-.358-.373 1.416 1.416 0 0 0-.518-.178 4.288 4.288 0 0 0-.635-.044c-.5 0-.893.107-1.18.32-.285.214-.452.57-.5 1.067h-2.538zM97.665 13.708c-.405 0-.745.091-1.019.275a2.198 2.198 0 0 0-.67.711c-.173.29-.295.61-.366.96a4.967 4.967 0 0 0 0 2.053c.071.345.187.656.348.935.16.278.378.506.653.684.274.178.607.267 1 .267.609 0 1.076-.169 1.404-.507.328-.338.533-.791.617-1.36h2.449c-.167 1.221-.644 2.151-1.43 2.791-.787.64-1.794.96-3.021.96a5.085 5.085 0 0 1-1.904-.346 4.22 4.22 0 0 1-1.475-.97 4.402 4.402 0 0 1-.947-1.484 5.124 5.124 0 0 1-.34-1.893c0-.712.104-1.372.313-1.983.208-.61.515-1.138.92-1.583.405-.444.9-.79 1.484-1.04.584-.249 1.251-.373 2.002-.373.548 0 1.076.07 1.582.213.507.143.96.359 1.359.65.399.29.724.651.974 1.084.25.433.393.945.43 1.538h-2.486c-.167-1.055-.792-1.582-1.877-1.582M109.141 21.247v-1.28h-.053c-.322.533-.74.918-1.251 1.155a3.715 3.715 0 0 1-1.574.356c-.679 0-1.236-.09-1.67-.267-.436-.178-.779-.43-1.029-.756a2.949 2.949 0 0 1-.527-1.191 7.36 7.36 0 0 1-.152-1.556v-5.654h2.538v5.192c0 .758.12 1.325.358 1.698s.661.56 1.269.56c.691 0 1.192-.205 1.502-.614.31-.408.464-1.081.464-2.018v-4.818h2.539v9.193h-2.414z" fill="#FFF"/><mask id="b" fill="#fff"><use xlink:href="#a"/></mask><path fill="#FFF" mask="url(#b)" d="M112.93 21.246h2.54V8.551h-2.54zM121.923 12.054v1.689h-1.86v4.552c0 .427.072.711.215.853.143.143.429.214.858.214.143 0 .28-.006.411-.018.131-.012.256-.03.376-.053v1.955a6.04 6.04 0 0 1-.716.072c-.262.011-.518.018-.768.018-.393 0-.766-.027-1.118-.08a2.643 2.643 0 0 1-.929-.312 1.65 1.65 0 0 1-.635-.658c-.155-.284-.232-.657-.232-1.12v-5.423h-1.537v-1.69h1.537V9.299h2.538v2.756h1.86z"/><path d="M125.926 23.985c-.488.32-1.168.48-2.037.48-.263 0-.522-.009-.778-.027a37.16 37.16 0 0 1-.778-.062v-2.08l.733.07c.25.024.5.03.751.018.334-.035.581-.166.742-.39.16-.226.241-.475.241-.747 0-.202-.035-.392-.107-.57l-3.236-8.623h2.7l2.091 6.294h.036l2.02-6.294h2.628l-3.862 10.33c-.274.747-.655 1.28-1.144 1.6M4.7 15.479c0 .654-.533 1.185-1.191 1.185s-1.192-.531-1.192-1.185c0-.655.534-1.185 1.192-1.185.658 0 1.191.53 1.191 1.185" fill="#FFF" mask="url(#b)"/><path fill="#FFF" mask="url(#b)" d="M2.317 15.834H4.7V8.521H2.317z"/><path d="M4.72 8.44c0 .655-.534 1.186-1.192 1.186-.658 0-1.191-.53-1.191-1.185 0-.654.533-1.185 1.191-1.185s1.191.53 1.191 1.185M21.355 1.331c0 .654-.534 1.185-1.192 1.185-.657 0-1.19-.53-1.19-1.185s.533-1.185 1.19-1.185c.658 0 1.192.53 1.192 1.185" fill="#FFF" mask="url(#b)"/><path fill="#FFF" mask="url(#b)" d="M2.978 7.39L19.926.147l.237 2.37-15.85 7.093zM35.623 8.44c0 .655.533 1.186 1.19 1.186.659 0 1.192-.53 1.192-1.185 0-.654-.533-1.185-1.191-1.185s-1.191.53-1.191 1.185"/><path d="M18.987 1.331c0 .654.534 1.185 1.191 1.185.659 0 1.192-.53 1.192-1.185S20.837.146 20.178.146c-.657 0-1.19.53-1.19 1.185" fill="#FFF" mask="url(#b)"/><path fill="#FFF" mask="url(#b)" d="M37.364 7.39L20.416.147l-.238 2.37L36.03 9.609zM20.105 22.668l-8.69-3.889a1.25 1.25 0 0 0-.84-.325c-.691 0-1.252.557-1.252 1.244 0 .61.46.963 1.024 1.223-.004.014 9.224 3.99 9.224 3.99.041.02.084.039.128.055l.17.049a1.188 1.188 0 0 0 1.426-1.162c.001-.655-.532-1.185-1.19-1.185"/><path d="M35.623 8.426c0-.655.533-1.185 1.19-1.185.659 0 1.192.53 1.192 1.185 0 .654-.533 1.185-1.191 1.185s-1.191-.53-1.191-1.185M18.987 15.536c0-.655.534-1.185 1.191-1.185.659 0 1.192.53 1.192 1.185 0 .654-.533 1.185-1.192 1.185-.657 0-1.19-.531-1.19-1.185" fill="#FFF" mask="url(#b)"/><path fill="#FFF" mask="url(#b)" d="M37.2 9.547L20.415 16.72l-.238-2.37L36.03 7.257zM3.135 9.543l-.157-.067c.05.026.103.048.157.067M19.757 16.648l-.128-.054c.041.02.084.039.128.054M19.926 16.72l.002-.023a1.156 1.156 0 0 1-.17-.049l.168.073zM10.832 10.175l.481.215a1.24 1.24 0 0 0-.48-.215M10.298 12.605l-.422-.18c.126.084.269.146.422.18"/><path d="M20.163 14.35l-8.85-3.96-.48-.215a1.248 1.248 0 0 0-1.509 1.218c0 .43.219.808.552 1.032l.422.18 9.331 3.989.128.054a1.202 1.202 0 0 0 .406.073c.658 0 1.192-.53 1.192-1.185s-.534-1.185-1.192-1.185M20.585 24.847c.044-.016.086-.034.128-.054l-.128.054zM20.416 24.92l.169-.073c-.056.02-.113.038-.172.05l.003.023z" fill="#FFF" mask="url(#b)"/><path d="M30.877 19.59v-3.902-.019c0-.654-.532-1.184-1.19-1.184-.658 0-1.192.53-1.192 1.184v3.277l-8.316 3.722c-.658 0-1.192.53-1.192 1.185a1.188 1.188 0 0 0 1.598 1.113l.128-.055 9.169-3.92c.595-.254.995-.632.996-1.167l-.001-.235M11.784 19.89l-2.46-.234v-8.354h2.46zM3.509 26.167h-.012s-.515-.235-.997-1.041a5.017 5.017 0 0 1-.475-1.083 6.593 6.593 0 0 1-.128-.472 9.474 9.474 0 0 1-.224-2.15c0-.08.007-.161.016-.242.004-.04.008-.08.014-.12l1.79 1.158.013-.001h.007l1.79-1.158c.016.121.029.242.029.364 0 3.914-1.823 4.745-1.823 4.745m-.029-9.44s1.18.655 1.555 2.66l-1.555 1.03-1.555-1.03c.375-2.005 1.555-2.66 1.555-2.66m-.002-2.323c-.826 0-3.478 2.32-3.478 7.054 0 5.943 3.489 7.062 3.489 7.062s3.489-1.08 3.489-7.062c0-4.734-2.675-7.054-3.5-7.054" fill="#FFF" mask="url(#b)"/></g></g></svg>